<svg width="16" height="21" viewBox="0 0 16 21" fill="none" xmlns="http://www.w3.org/2000/svg">
<path d="M8 9.975C7.24224 9.975 6.51551 9.69844 5.9797 9.20615C5.44388 8.71387 5.14286 8.04619 5.14286 7.35C5.14286 6.65381 5.44388 5.98613 5.9797 5.49384C6.51551 5.00156 7.24224 4.725 8 4.725C8.75776 4.725 9.48449 5.00156 10.0203 5.49384C10.5561 5.98613 10.8571 6.65381 10.8571 7.35C10.8571 7.69472 10.7832 8.03606 10.6397 8.35454C10.4961 8.67302 10.2856 8.9624 10.0203 9.20615C9.755 9.44991 9.44003 9.64326 9.09338 9.77518C8.74674 9.9071 8.37521 9.975 8 9.975ZM8 0C5.87827 0 3.84344 0.774373 2.34315 2.15277C0.842855 3.53116 0 5.40066 0 7.35C0 12.8625 8 21 8 21C8 21 16 12.8625 16 7.35C16 5.40066 15.1571 3.53116 13.6569 2.15277C12.1566 0.774373 10.1217 0 8 0Z" fill="#ECF7F5"/>
</svg>
