<svg width="149" height="26" viewBox="0 0 149 26" fill="none" xmlns="http://www.w3.org/2000/svg">
<g clip-path="url(#clip0_613_1487)">
<path d="M38.2627 12.9544C38.2627 12.22 38.4058 11.529 38.6919 10.8801C38.9781 10.2313 39.3686 9.66793 39.8647 9.18898C40.3607 8.71117 40.9401 8.33258 41.6038 8.05433C42.2676 7.77609 42.9724 7.63696 43.7206 7.63696C44.4677 7.63696 45.1701 7.77381 45.8257 8.04863C46.4813 8.32345 47.0559 8.69635 47.5473 9.16731C48.0398 9.63828 48.428 10.1925 48.7142 10.8299C49.0003 11.4674 49.1504 12.1505 49.1657 12.8769V12.8997V12.9556V17.3949C49.1657 17.5956 49.0953 17.7656 48.9534 17.907C48.8127 18.0484 48.6391 18.1179 48.4327 18.1179C48.2263 18.1179 48.0574 18.0472 47.9237 17.907C47.79 17.7656 47.7232 17.5956 47.7232 17.3949L47.7115 16.4382C47.2084 16.9799 46.615 17.4166 45.9324 17.7507C45.2499 18.0849 44.5122 18.2513 43.7183 18.2513C42.9701 18.2513 42.2653 18.1122 41.6015 17.834C40.9377 17.5557 40.3584 17.1771 39.8623 16.6993C39.3662 16.2215 38.9757 15.6593 38.6896 15.0139C38.4058 14.3673 38.2627 13.682 38.2627 12.9544ZM39.704 12.9544C39.704 13.4881 39.8084 13.991 40.0183 14.462C40.2282 14.9329 40.512 15.3446 40.8709 15.697C41.2297 16.0493 41.6531 16.3299 42.141 16.5374C42.6288 16.7449 43.1554 16.8487 43.7195 16.8487C44.2836 16.8487 44.8101 16.7449 45.298 16.5374C45.7858 16.3299 46.2092 16.0493 46.5681 15.697C46.9269 15.3446 47.2084 14.9329 47.4148 14.462C47.6212 13.991 47.7232 13.4881 47.7232 12.9544C47.7232 12.4128 47.62 11.9053 47.4148 11.4298C47.2084 10.9554 46.9269 10.5414 46.5681 10.1891C46.2092 9.8367 45.7858 9.55845 45.298 9.35433C44.8101 9.15021 44.2836 9.04872 43.7195 9.04872C43.1624 9.04872 42.6405 9.15021 42.1515 9.35433C41.6636 9.55845 41.2379 9.8367 40.8756 10.1891C40.5132 10.5414 40.227 10.9554 40.0171 11.4298C39.8084 11.9053 39.704 12.4128 39.704 12.9544Z" fill="#323232"/>
<path d="M51.3496 8.32687C51.3496 8.12617 51.4188 7.96196 51.556 7.83196C51.6932 7.70196 51.8691 7.63696 52.0826 7.63696C52.2808 7.63696 52.4473 7.70196 52.5798 7.83196C52.7135 7.96196 52.7804 8.12731 52.7804 8.32687V12.9886V13.0445C52.7874 14.2316 53.0606 15.1405 53.5989 15.7699C54.136 16.4006 54.8819 16.7153 55.8353 16.7153C56.308 16.7153 56.7524 16.6229 57.1688 16.4371C57.5839 16.2523 57.9463 15.9935 58.2559 15.6639C58.5643 15.3343 58.8082 14.9466 58.9877 14.5007C59.1671 14.056 59.2562 13.5736 59.2562 13.0548V8.34854C59.2562 8.15582 59.3243 7.98933 59.4626 7.84793C59.5998 7.70766 59.7675 7.63696 59.9657 7.63696C60.1639 7.63696 60.334 7.70766 60.4747 7.84793C60.6154 7.98933 60.6858 8.15582 60.6858 8.34854V17.4155C60.6858 17.6162 60.6154 17.7849 60.4747 17.9218C60.334 18.0586 60.1639 18.1271 59.9657 18.1271C59.7593 18.1271 59.5893 18.0586 59.4568 17.9218C59.3231 17.7849 59.2562 17.6162 59.2562 17.4155V16.2249C58.8059 16.7963 58.2723 17.2535 57.6543 17.5991C57.0362 17.9435 56.3772 18.1168 55.6747 18.1168C55.0109 18.1168 54.414 17.9959 53.8839 17.7553C53.3538 17.5147 52.9 17.1714 52.5224 16.7267C52.1447 16.282 51.8551 15.7437 51.6533 15.1131C51.4516 14.4825 51.3496 13.7778 51.3496 12.9989V12.9875V8.32687Z" fill="#323232"/>
<path d="M73.2147 17.4268C73.2147 17.6196 73.1443 17.7826 73.0024 17.9161C72.8617 18.0495 72.6917 18.1168 72.4935 18.1168C72.2953 18.1168 72.1252 18.0506 71.9845 17.9161C71.8438 17.7826 71.7734 17.6196 71.7734 17.4268V16.5374C71.2703 17.0642 70.6769 17.4793 69.9944 17.7838C69.3118 18.0882 68.5695 18.2399 67.7685 18.2399C67.0203 18.2399 66.3155 18.1008 65.6517 17.8225C64.9879 17.5443 64.4086 17.1646 63.9125 16.6822C63.4164 16.1998 63.0259 15.6388 62.7398 14.9968C62.4536 14.3559 62.3105 13.6671 62.3105 12.9327C62.3105 12.1983 62.4536 11.5107 62.7398 10.8687C63.0259 10.2278 63.4164 9.66676 63.9125 9.18895C64.4086 8.71114 64.9879 8.33255 65.6517 8.0543C66.3155 7.77606 67.0203 7.63693 67.7685 7.63693C68.5695 7.63693 69.3106 7.7886 69.9944 8.09307C70.6769 8.39755 71.2703 8.81264 71.7734 9.33948V4.56711C71.7734 4.36641 71.8438 4.2022 71.9845 4.0722C72.1252 3.9422 72.2953 3.8772 72.4935 3.8772C72.6917 3.8772 72.8617 3.9422 73.0024 4.0722C73.1432 4.2022 73.2147 4.36755 73.2147 4.56711V17.4268ZM63.7636 12.9327C63.7636 13.4664 63.8668 13.9716 64.072 14.446C64.2784 14.9204 64.5622 15.3343 64.9246 15.6867C65.287 16.039 65.7103 16.3196 66.1947 16.5271C66.679 16.7347 67.2032 16.8384 67.7673 16.8384C68.3314 16.8384 68.858 16.7347 69.3458 16.5271C69.8337 16.3196 70.257 16.039 70.6159 15.6867C70.9748 15.3343 71.2562 14.9215 71.4626 14.446C71.669 13.9716 71.7711 13.4675 71.7711 12.9327C71.7711 12.3911 71.6679 11.8847 71.4626 11.4138C71.2562 10.9428 70.9748 10.5334 70.6159 10.1845C70.257 9.83553 69.8337 9.55957 69.3458 9.35544C68.858 9.15132 68.3314 9.04983 67.7673 9.04983C67.2103 9.04983 66.6884 9.15132 66.1994 9.35544C65.7115 9.55957 65.2881 9.83553 64.9293 10.1845C64.5704 10.5334 64.2866 10.9428 64.0767 11.4138C63.8691 11.8847 63.7636 12.3911 63.7636 12.9327Z" fill="#323232"/>
<path d="M74.8623 12.9544C74.8623 12.22 75.0054 11.529 75.2915 10.8801C75.5777 10.2313 75.9682 9.66793 76.4643 9.18898C76.9603 8.71117 77.5397 8.33258 78.2034 8.05433C78.8672 7.77609 79.572 7.63696 80.3202 7.63696C81.0673 7.63696 81.7698 7.77381 82.4253 8.04863C83.0809 8.32345 83.6555 8.69635 84.1469 9.16731C84.6394 9.63828 85.0276 10.1925 85.3138 10.8299C85.5999 11.4674 85.75 12.1505 85.7653 12.8769V12.8997V12.9556V17.3949C85.7653 17.5956 85.6949 17.7656 85.553 17.907C85.4123 18.0484 85.2387 18.1179 85.0323 18.1179C84.8259 18.1179 84.657 18.0472 84.5233 17.907C84.3897 17.7656 84.3228 17.5956 84.3228 17.3949L84.3111 16.4382C83.808 16.9799 83.2146 17.4166 82.532 17.7507C81.8495 18.0849 81.1118 18.2513 80.3179 18.2513C79.5697 18.2513 78.8649 18.1122 78.2011 17.834C77.5373 17.5557 76.958 17.1771 76.4619 16.6993C75.9658 16.2215 75.5753 15.6593 75.2892 15.0139C75.0054 14.3673 74.8623 13.682 74.8623 12.9544ZM76.3036 12.9544C76.3036 13.4881 76.408 13.991 76.6179 14.462C76.8278 14.9329 77.1116 15.3446 77.4705 15.697C77.8293 16.0493 78.2527 16.3299 78.7406 16.5374C79.2284 16.7449 79.755 16.8487 80.3191 16.8487C80.8832 16.8487 81.4097 16.7449 81.8976 16.5374C82.3854 16.3299 82.8088 16.0493 83.1677 15.697C83.5265 15.3446 83.808 14.9329 84.0144 14.462C84.2208 13.991 84.3228 13.4881 84.3228 12.9544C84.3228 12.4128 84.2196 11.9053 84.0144 11.4298C83.808 10.9554 83.5265 10.5414 83.1677 10.1891C82.8088 9.8367 82.3854 9.55845 81.8976 9.35433C81.4097 9.15021 80.8832 9.04872 80.3191 9.04872C79.762 9.04872 79.2401 9.15021 78.7511 9.35433C78.2633 9.55845 77.8375 9.8367 77.4752 10.1891C77.1128 10.5414 76.8266 10.9554 76.6167 11.4298C76.408 11.9053 76.3036 12.4128 76.3036 12.9544Z" fill="#323232"/>
<path d="M89.4962 9.49459C90.0145 8.92328 90.6361 8.47056 91.3608 8.13758C92.0856 7.80345 92.8666 7.63696 93.7063 7.63696H93.7298H93.7978C94.0417 7.63696 94.2282 7.70196 94.3584 7.83196C94.4885 7.96196 94.553 8.12731 94.553 8.32687C94.553 8.53442 94.4803 8.70319 94.3361 8.83319C94.1907 8.96319 94.0112 9.02819 93.7978 9.02819H93.7181H93.7063C93.134 9.02819 92.5922 9.13538 92.0821 9.35091C91.5708 9.56644 91.1251 9.86065 90.7428 10.2358C90.3617 10.611 90.0579 11.05 89.8328 11.5541C89.6076 12.0581 89.495 12.5998 89.495 13.1779V17.4052C89.495 17.6059 89.4258 17.7747 89.2886 17.9115C89.1514 18.0484 88.9837 18.1168 88.7855 18.1168C88.5873 18.1168 88.4149 18.0484 88.2707 17.9115C88.1252 17.7747 88.0537 17.6059 88.0537 17.4052V8.33828C88.0537 8.14556 88.1264 7.98021 88.2707 7.84337C88.4161 7.70652 88.5873 7.6381 88.7855 7.6381C88.9919 7.6381 89.1608 7.70652 89.2945 7.84337C89.4282 7.98021 89.495 8.14556 89.495 8.33828V9.49459H89.4962Z" fill="#323232"/>
<path d="M95.833 8.32687C95.833 8.12617 95.9022 7.96196 96.0394 7.83196C96.1766 7.70196 96.3525 7.63696 96.566 7.63696C96.7642 7.63696 96.9307 7.70196 97.0632 7.83196C97.1969 7.96196 97.2638 8.12731 97.2638 8.32687V12.9886V13.0445C97.2708 14.2316 97.544 15.1405 98.0823 15.7699C98.6194 16.4006 99.3653 16.7153 100.319 16.7153C100.791 16.7153 101.236 16.6229 101.652 16.4371C102.067 16.2523 102.43 15.9935 102.739 15.6639C103.048 15.3343 103.292 14.9466 103.471 14.5007C103.651 14.056 103.74 13.5736 103.74 13.0548V8.34854C103.74 8.15582 103.808 7.98933 103.946 7.84793C104.083 7.70766 104.251 7.63696 104.449 7.63696C104.647 7.63696 104.817 7.70766 104.958 7.84793C105.099 7.98933 105.169 8.15582 105.169 8.34854V17.4155C105.169 17.6162 105.099 17.7849 104.958 17.9218C104.817 18.0586 104.647 18.1271 104.449 18.1271C104.243 18.1271 104.073 18.0586 103.94 17.9218C103.806 17.7849 103.74 17.6162 103.74 17.4155V16.2249C103.289 16.7963 102.756 17.2535 102.138 17.5991C101.52 17.9435 100.861 18.1168 100.158 18.1168C99.4943 18.1168 98.8974 17.9959 98.3673 17.7553C97.8372 17.5147 97.3834 17.1714 97.0057 16.7267C96.6281 16.282 96.3385 15.7437 96.1368 15.1131C95.935 14.4825 95.833 13.7778 95.833 12.9989V12.9875V8.32687Z" fill="#323232"/>
<path d="M107.841 16.6764C108.02 16.502 108.24 16.4153 108.499 16.4153C108.758 16.4153 108.977 16.5031 109.157 16.6764C109.336 16.8509 109.425 17.0676 109.425 17.3276C109.425 17.5796 109.336 17.7928 109.157 17.9673C108.977 18.1418 108.758 18.2284 108.499 18.2284C108.24 18.2284 108.02 18.1406 107.841 17.9673C107.662 17.7928 107.573 17.5796 107.573 17.3276C107.573 17.0676 107.662 16.8498 107.841 16.6764Z" fill="#323232"/>
<path d="M112.87 12.8984L112.846 12.9429C112.846 12.9509 112.849 12.9543 112.852 12.9543C112.856 12.9543 112.858 12.9577 112.858 12.9657C112.858 12.9737 112.862 12.9771 112.87 12.9771C112.87 13.4811 112.967 13.9635 113.162 14.423C113.357 14.8826 113.625 15.2886 113.969 15.6409C114.312 15.9933 114.718 16.2773 115.187 16.4916C115.656 16.7072 116.165 16.8144 116.714 16.8144C117.217 16.8223 117.694 16.7516 118.145 16.6034C118.595 16.4552 119.015 16.21 119.403 15.869C119.479 15.8097 119.559 15.7538 119.644 15.7025C119.728 15.6512 119.817 15.6136 119.912 15.5908C120.007 15.568 120.108 15.568 120.216 15.5908C120.323 15.6136 120.433 15.6729 120.548 15.7687C120.7 15.9021 120.776 16.0709 120.776 16.275C120.776 16.4791 120.688 16.6661 120.514 16.8372C120.056 17.2819 119.503 17.6274 118.854 17.8715C118.206 18.1166 117.535 18.2387 116.841 18.2387C116.093 18.2387 115.389 18.103 114.73 17.8327C114.07 17.5624 113.494 17.1918 113.002 16.7197C112.51 16.2488 112.122 15.6945 111.835 15.0571C111.549 14.4196 111.406 13.7366 111.406 13.0102L111.43 12.9429C111.414 12.928 111.406 12.9132 111.406 12.8984C111.406 12.172 111.549 11.4878 111.835 10.8458C112.122 10.2049 112.511 9.64385 113.002 9.16604C113.495 8.6871 114.071 8.30964 114.73 8.03139C115.389 7.75315 116.093 7.61401 116.841 7.61401C117.535 7.61401 118.206 7.73604 118.854 7.98122C119.503 8.22639 120.055 8.57078 120.514 9.01552C120.69 9.18657 120.776 9.37359 120.776 9.57771C120.776 9.78183 120.697 9.95401 120.536 10.0954C120.421 10.1923 120.313 10.2516 120.21 10.2733C120.107 10.2961 120.008 10.2961 119.912 10.2733C119.817 10.2505 119.727 10.214 119.644 10.1616C119.559 10.1102 119.479 10.0544 119.403 9.99507C119.014 9.66094 118.595 9.41691 118.145 9.26068C117.694 9.10445 117.218 9.03034 116.714 9.03832C116.172 9.04631 115.669 9.15464 115.204 9.36674C114.738 9.57771 114.332 9.86165 113.985 10.2174C113.638 10.5732 113.365 10.9838 113.167 11.4467C112.968 11.9109 112.87 12.3944 112.87 12.8984Z" fill="#323232"/>
<path d="M122.188 10.8801C122.474 10.2313 122.865 9.66793 123.361 9.18898C123.857 8.71117 124.436 8.33258 125.1 8.05433C125.764 7.77609 126.469 7.63696 127.217 7.63696C127.972 7.63696 128.679 7.77609 129.339 8.05433C129.998 8.33258 130.575 8.71117 131.067 9.18898C131.559 9.66793 131.948 10.2313 132.234 10.8801C132.52 11.529 132.663 12.2212 132.663 12.9544C132.663 13.682 132.52 14.3673 132.234 15.0128C131.948 15.6582 131.558 16.2204 131.067 16.6982C130.574 17.1771 129.998 17.5546 129.339 17.8328C128.679 18.1111 127.972 18.2502 127.217 18.2502C126.469 18.2502 125.764 18.1111 125.1 17.8328C124.436 17.5546 123.857 17.176 123.361 16.6982C122.865 16.2204 122.474 15.6582 122.188 15.0128C121.902 14.3673 121.759 13.682 121.759 12.9544C121.759 12.22 121.902 11.529 122.188 10.8801ZM123.516 14.462C123.725 14.9329 124.009 15.3446 124.368 15.697C124.727 16.0493 125.15 16.3299 125.638 16.5374C126.126 16.7449 126.653 16.8487 127.217 16.8487C127.781 16.8487 128.307 16.7449 128.795 16.5374C129.283 16.3299 129.709 16.0493 130.071 15.697C130.434 15.3446 130.717 14.9329 130.924 14.462C131.13 13.991 131.232 13.4881 131.232 12.9544C131.232 12.4128 131.129 11.9053 130.924 11.4298C130.717 10.9554 130.434 10.5414 130.071 10.1891C129.709 9.8367 129.283 9.55845 128.795 9.35433C128.307 9.15021 127.781 9.04872 127.217 9.04872C126.66 9.04872 126.138 9.15021 125.649 9.35433C125.161 9.55845 124.735 9.8367 124.373 10.1891C124.01 10.5414 123.724 10.9554 123.514 11.4298C123.304 11.9042 123.2 12.4128 123.2 12.9544C123.201 13.4881 123.306 13.991 123.516 14.462Z" fill="#323232"/>
<path d="M135.753 8.91637C136.088 8.53093 136.481 8.21961 136.931 7.98128C137.382 7.74408 137.869 7.62549 138.396 7.62549C139.052 7.62549 139.641 7.77031 140.163 8.05882C140.685 8.34847 141.107 8.73733 141.428 9.22654C141.824 8.73733 142.318 8.34733 142.909 8.05882C143.5 7.76917 144.119 7.62549 144.767 7.62549C145.286 7.62549 145.767 7.72014 146.209 7.90944C146.651 8.09873 147.032 8.35417 147.353 8.67689C147.675 8.99961 147.929 9.37935 148.12 9.81724C148.31 10.2551 148.414 10.7181 148.429 11.2085C148.436 11.2313 148.441 11.2643 148.441 11.3088V17.4165C148.441 17.6172 148.371 17.7837 148.234 17.9171C148.097 18.0506 147.929 18.1178 147.731 18.1178C147.533 18.1178 147.36 18.0517 147.216 17.9171C147.071 17.7837 146.999 17.6172 146.999 17.4165V11.286C146.999 10.9667 146.936 10.6702 146.81 10.3965C146.685 10.1217 146.515 9.88452 146.301 9.68496C146.088 9.48426 145.838 9.32689 145.552 9.21172C145.266 9.09654 144.963 9.03952 144.642 9.03952C144.307 9.03952 143.986 9.10224 143.68 9.22882C143.375 9.3554 143.102 9.52417 142.862 9.73514C142.621 9.9461 142.431 10.1913 142.289 10.4695C142.149 10.7478 142.078 11.042 142.078 11.3544V17.4177C142.078 17.6184 142.012 17.7849 141.878 17.9183C141.744 18.0517 141.579 18.119 141.381 18.119C141.182 18.119 141.01 18.0528 140.866 17.9183C140.72 17.7849 140.649 17.6184 140.649 17.4177V11.31V11.2655V11.2427C140.634 10.9245 140.563 10.6303 140.438 10.3635C140.312 10.0966 140.145 9.86514 139.935 9.66786C139.725 9.47172 139.481 9.31777 139.203 9.20601C138.924 9.09426 138.625 9.03952 138.305 9.03952C137.969 9.03952 137.649 9.1011 137.343 9.22312C137.038 9.34514 136.767 9.51277 136.53 9.72373C136.293 9.9347 136.104 10.1799 135.964 10.4581C135.823 10.7364 135.753 11.0306 135.753 11.343V17.4063C135.753 17.607 135.682 17.7757 135.542 17.9126C135.401 18.0494 135.231 18.1178 135.033 18.1178C134.834 18.1178 134.664 18.0494 134.524 17.9126C134.383 17.7757 134.312 17.607 134.312 17.4063V8.33935C134.312 8.14663 134.385 7.98128 134.529 7.84444C134.675 7.70759 134.846 7.63917 135.044 7.63917C135.242 7.63917 135.41 7.70759 135.547 7.84444C135.685 7.98128 135.754 8.14663 135.754 8.33935V8.91637H135.753Z" fill="#323232"/>
<path d="M25.7963 12.4376C23.6376 8.92267 18.3723 8.94906 16.2593 12.5084L11.6703 20.2367L10.8485 21.6224C10.8331 21.641 10.8177 21.6632 10.8066 21.6855L9.8515 23.2944C9.8441 23.3058 9.83978 23.3202 9.83237 23.3316L9.68739 23.577C9.67567 23.5992 9.66456 23.6178 9.64913 23.6364C8.77428 24.9922 7.22261 25.8951 5.45378 25.8951C4.20073 25.8951 3.05811 25.4416 2.18326 24.6952C1.15539 23.7216 0.536581 22.373 0.502031 20.9577C0.475501 20.0213 0.708098 19.0554 1.24732 18.1453L5.8363 10.4171L10.4253 2.68886C12.5575 -0.896286 17.88 -0.896286 20.008 2.68886L24.5969 10.4171L25.7963 12.4376Z" fill="url(#paint0_linear_613_1487)"/>
<path d="M30.3989 21.362V21.3992C30.3989 21.4549 30.3989 21.5108 30.3953 21.5624C30.2886 23.9735 28.2439 25.8944 25.7415 25.8944C24.0831 25.8944 22.6277 25.0509 21.7985 23.7839L21.6165 23.5235L20.6115 22.0657C20.5004 21.8797 20.3473 21.7051 20.2179 21.5419C17.9215 18.51 12.8901 18.2813 10.8499 21.6218L11.6717 20.2359L16.2606 12.5077C18.3737 8.94839 23.6389 8.9226 25.7977 12.4369L29.6555 18.6599C30.1293 19.4584 30.3663 20.3019 30.3928 21.1269C30.3953 21.206 30.3989 21.284 30.3989 21.362Z" fill="url(#paint1_linear_613_1487)"/>
</g>
<defs>
<linearGradient id="paint0_linear_613_1487" x1="17.3686" y1="17.4441" x2="6.89839" y2="10.2657" gradientUnits="userSpaceOnUse">
<stop stop-color="#42184D"/>
<stop offset="0.6574" stop-color="#914C98"/>
<stop offset="1" stop-color="#BF6DA9"/>
</linearGradient>
<linearGradient id="paint1_linear_613_1487" x1="14.594" y1="12.3633" x2="25.4662" y2="26.6426" gradientUnits="userSpaceOnUse">
<stop stop-color="#8A7B11"/>
<stop offset="1" stop-color="#FFED00"/>
</linearGradient>
<clipPath id="clip0_613_1487">
<rect width="148" height="26" fill="white" transform="translate(0.5)"/>
</clipPath>
</defs>
</svg>
