<svg width="66" height="66" viewBox="0 0 66 66" fill="none" xmlns="http://www.w3.org/2000/svg">
<path d="M2.06135 0.184036C1.8966 0.284718 1.68608 0.495232 1.5854 0.659985C1.40234 0.962029 1.40234 1.16339 1.40234 20.5034C1.40234 39.8434 1.40234 40.0448 1.5854 40.3469C1.68608 40.5116 1.8966 40.7221 2.06135 40.8228C2.3634 41.0059 2.55561 41.0059 16.0561 41.0059H29.7488L30.0508 40.7953C30.2248 40.6855 30.4444 40.4475 30.5451 40.2736C30.7282 39.9624 30.7373 39.7977 30.7648 35.9443C30.7831 33.7476 30.7648 31.9445 30.7373 31.9445C30.7007 31.9445 30.3987 32.1825 30.0692 32.4845C28.6138 33.7568 26.9846 34.5714 25.1998 34.91C24.2937 35.0839 23.0947 35.1114 22.5729 34.9741C21.7492 34.7544 20.8522 33.8666 20.6234 33.0612C20.4861 32.5578 20.5135 31.2489 20.6783 30.3885C20.8339 29.5373 21.1634 28.5854 21.557 27.78C22.216 26.4619 22.6279 26.0043 26.7284 21.8672L30.7922 17.7942L30.7648 9.41929C30.7373 1.17255 30.7373 1.05356 30.5451 0.733208C30.4444 0.559303 30.2248 0.321327 30.0508 0.211494L29.7488 0.000976562H16.0561C2.55561 0.000976562 2.3634 0.000976562 2.06135 0.184036ZM19.6623 6.1151C21.8407 7.21344 22.9116 7.80838 23.0306 7.97313C23.2869 8.33009 23.3326 8.69621 23.2594 9.77625C23.0764 12.6228 21.978 15.1032 19.8362 17.4647C19.2688 18.0962 17.1636 19.9726 16.7334 20.238C16.3764 20.4577 15.7174 20.4577 15.3605 20.238C14.8937 19.9542 12.7885 18.0596 12.1844 17.3914C9.98774 14.9293 8.81617 12.1011 8.81617 9.24538C8.81617 7.8816 8.64227 8.02805 12.4316 6.1151C15.1683 4.73301 15.6991 4.49504 16.0469 4.49504C16.3948 4.49504 16.9256 4.73301 19.6623 6.1151ZM9.91452 23.7435C10.482 24.0364 10.9671 24.4941 11.2417 24.9975C11.4888 25.446 11.5163 25.565 11.5163 26.3613C11.5163 27.3589 11.3607 27.7525 10.7383 28.3749C10.1159 28.9973 9.72231 29.1529 8.72464 29.1529C7.99241 29.1529 7.79105 29.1163 7.46155 28.9424C6.95814 28.6678 6.40897 28.1186 6.15269 27.6244C5.90556 27.1484 5.82318 26.1233 5.96963 25.565C6.1893 24.7687 7.05882 23.8625 7.84597 23.6154C8.29446 23.4781 9.53925 23.5605 9.91452 23.7435ZM19.6166 25.1348C20.0834 25.4094 20.3488 25.8487 20.3488 26.3613C20.3488 26.8738 20.0834 27.3132 19.6166 27.5877C19.3145 27.7708 19.1498 27.78 16.7792 27.78C14.4086 27.78 14.2438 27.7708 13.9418 27.5877C12.7885 26.9196 13.0356 25.3087 14.3354 24.9792C14.491 24.9426 15.6808 24.9151 16.9622 24.9243C19.1315 24.9426 19.3145 24.9517 19.6166 25.1348ZM9.91452 31.0658C10.482 31.3587 10.9671 31.8164 11.2417 32.3198C11.4888 32.7683 11.5163 32.8873 11.5163 33.6836C11.5163 34.6812 11.3607 35.0748 10.7383 35.6972C10.1159 36.3196 9.72231 36.4752 8.72464 36.4752C7.99241 36.4752 7.79105 36.4386 7.46155 36.2647C6.95814 35.9901 6.40897 35.4409 6.15269 34.9467C5.90556 34.4707 5.82318 33.4456 5.96963 32.8873C6.1893 32.091 7.05882 31.1848 7.84597 30.9377C8.29446 30.8004 9.53925 30.8828 9.91452 31.0658ZM18.1521 32.4571C19.1315 33.0337 19.1315 34.3334 18.1521 34.91C17.8592 35.0839 17.6853 35.1023 16.0469 35.1023C14.4086 35.1023 14.2347 35.0839 13.9418 34.91C12.7885 34.2419 13.0356 32.631 14.3354 32.3015C14.491 32.2649 15.3513 32.2374 16.23 32.2466C17.6579 32.2649 17.8684 32.2832 18.1521 32.4571Z" fill="#5F4FD6"/>
<path d="M18.1417 7.52495C17.8855 7.69886 17.6292 8.12904 16.7322 9.91386L15.6338 12.0831L14.8558 11.2959C13.9314 10.3715 13.7392 10.2525 13.0985 10.2525C12.2107 10.2525 11.6523 10.8108 11.6523 11.6987C11.6523 11.9641 11.6981 12.2753 11.753 12.3851C11.8995 12.6689 15.0389 15.8266 15.3318 15.9822C15.4691 16.0554 15.7986 16.1104 16.0732 16.1104C16.9793 16.1104 16.9885 16.1012 18.8099 12.495C20.311 9.52028 20.43 9.25485 20.43 8.78805C20.4391 7.86361 19.8991 7.32359 18.9655 7.32359C18.5902 7.32359 18.3706 7.37851 18.1417 7.52495Z" fill="#5F4FD6"/>
<path d="M37.7316 13.3551C37.4478 13.4466 37.036 13.6479 36.8163 13.8035C36.1664 14.252 23.7185 26.8006 23.3524 27.3681C22.3822 28.8783 21.9062 30.3794 21.9062 31.9262C21.9062 33.2717 22.3181 33.6836 23.6636 33.6836C25.3752 33.6836 27.2241 33.0246 28.6611 31.9079C28.9448 31.6883 32.0476 28.6221 35.5532 25.1073C42.6741 17.959 42.3172 18.3891 42.3904 16.9887C42.4453 16.0368 42.2989 15.4236 41.8595 14.7463C41.0175 13.4466 39.2784 12.8608 37.7316 13.3551Z" fill="#5F4FD6"/>
<path d="M20.5291 16.0807C20.5068 14.5412 22.1594 13.5549 23.5037 14.3054L53.5225 31.0624C54.8668 31.8128 54.8946 33.7371 53.5726 34.5261L24.0512 52.1446C22.7292 52.9336 21.0488 51.9956 21.0265 50.4561L20.5291 16.0807Z" fill="#71DED0" fill-opacity="0.7"/>
</svg>
