<svg width="52" height="50" viewBox="0 0 52 50" fill="none" xmlns="http://www.w3.org/2000/svg">
<path d="M16.4682 0.218138C15.8715 0.606468 15.7578 0.947441 15.7578 2.22609C15.7578 3.50474 15.8715 3.84571 16.4682 4.23404C16.7618 4.44241 16.866 4.45188 18.5614 4.45188H20.3515V5.32326V6.2041H22.6246H24.8978V5.32326V4.45188H26.6879C28.3833 4.45188 28.4875 4.44241 28.7905 4.23404C29.3399 3.87412 29.5388 3.33425 29.5388 2.22609C29.5388 1.11793 29.3399 0.578053 28.7905 0.218138L28.4685 0.000294685H22.6246H16.7807L16.4682 0.218138Z" fill="#5F4FD6"/>
<path d="M4.72704 2.42532C3.68518 2.69999 2.66226 3.28722 1.8856 4.06388C0.635365 5.34253 0.0860202 6.55487 0.0102485 8.25027C-0.0181659 8.98904 0.0102485 9.45314 0.123906 9.9646C0.445936 11.3948 1.4215 12.9671 2.23604 13.3649C3.18319 13.8195 4.77439 13.308 6.53609 11.982L6.9623 11.66L7.60636 12.3041L8.25989 12.9576L8.84712 12.2851C9.17862 11.9062 9.72797 11.3474 10.0784 11.0443L10.713 10.4855L10.0689 9.84147L9.43435 9.20688L9.86057 8.60071C10.8172 7.26523 11.2623 6.20443 11.2623 5.2857C11.2623 4.98261 11.196 4.60375 11.1203 4.46168C10.7604 3.76079 9.14074 2.7284 7.89998 2.41584C7.18962 2.23589 5.42792 2.23589 4.72704 2.42532Z" fill="#5F4FD6"/>
<path d="M37.3111 2.42543C36.042 2.75693 34.4129 3.8272 34.1287 4.51862C33.7309 5.46577 34.2708 7.1138 35.5305 8.79025L35.8336 9.19752L35.1895 9.84158L34.5455 10.4856L35.1706 11.0445C35.521 11.357 36.0704 11.9064 36.4019 12.2852L36.9986 12.9577L37.6426 12.3136L38.2772 11.6696L39.1865 12.2852C40.4651 13.1566 41.4218 13.5449 42.2931 13.5449C43.3824 13.5449 44.5852 12.0958 45.0777 10.1731C45.3051 9.28276 45.324 7.9757 45.1251 7.10433C44.7178 5.37105 43.4202 3.72302 41.8574 2.95583C41.4123 2.73798 40.7966 2.49173 40.4841 2.41595C39.7737 2.236 38.012 2.236 37.3111 2.42543Z" fill="#5F4FD6"/>
<path d="M21.1587 7.58704C18.0615 7.82383 14.7655 9.08354 12.2555 10.9778C7.42509 14.6149 4.82991 20.6008 5.49291 26.5963C5.91913 30.508 7.51981 33.9082 10.2571 36.7402C13.591 40.1689 17.8248 41.959 22.6268 41.959C26.4817 41.959 30.0714 40.7656 33.0738 38.483C33.8505 37.8957 35.2996 36.4845 35.9815 35.6605C40.2532 30.4606 41.0677 23.196 38.0653 17.0964C35.3848 11.6503 30.0524 8.05115 23.9244 7.57757C22.6457 7.47339 22.5131 7.47339 21.1587 7.58704ZM24.9947 10.76C28.0634 11.262 31.2648 13.0521 33.3106 15.4389C35.006 17.409 36.1331 19.7484 36.6067 22.3057C36.8719 23.698 36.8434 26.1227 36.5593 27.4676C36.2562 28.8978 35.8584 30.006 35.2144 31.2562C33.2632 35.0448 29.7588 37.7158 25.4872 38.6724C24.7105 38.8429 24.2748 38.8713 22.6268 38.8713C20.9882 38.8713 20.5431 38.8429 19.7853 38.6724C14.0078 37.3748 9.76454 33.0085 8.63744 27.2309C8.41012 26.0185 8.41012 23.5749 8.64691 22.3057C9.60353 17.1722 13.1459 13.0331 18.0331 11.3377C20.2968 10.5516 22.551 10.3622 24.9947 10.76Z" fill="#5F4FD6"/>
<path d="M20.6403 12.0771C15.1942 12.939 10.8942 17.2012 9.98492 22.6283C9.75761 23.9449 9.83338 26.4927 10.1175 27.6198C10.4017 28.7469 10.6669 29.4952 11.1499 30.4518C12.9779 34.1172 16.2361 36.5703 20.3088 37.3754C21.4738 37.6027 23.7848 37.6027 24.9498 37.3754C29.6761 36.4472 33.3984 33.1701 34.838 28.6711C35.3305 27.1368 35.4442 26.237 35.3874 24.3427C35.3495 22.8935 35.3116 22.5431 35.0559 21.596C34.0803 17.8453 31.7125 14.9375 28.2648 13.2516C26.9957 12.636 25.8591 12.276 24.5236 12.0771C23.4249 11.9067 21.7201 11.9067 20.6403 12.0771ZM23.1029 13.3558C23.3492 13.602 23.3397 13.9998 23.084 14.2745C22.8282 14.5492 22.4683 14.5492 22.1842 14.284C21.7485 13.8767 22.0326 13.1664 22.6293 13.1664C22.7903 13.1664 22.9987 13.2516 23.1029 13.3558ZM17.5526 14.786C17.7326 14.928 17.7989 15.0701 17.7989 15.288C17.7989 15.9036 17.0885 16.1593 16.6623 15.7047C16.4066 15.43 16.4255 15.0985 16.7097 14.8239C16.9938 14.5397 17.2211 14.5302 17.5526 14.786ZM28.549 14.8239C29.051 15.3164 28.6532 16.0173 27.9333 15.9131C27.4314 15.8468 27.2893 15.1175 27.706 14.786C28.0375 14.5302 28.2648 14.5397 28.549 14.8239ZM23.0366 16.7655C23.2355 16.9265 23.2923 17.0497 23.3113 17.4853L23.3397 18.0063L23.8133 18.1673C25.1961 18.6409 26.2001 19.91 26.3042 21.3213C26.3421 21.8706 26.3232 21.9748 26.1432 22.1548C25.8875 22.4105 25.4613 22.4105 25.234 22.1642C25.1393 22.0601 25.0256 21.7286 24.9782 21.4349C24.6278 19.1713 21.7864 18.5651 20.593 20.4973C20.3372 20.914 20.3088 21.0466 20.3088 21.6812C20.3088 22.4579 20.4509 22.8367 20.915 23.3292C21.3128 23.7649 21.8432 23.9828 22.6861 24.068C23.8038 24.1817 24.4289 24.4469 25.1298 25.1099C26.6926 26.5685 26.7589 28.889 25.2813 30.4044C24.8362 30.8685 23.8133 31.4463 23.4628 31.4463C23.3207 31.4463 23.2923 31.5315 23.2923 31.9577C23.2923 32.6018 23.084 32.8954 22.6293 32.8954C22.1747 32.8954 21.9663 32.6018 21.9663 31.9577C21.9663 31.5315 21.9379 31.4463 21.8053 31.4463C21.7106 31.4463 21.3696 31.3231 21.0381 31.1621C19.8637 30.6128 19.0491 29.4383 18.9544 28.207C18.926 27.7524 18.9449 27.5251 19.0396 27.4114C19.4753 26.881 20.252 27.1936 20.2615 27.904C20.2615 28.3018 20.4982 28.9553 20.7729 29.3152C20.896 29.4762 21.2275 29.7319 21.5022 29.8835C23.065 30.7359 24.9972 29.5993 24.9972 27.8187C24.9972 27.1652 24.7983 26.6916 24.2868 26.1707C23.7659 25.6403 23.5481 25.555 22.3168 25.4035C20.9339 25.233 19.8068 24.4374 19.2385 23.225C19.0112 22.7515 18.9828 22.5715 18.9828 21.6907C18.9828 20.8572 19.0207 20.6204 19.2007 20.2321C19.6363 19.2754 20.4888 18.4988 21.4454 18.1673L21.919 18.0063L21.9474 17.4853C21.9663 17.0497 22.0231 16.9265 22.222 16.7655C22.3546 16.6613 22.5346 16.5761 22.6293 16.5761C22.724 16.5761 22.904 16.6613 23.0366 16.7655ZM13.6598 18.8682C13.8872 19.1334 13.8587 19.4838 13.5841 19.749C13.2999 20.0332 13.0726 20.0426 12.7411 19.7869C12.3244 19.4554 12.4475 18.8208 12.9684 18.6314C13.1863 18.5556 13.4704 18.6503 13.6598 18.8682ZM32.6028 18.8303C33.0479 19.2281 32.5081 20.1279 31.9398 19.929C31.5799 19.8059 31.3715 19.4081 31.4851 19.0671C31.6556 18.584 32.1955 18.4704 32.6028 18.8303ZM11.9645 24.1627C12.4854 24.3995 12.4854 25.0152 11.9645 25.3467C11.6803 25.5361 11.3583 25.4319 11.112 25.053C10.9794 24.8541 10.97 24.7689 11.0741 24.5226C11.1783 24.2764 11.4151 24.087 11.6614 24.068C11.6993 24.0585 11.8319 24.1059 11.9645 24.1627ZM33.9667 24.2006C34.3739 24.4848 34.3266 25.0341 33.8625 25.3372C33.5878 25.5171 33.2184 25.4035 32.9911 25.053C32.6217 24.4942 33.3984 23.8028 33.9667 24.2006ZM13.603 29.7604C14.0387 30.1676 13.7546 30.878 13.1579 30.878C12.5706 30.878 12.2865 30.2055 12.7032 29.7698C12.959 29.4952 13.3189 29.4952 13.603 29.7604ZM32.5459 29.7604C32.9816 30.1676 32.6975 30.878 32.1008 30.878C31.4851 30.878 31.2105 30.1297 31.684 29.7509C32.0061 29.4952 32.2713 29.4952 32.5459 29.7604ZM17.5526 33.7289C17.8936 34.0036 17.8936 34.4866 17.5431 34.7613C16.8801 35.2822 16.113 34.3635 16.7097 33.7668C16.9938 33.4826 17.2211 33.4732 17.5526 33.7289ZM28.549 33.7668C29.1457 34.3635 28.3785 35.2822 27.7155 34.7613C27.365 34.4866 27.365 34.0036 27.706 33.7289C28.0375 33.4732 28.2648 33.4826 28.549 33.7668ZM23.0745 35.2538C23.3492 35.5095 23.3492 35.8694 23.084 36.1536C22.8282 36.4283 22.4683 36.4283 22.1842 36.1631C21.9095 35.9073 21.9095 35.5474 22.1747 35.2633C22.4304 34.9886 22.7903 34.9886 23.0745 35.2538Z" fill="#5F4FD6"/>
<path d="M8.80914 40.1785C8.14614 41.3245 7.75781 42.1012 7.75781 42.2717C7.75781 42.4232 7.85253 42.6316 7.9946 42.7642C8.21244 42.9915 8.27874 43.001 9.40585 43.001H10.5803L11.6127 41.9023C12.1715 41.2961 12.664 40.7468 12.7114 40.6805C12.7587 40.5952 12.5598 40.3963 12.0484 40.0364C11.6411 39.7523 10.9971 39.2503 10.6277 38.9377C10.2488 38.6157 9.91731 38.36 9.89836 38.36C9.86995 38.36 9.3869 39.184 8.80914 40.1785Z" fill="#5F4FD6"/>
<path d="M34.8935 38.7104C34.3726 39.184 32.6772 40.4437 32.5635 40.4437C32.3551 40.4437 32.5446 40.6899 33.577 41.817L34.6662 43.001H35.8501C36.9772 43.001 37.0435 42.9915 37.2614 42.7642C37.4034 42.6316 37.4981 42.4232 37.4981 42.2717C37.4981 42.0065 35.5376 38.4452 35.3576 38.3978C35.3102 38.3789 35.1019 38.521 34.8935 38.7104Z" fill="#5F4FD6"/>
<path d="M26.0389 26.3572C26.3146 25.5463 27.076 25.001 27.9324 25.001H43.3344C44.2269 25.001 45.0114 25.5924 45.2571 26.4505L51.2697 47.4505C51.6356 48.7283 50.6762 50.001 49.347 50.001H20.7924C19.4223 50.001 18.4578 48.6544 18.8989 47.3572L26.0389 26.3572Z" fill="#71DED0" fill-opacity="0.7"/>
</svg>
