<svg width="54" height="62" viewBox="0 0 54 62" fill="none" xmlns="http://www.w3.org/2000/svg">
<path d="M1.8209 0.353165C1.33078 0.546745 0.7619 0.980003 0.499338 1.3856C-0.0345376 2.20602 0.0004706 0.509872 0.0004706 23.8227C0.0004706 45.0891 0.000470599 45.0983 0.184264 45.6053C0.403065 46.223 0.936941 46.8314 1.53208 47.1356L1.96968 47.366L16.6906 47.3937L31.4116 47.4121L31.9017 47.2185C32.5494 46.9604 33.1795 46.3059 33.4246 45.6146C33.6084 45.0983 33.6084 45.0799 33.6084 30.0358V14.9732L27.7707 14.9364C23.4385 14.9179 21.8369 14.8811 21.6005 14.7981C20.8216 14.5215 20.0252 13.6827 19.7626 12.8623C19.6838 12.6134 19.6488 10.9264 19.6313 6.36343L19.5963 0.21489L10.8705 0.22411C3.70259 0.22411 2.08346 0.251762 1.8209 0.353165ZM28.0071 31.1881V41.5125H25.2064H22.4057V31.1881V20.8637H25.2064H28.0071V31.1881ZM19.6051 34.1379V41.5125H16.8044H14.0038V34.1379V26.7633H16.8044H19.6051V34.1379ZM11.2031 37.0877V41.5125H8.40245H5.60179V37.0877V32.663H8.40245H11.2031V37.0877Z" fill="#ECF7F5"/>
<path d="M22.4062 6.11597V12.0156H28.0251H33.6526L28.0513 6.11597C24.9706 2.87116 22.4413 0.21632 22.4325 0.21632C22.415 0.21632 22.4062 2.87116 22.4062 6.11597Z" fill="#ECF7F5"/>
<path d="M54.0017 39.7812C54.0017 51.6175 44.7165 61.2128 33.2626 61.2128C21.8087 61.2128 12.5234 51.6175 12.5234 39.7812C12.5234 27.9449 21.8087 18.3496 33.2626 18.3496C44.7165 18.3496 54.0017 27.9449 54.0017 39.7812ZM23.0167 39.7812C23.0167 45.6288 27.6039 50.3691 33.2626 50.3691C38.9212 50.3691 43.5084 45.6288 43.5084 39.7812C43.5084 33.9336 38.9212 29.1933 33.2626 29.1933C27.6039 29.1933 23.0167 33.9336 23.0167 39.7812Z" fill="#71DED0" fill-opacity="0.7"/>
</svg>
