<svg width="50" height="51" viewBox="0 0 50 51" fill="none" xmlns="http://www.w3.org/2000/svg">
<path d="M9.8848 0.0484638C7.36652 0.50399 5.33813 2.37766 4.70212 4.85298C4.35832 6.17658 4.52163 7.95571 5.09748 9.22775C6.57579 12.4594 10.6411 13.8861 13.8126 12.2789L14.4487 11.9523L14.6377 11.2132C14.9987 9.78641 15.7379 8.50578 16.8208 7.44862L17.474 6.804L17.4483 6.13361C17.3795 4.35448 16.5114 2.60113 15.1277 1.46661C14.4916 0.933731 13.4259 0.383662 12.6609 0.177386C12.0249 0.0140839 10.5036 -0.0546741 9.8848 0.0484638Z" fill="#5F4FD6"/>
<path d="M31.8882 0.049324C30.3841 0.324359 28.8542 1.21822 27.9603 2.35274C27.1524 3.37552 26.5852 4.79367 26.5336 5.92819L26.5078 6.4095L27.0235 6.77908C28.4588 7.82765 29.6363 9.61537 30.0231 11.3172C30.2723 12.4431 30.2036 12.3571 31.0115 12.6322C32.3867 13.0963 34.1486 13.0275 35.5066 12.4517C37.2084 11.7297 38.5921 10.2342 39.1336 8.53242C39.9673 5.9196 39.1766 3.15206 37.131 1.46747C36.495 0.934592 35.4292 0.384522 34.6643 0.178246C34.0283 0.014945 32.507 -0.0538139 31.8882 0.049324Z" fill="#5F4FD6"/>
<path d="M20.7016 6.84853C17.4527 7.68223 15.347 10.9139 15.9229 14.1971C16.43 17.1108 18.6388 19.2079 21.5783 19.5689C24.6208 19.9385 27.5345 18.0648 28.4885 15.1339C28.7635 14.2917 28.8581 12.8563 28.7034 11.9453C28.265 9.43557 26.2195 7.32125 23.7184 6.78837C22.8933 6.61647 21.4837 6.64225 20.7016 6.84853Z" fill="#5F4FD6"/>
<path d="M7.35197 13.3798C4.36097 13.6978 1.70516 15.6832 0.579239 18.4507C0.0291698 19.8001 0.0463595 19.654 0.0119801 24.2608C-0.00520953 26.59 -0.00520953 28.4981 0.020575 28.4981C0.0377646 28.4981 0.673782 28.67 1.42153 28.8849C3.84528 29.5725 6.7933 30.1311 8.66698 30.26C9.11391 30.2944 9.55225 30.3374 9.63819 30.3632C9.76712 30.3976 9.78431 30.3116 9.78431 29.3404C9.7929 27.8879 9.91323 26.7276 10.1711 25.7649C10.9704 22.7739 13.248 20.2728 16.1875 19.1727C16.5227 19.0438 16.8063 18.932 16.8235 18.9149C16.8407 18.8977 16.6172 18.6226 16.3336 18.3046C15.3624 17.2217 14.5888 15.5113 14.4513 14.1018C14.3911 13.4743 14.3654 13.4142 14.1677 13.3626C13.8669 13.2766 8.16848 13.2938 7.35197 13.3798Z" fill="#5F4FD6"/>
<path d="M30.2389 13.6034C30.2389 14.1534 29.9295 15.4426 29.6373 16.1388C29.3107 16.9296 28.8294 17.6945 28.2449 18.3821C28.0043 18.6571 27.8238 18.8978 27.841 18.9064C27.8582 18.9236 28.1934 19.0611 28.5801 19.2158C31.1414 20.2214 33.1956 22.3185 34.1668 24.897C34.6395 26.1518 34.7168 26.6589 34.7684 28.6099L34.8114 30.4062L35.731 30.3461C38.49 30.1742 41.2403 29.5726 43.2859 28.6959L43.9993 28.3865L43.9649 24.2094C43.9305 19.6627 43.9477 19.8002 43.3976 18.4508C42.4608 16.1388 40.3722 14.2909 37.9657 13.6291C36.9773 13.3627 35.9115 13.2853 32.9721 13.2853H30.2389V13.6034Z" fill="#5F4FD6"/>
<path d="M17.8727 20.1696C15.3888 20.6939 13.2573 22.3355 12.1486 24.5874C11.3578 26.2032 11.2461 27.0369 11.2461 31.6523V35.1074L12.0884 35.3653C14.5207 36.113 16.678 36.56 19.4112 36.8952C20.8981 37.0671 24.7314 37.0928 26.0722 36.9295C28.8483 36.6029 31.0916 36.0529 32.759 35.2965L33.3434 35.0301L33.309 30.9304C33.2746 26.5212 33.2832 26.5986 32.7933 25.2664C32.037 23.2122 30.0172 21.2354 27.9287 20.4962C26.5965 20.0235 26.1667 19.9891 22.2561 19.9977C19.033 19.9977 18.6033 20.0149 17.8727 20.1696Z" fill="#5F4FD6"/>
<rect x="14" y="14.999" width="36" height="36" rx="5" fill="#71DED0" fill-opacity="0.7"/>
</svg>
