<svg width="57" height="57" viewBox="0 0 57 57" fill="none" xmlns="http://www.w3.org/2000/svg">
<path d="M44.2784 1.38302C40.1687 2.57582 39.496 2.79191 39.3402 2.98207C39.1269 3.23273 39.0941 3.58711 39.2663 3.84642C39.332 3.9415 40.0866 4.57248 40.948 5.26396L42.5066 6.50863L42.3343 6.81115C39.7011 11.4009 36.1327 15.5411 32.3183 18.4194C28.9058 20.9952 25.2062 22.7239 21.3261 23.5364C20.5714 23.7006 19.8987 23.8735 19.8331 23.934C19.6608 24.0809 19.6034 24.5217 19.7101 24.7983C19.8577 25.1786 20.153 25.2564 21.121 25.1873C27.9788 24.7205 34.6644 21.7039 40.7921 16.319C42.1702 15.1176 44.5574 12.585 45.7468 11.081L46.7066 9.85367L47.8796 10.7958C48.5277 11.3144 49.1429 11.7639 49.2577 11.7898C49.5367 11.8676 49.9632 11.6256 50.0288 11.3663C50.0535 11.2626 50.0617 8.7473 50.0453 5.79121L50.0206 0.406298L49.791 0.198853C49.6433 0.0692005 49.4628 -0.0085907 49.2988 5.14984e-05C49.1511 0.0086956 46.8952 0.631029 44.2784 1.38302Z" fill="#5F4FD6"/>
<path d="M45.2188 15.8091C45.0547 15.982 45.0547 16.0944 45.0547 28.2558V40.5296H44.1934H43.3321V30.9526V21.3669L43.1434 21.1854C42.9547 20.9953 42.9301 20.9953 39.6078 20.9953H36.2692L36.0723 21.2114L35.8672 21.4188V30.9785V40.5296H35.0469H34.2266V33.658V26.7778L34.0215 26.5703L33.8246 26.3542H30.5106C27.2785 26.3542 27.1883 26.3629 26.975 26.5358L26.7617 26.7086V33.6234V40.5296H25.9004H25.0391V36.3029V32.0676L24.8258 31.8947C24.6125 31.7219 24.5223 31.7132 21.3805 31.7132C19.1902 31.7132 18.091 31.7478 17.9598 31.8083C17.8449 31.8602 17.7137 31.9985 17.6645 32.1195C17.5988 32.2578 17.5742 33.6062 17.5742 36.424V40.5296H16.0238C14.5883 40.5296 14.4652 40.5383 14.2602 40.7111C14.0879 40.8494 14.0469 40.9618 14.0469 41.2643C14.0469 41.5668 14.0879 41.6792 14.2602 41.8175L14.4816 41.999H35.0469H55.6121L55.8336 41.8175C56.0059 41.6792 56.0469 41.5668 56.0469 41.2643C56.0469 40.9618 56.0059 40.8494 55.8336 40.7111C55.6286 40.5383 55.5055 40.5296 54.07 40.5296H52.5196V28.299V16.0598L52.3145 15.8524L52.1176 15.6363H48.7461C45.4895 15.6363 45.3746 15.6449 45.2188 15.8091Z" fill="#5F4FD6"/>
<rect x="9.32031" y="11.9561" width="36" height="36" rx="5" transform="rotate(15 9.32031 11.9561)" fill="#71DED0" fill-opacity="0.7"/>
</svg>
