<svg width="64" height="71" viewBox="0 0 64 71" fill="none" xmlns="http://www.w3.org/2000/svg">
<g clip-path="url(#clip0_131_550)">
<path d="M18.4938 0.372575C18.0383 0.656169 17.875 1.12023 17.875 2.17726C17.875 3.23429 18.0383 3.69836 18.4938 3.98195C18.9062 4.23976 19.7484 4.1882 20.075 3.89601C20.4789 3.50929 20.5391 3.29445 20.5391 2.17726C20.5391 0.982731 20.4359 0.656169 19.9805 0.372575C19.6023 0.140544 18.8805 0.140544 18.4938 0.372575Z" fill="#ECF7F5"/>
<path d="M4.89911 3.01077C4.29754 3.23421 3.95379 4.12796 4.21161 4.80686C4.30614 5.04749 5.54364 6.36233 5.95614 6.66312C6.75536 7.2303 7.82957 6.87796 8.07879 5.97562C8.24207 5.35687 8.07879 4.99593 7.27957 4.16233C6.26551 3.12249 5.99911 2.95061 5.46629 2.95921C5.22567 2.95921 4.96786 2.98499 4.89911 3.01077Z" fill="#ECF7F5"/>
<path d="M32.3571 3.11412C32.2196 3.20005 31.7298 3.65552 31.2657 4.11959C30.6212 4.7899 30.4235 5.03912 30.3806 5.29693C30.1829 6.33677 31.0251 7.15318 32.0134 6.89537C32.2712 6.82662 32.572 6.58599 33.2509 5.92427C34.3938 4.80709 34.5829 4.36021 34.222 3.63834C33.904 2.9938 32.9673 2.73599 32.3571 3.11412Z" fill="#ECF7F5"/>
<path d="M18.0045 7.12773C15.5639 7.49726 13.9741 8.07304 12.2811 9.18164C9.23892 11.1754 7.31392 14.4754 6.95298 18.3254C6.66939 21.3418 7.58892 24.6074 9.41079 27.0223C9.71158 27.4176 10.4163 28.2426 10.992 28.8527C12.1178 30.0645 12.8397 31.0184 13.235 31.8004C13.5014 32.3332 13.7506 33.2355 13.7506 33.691V33.9746H16.5436H19.3366V32.6168C19.3366 31.8777 19.371 31.0441 19.4225 30.7605C19.5514 29.9871 19.9467 29.2223 20.5139 28.6723L21.0124 28.1824L20.978 27.6066C20.9522 26.9449 21.1241 26.2316 21.4592 25.6387C21.7342 25.1574 24.7334 22.1152 25.292 21.7543C25.9022 21.359 26.6585 21.1527 27.3803 21.1871L27.9905 21.2043L28.4717 20.7145C29.1163 20.0527 29.8553 19.709 30.878 19.5887L31.6428 19.5027L31.5913 18.6777C31.1788 13.0574 27.3459 8.58867 21.8374 7.32539C21.1155 7.15351 18.6491 7.0332 18.0045 7.12773Z" fill="#ECF7F5"/>
<path d="M0.6875 14.1059C0.232031 14.3293 0 14.7418 0 15.3348C0 15.7473 0.034375 15.8762 0.232031 16.1082C0.584375 16.5207 0.902344 16.6152 1.99375 16.6152C2.75 16.6152 3.03359 16.5809 3.26562 16.4605C4.19375 15.9965 4.19375 14.5699 3.26562 14.1059C3.03359 13.9855 2.75 13.9512 1.97656 13.9512C1.20312 13.9512 0.919531 13.9855 0.6875 14.1059Z" fill="#ECF7F5"/>
<path d="M35.2773 14.0714C34.7961 14.2862 34.4609 14.8018 34.4609 15.3175C34.4609 15.687 34.8133 16.28 35.1484 16.4518C35.5695 16.6839 37.3656 16.6839 37.8039 16.4604C38.2336 16.2456 38.4398 15.919 38.4742 15.3948C38.5258 14.7932 38.3109 14.4065 37.8125 14.1401C37.4859 13.9768 37.3055 13.9511 36.4805 13.9511C35.8875 13.9597 35.4406 14.0026 35.2773 14.0714Z" fill="#ECF7F5"/>
<path d="M30.7312 22.1152C30.2156 22.2785 29.9578 22.6738 29.8719 23.4473C29.7516 24.4957 29.743 24.5129 29.3906 24.616C29.0641 24.7191 29.0469 24.7105 28.5141 24.2895C28.2133 24.0488 27.8867 23.8168 27.7836 23.7566C27.5258 23.6277 27.0188 23.6363 26.7438 23.7824C26.4688 23.9285 23.693 26.7215 23.5555 26.9879C23.4352 27.2285 23.4352 27.7441 23.5555 27.9848C23.6156 28.0879 23.8477 28.4145 24.0883 28.7152C24.5094 29.248 24.518 29.2652 24.4148 29.5918C24.3117 29.9527 24.2859 29.9613 23.2289 30.073C22.6359 30.1332 22.2578 30.3223 22.0258 30.6832C21.8883 30.8895 21.8711 31.1387 21.8711 33.1582C21.8711 35.5988 21.8883 35.6762 22.3867 36.0027C22.5414 36.1059 23.6156 36.3121 24.2945 36.3809C24.3031 36.3809 24.3547 36.527 24.4148 36.716C24.5094 37.0426 24.5008 37.0598 24.0883 37.5926C23.8477 37.8934 23.6156 38.2285 23.5555 38.3316C23.4266 38.5895 23.4352 39.0965 23.5813 39.3715C23.7273 39.6465 26.5203 42.4223 26.7867 42.5598C27.2594 42.8004 27.7234 42.6543 28.5141 42.027L29.0898 41.5629L29.3906 41.6918C29.5539 41.7605 29.7 41.8207 29.7086 41.8293C29.7258 41.8465 29.7773 42.1816 29.8289 42.577C29.9406 43.4707 30.0352 43.7199 30.3531 43.9863L30.6109 44.2012H32.8969C35.0453 44.2012 35.2086 44.1926 35.475 44.0293C35.8102 43.823 35.9648 43.4879 36.0422 42.7832C36.1367 41.941 36.1797 41.8207 36.4031 41.7176C36.7469 41.5629 36.8586 41.5973 37.4258 42.0527C38.1734 42.6543 38.6633 42.7918 39.1273 42.5598C39.3938 42.4223 42.1867 39.6465 42.3328 39.3715C42.4789 39.0965 42.4875 38.5895 42.3586 38.3316C42.2984 38.2285 42.0664 37.902 41.843 37.6184C41.3961 37.0598 41.3617 36.948 41.5164 36.6043C41.6195 36.3809 41.7227 36.3465 42.582 36.252C43.2781 36.1746 43.6219 36.0199 43.8281 35.6762C43.9914 35.4098 44 35.2465 44 33.098V30.8121L43.7852 30.5543C43.5188 30.2363 43.2695 30.1418 42.3758 30.0301C41.9805 29.9785 41.6453 29.927 41.6281 29.9098C41.6195 29.9012 41.5594 29.7551 41.4906 29.5918L41.3617 29.291L41.8258 28.7152C42.4789 27.8988 42.5992 27.452 42.3328 26.9449C42.1867 26.6699 39.3938 23.8941 39.1273 23.7566C38.8867 23.6363 38.3711 23.6363 38.1305 23.7566C38.0273 23.8168 37.6922 24.0488 37.3914 24.2895C36.8586 24.702 36.8414 24.7105 36.5148 24.616C36.2141 24.5215 36.1883 24.4957 36.1367 24.109C35.9563 22.7684 35.8617 22.502 35.432 22.227C35.2258 22.0895 34.9422 22.0723 33.0859 22.0551C31.9258 22.0465 30.8688 22.0723 30.7312 22.1152ZM34.4609 28.7324C35.0625 28.9387 36.0078 29.5145 36.3602 29.9012C37.6922 31.3535 37.993 33.5363 37.1164 35.2895C36.7727 35.9684 35.8016 36.9309 35.0969 37.309C32.4586 38.6926 29.1672 37.1973 28.4023 34.2668C28.1445 33.2613 28.325 31.8348 28.8492 30.8551C29.4078 29.8152 30.6711 28.8785 31.9086 28.5949C32.6219 28.4316 33.7563 28.4918 34.4609 28.7324Z" fill="#ECF7F5"/>
<path d="M32.0117 31.1732C31.2125 31.5513 30.7656 32.256 30.7656 33.1583C30.7656 34.3443 31.5648 35.2208 32.7508 35.324C33.9797 35.4357 35.0109 34.6021 35.1227 33.399C35.1828 32.763 35.0453 32.2732 34.693 31.8091C34.0828 31.0099 32.9312 30.7349 32.0117 31.1732Z" fill="#ECF7F5"/>
<path d="M13.75 37.4723C13.75 39.3371 14.1281 40.377 15.1594 41.4168C15.8898 42.1473 16.6289 42.5512 17.6344 42.7746C17.8062 42.8176 17.875 42.8949 17.918 43.1012C18.0812 43.8402 18.5023 44.2012 19.1898 44.2012C19.9375 44.2012 20.4273 43.823 20.5133 43.1699C20.5562 42.8434 20.5734 42.8348 21.0031 42.7402C21.4672 42.6457 22.4555 42.216 22.5414 42.0785C22.5758 42.027 22.4727 41.8809 22.3266 41.7434C21.4242 40.9012 20.943 39.8098 20.9859 38.727L21.0031 38.1082L20.5734 37.6957C20.3328 37.4637 20.032 37.0941 19.9031 36.8707L19.6625 36.4668H16.7062H13.75V37.4723Z" fill="#ECF7F5"/>
</g>
<path d="M21.2141 25.5109C21.0997 23.9756 22.6903 22.8922 24.0772 23.5608L51.7336 36.895C53.1204 37.5637 53.2633 39.4829 51.9909 40.3496L26.6149 57.6336C25.3424 58.5003 23.6089 57.6645 23.4945 56.1292L21.2141 25.5109Z" fill="#71DED0" fill-opacity="0.7"/>
<defs>
<clipPath id="clip0_131_550">
<rect width="44" height="44" fill="white" transform="translate(0 0.201172)"/>
</clipPath>
</defs>
</svg>
