<svg width="49" height="59" viewBox="0 0 49 59" fill="none" xmlns="http://www.w3.org/2000/svg">
<path d="M25.6262 14.3042C25.3479 14.4172 24.8957 14.9825 24.8783 15.2434C24.8348 16.0175 24.9305 16.1914 25.9219 17.2002L26.8438 18.1395L23.2433 21.74L19.6341 25.3492L17.3729 23.088C16.1293 21.8531 14.9987 20.792 14.8682 20.7399C14.5552 20.6268 14.1029 20.6268 13.7898 20.7486C13.6594 20.792 11.0938 23.2793 8.076 26.2884L2.61438 31.7414L2.67526 30.7847C2.8231 28.3931 3.3884 26.6189 4.59726 24.81C6.60623 21.7835 9.79798 19.8963 13.5202 19.5223C15.5118 19.3223 17.9121 19.8093 19.7385 20.7746L20.3299 21.0877L21.3039 20.1137L22.2866 19.1309L22.0953 18.9831C21.7214 18.6874 19.808 17.7829 19.0079 17.522C17.3121 16.9567 16.7033 16.8785 14.4595 16.8785C12.5201 16.8698 12.3635 16.8872 11.3808 17.122C7.26719 18.0873 4.03197 20.4094 1.93603 23.8794C1.06634 25.3318 0.353199 27.3755 0.10099 29.1758C-0.0642498 30.3499 -0.0207656 32.5241 0.187959 33.7069C1.28376 39.9077 6.19748 44.6388 12.4592 45.5259C13.3202 45.6476 15.4683 45.6476 16.3728 45.5259C22.0518 44.7519 26.7046 40.6817 28.3223 35.0723C28.5832 34.1678 28.8093 32.7154 28.8093 31.9501V31.3935L27.2525 32.9502C25.8263 34.3765 25.6784 34.5591 25.5045 35.0375C24.4609 37.9422 22.304 40.3773 19.5645 41.7514C18.7557 42.1602 17.3729 42.6211 16.4163 42.7864C15.3814 42.9777 13.4507 42.9777 12.4157 42.7864C10.4328 42.4298 8.20645 41.3862 6.82365 40.1599L6.44969 39.8294L10.4589 35.8289L14.4595 31.8283L16.6076 33.9678C17.7991 35.1505 18.8601 36.1768 18.9818 36.255C19.1993 36.3942 19.9298 36.4377 20.2168 36.3246C20.3038 36.2898 22.0866 34.5591 24.1739 32.4806C26.2698 30.4021 29.0528 27.6452 30.3486 26.3493L32.7229 24.0012L33.6099 24.8883C34.1057 25.3666 34.5927 25.8101 34.6971 25.8623C34.8014 25.9145 35.071 25.958 35.3058 25.958C35.8015 25.958 36.219 25.7318 36.4625 25.3318C36.6278 25.0535 36.6364 24.8796 36.6364 20.105C36.6364 14.6955 36.6538 14.9043 36.1146 14.4433L35.8363 14.2172L30.827 14.2259C28.0701 14.2259 25.7306 14.2607 25.6262 14.3042Z" fill="#ECF7F5"/>
<path d="M28.2973 40.8987C27.2449 42.4293 25.7578 43.9252 24.088 45.1079C23.7053 45.3862 23.3662 45.6384 23.3401 45.6558C23.2792 45.7254 36.0201 58.4663 36.3071 58.6228C36.6115 58.7794 37.2724 58.7794 37.5768 58.6228C37.7073 58.5533 38.7248 57.5792 39.838 56.4573C42.0122 54.2831 42.0818 54.1874 41.9687 53.4482C41.9252 53.1699 41.2121 52.422 35.4287 46.6299C31.863 43.0555 28.9147 40.1333 28.88 40.1333C28.8452 40.1333 28.5843 40.4725 28.2973 40.8987Z" fill="#ECF7F5"/>
<ellipse cx="28" cy="20.7148" rx="21" ry="20.5" fill="#71DED0" fill-opacity="0.7"/>
</svg>
