<svg width="56" height="56" viewBox="0 0 56 56" fill="none" xmlns="http://www.w3.org/2000/svg">
<path d="M15.7214 0.108921C12.0293 0.537998 8.47699 2.2044 5.81273 4.77885C2.78925 7.70255 1.05299 11.1751 0.544092 15.3062C0.374457 16.6832 0.474242 19.2077 0.75364 20.6047C2.12069 27.5098 7.3095 32.7186 14.3244 34.2453C15.2524 34.4449 15.6515 34.4648 17.7171 34.4648C19.7826 34.4648 20.1817 34.4449 21.1097 34.2453C28.1346 32.7186 33.2935 27.5198 34.7004 20.5449C34.9 19.557 34.9299 19.1179 34.92 17.212C34.92 15.3261 34.89 14.8671 34.6905 13.969C34.1816 11.5942 33.1238 9.11949 31.8566 7.31339C30.6292 5.57713 28.4439 3.54152 26.6278 2.45387C23.4248 0.537998 19.4533 -0.320152 15.7214 0.108921ZM19.0242 2.10462C21.7584 2.37404 24.0334 3.18229 26.2487 4.66909C27.5359 5.52724 29.4218 7.39322 30.28 8.66048C32.9342 12.592 33.6527 17.2919 32.2757 21.8021C31.2978 24.9653 29.2622 27.7693 26.4782 29.765C24.8317 30.9424 22.0078 32.1299 20.7705 32.1598C20.2217 32.1798 20.1618 32.1598 20.0221 31.9004C19.7726 31.4813 20.0221 31.1221 20.6607 30.9524C22.846 30.3737 24.0334 29.8648 25.4903 28.8968C29.5515 26.1727 31.8566 21.6425 31.657 16.763C31.5971 15.2263 31.4175 14.2584 30.9286 12.7816C29.3719 8.09171 25.3306 4.54935 20.4113 3.58143C18.3258 3.16234 15.7812 3.29206 13.6957 3.90075C10.1933 4.92853 7.04008 7.52294 5.3637 10.7659C2.44 16.4038 3.60749 23.279 8.20757 27.5398C9.99372 29.1862 12.0493 30.2639 14.6936 30.9325C14.9231 30.9923 15.1825 31.1021 15.2723 31.1919C15.4819 31.4014 15.4619 31.8605 15.2224 32.08C14.963 32.3195 14.3344 32.2297 12.9374 31.7707C5.99234 29.4556 1.64172 22.5306 2.59966 15.3361C2.91897 12.9113 3.75716 10.726 5.17411 8.63055C6.02228 7.38324 7.91819 5.50728 9.19544 4.65911C12.189 2.67339 15.6914 1.75537 19.0242 2.10462ZM18.0962 10.0475C18.206 10.1473 18.695 11.195 19.1639 12.3725C19.6429 13.5499 20.072 14.5578 20.1119 14.6077C20.1618 14.6476 21.2694 14.7673 22.5866 14.8671C23.9037 14.9669 25.0712 15.0966 25.181 15.1565C25.4205 15.2862 25.5402 15.5856 25.4504 15.855C25.4105 16.0046 22.1575 18.8585 21.6885 19.1678C21.6286 19.2077 21.8382 20.2555 22.1874 21.6525C22.826 24.2569 22.836 24.4065 22.3371 24.636C22.0477 24.7658 22.1974 24.8456 19.7527 23.3289C18.7049 22.6803 17.7869 22.1514 17.7171 22.1514C17.6472 22.1514 16.6793 22.7102 15.5717 23.3987C13.6758 24.5762 13.2567 24.7558 12.9573 24.5662C12.628 24.3566 12.658 24.0273 13.2567 21.6225C13.5959 20.2355 13.8055 19.2077 13.7456 19.1678C13.2567 18.8485 10.0237 15.9947 9.97376 15.845C9.90391 15.6055 10.0935 15.2064 10.323 15.1166C10.4128 15.0766 11.5504 14.9669 12.8575 14.8771C14.1647 14.7773 15.2723 14.6576 15.3222 14.6077C15.3621 14.5578 15.7912 13.5499 16.2702 12.3725C17.1084 10.287 17.3479 9.87786 17.7171 9.87786C17.8168 9.87786 17.9865 9.95769 18.0962 10.0475ZM18.4555 31.4414C18.9943 31.8605 18.655 32.529 17.8967 32.529C17.4077 32.529 17.1184 32.3095 17.1184 31.9303C17.1184 31.2917 17.8967 31.0023 18.4555 31.4414Z" fill="#5F4FD6"/>
<path d="M16.9742 13.9796C16.5351 15.0672 16.2058 15.7258 16.0761 15.8156C15.9464 15.9054 15.218 15.9952 14.1004 16.075C13.1225 16.1449 12.3242 16.2247 12.3242 16.2646C12.3242 16.3045 12.9329 16.8434 13.6813 17.472C14.4297 18.1007 15.0783 18.6994 15.1182 18.8091C15.1681 18.9488 15.0483 19.6473 14.7689 20.8048C14.5295 21.7927 14.3399 22.6109 14.3598 22.6209C14.3698 22.6309 15.0783 22.2118 15.9265 21.6829C16.8046 21.1441 17.5729 20.725 17.7126 20.725C17.8523 20.725 18.6206 21.1441 19.4987 21.6829C20.3469 22.2118 21.0554 22.6309 21.0753 22.6209C21.0853 22.601 20.9057 21.7827 20.6662 20.8048C20.3769 19.6473 20.2571 18.9488 20.307 18.8091C20.3469 18.6994 20.9955 18.1007 21.7439 17.472C22.4923 16.8434 23.101 16.3045 23.101 16.2646C23.101 16.2247 22.3027 16.1449 21.3348 16.075C20.2072 15.9952 19.4788 15.9054 19.3491 15.8156C19.2194 15.7258 18.8901 15.0672 18.451 13.9796C18.0718 13.0416 17.7425 12.2732 17.7126 12.2732C17.6827 12.2732 17.3534 13.0416 16.9742 13.9796Z" fill="#5F4FD6"/>
<path d="M2.42504 38.087C1.07794 42.0884 -0.0196891 45.3713 0.000267902 45.3913C0.0202249 45.4112 1.31743 44.5232 2.88405 43.4155C4.44069 42.3179 5.80775 41.4099 5.90753 41.4099C6.33661 41.4099 6.44637 41.6693 7.43424 44.8524C8.55183 48.4347 8.52189 48.3349 8.58176 48.285C8.60172 48.2551 9.59957 45.3613 10.787 41.8589C11.9744 38.3465 12.9723 35.4228 12.9923 35.3629C13.0122 35.2931 12.8326 35.2032 12.5532 35.1334C11.8347 34.9538 9.87897 34.1555 9.0308 33.6965C7.92318 33.0978 6.79562 32.3294 5.83768 31.5411C5.36869 31.152 4.96955 30.8327 4.93962 30.8327C4.90968 30.8327 3.78211 34.0956 2.42504 38.087Z" fill="#5F4FD6"/>
<path d="M29.5958 31.5321C28.6279 32.3304 27.4804 33.1087 26.3927 33.6975C25.5446 34.1565 23.5888 34.9548 22.8703 35.1344C22.581 35.2042 22.4113 35.294 22.4313 35.3639C22.4612 35.4337 23.4591 38.3674 24.6565 41.8998C25.8439 45.4222 26.8517 48.2661 26.9016 48.2261C26.9415 48.1862 27.4205 46.6895 27.9693 44.9033C28.9772 41.6603 29.0869 41.4108 29.516 41.4108C29.6158 41.4108 30.9828 42.3189 32.5395 43.4165C34.1061 44.5241 35.4033 45.4122 35.4233 45.3923C35.4732 45.3424 30.5538 30.8337 30.4839 30.8337C30.454 30.8337 30.0548 31.153 29.5958 31.5321Z" fill="#5F4FD6"/>
<path d="M56.0011 33.4896C56.0011 45.9216 45.6772 55.9997 32.942 55.9997C20.2067 55.9997 9.88281 45.9216 9.88281 33.4896C9.88281 21.0576 20.2067 10.9795 32.942 10.9795C45.6772 10.9795 56.0011 21.0576 56.0011 33.4896ZM19.1281 33.4896C19.1281 40.9372 25.3128 46.9746 32.942 46.9746C40.5712 46.9746 46.7558 40.9372 46.7558 33.4896C46.7558 26.0421 40.5712 20.0046 32.942 20.0046C25.3128 20.0046 19.1281 26.0421 19.1281 33.4896Z" fill="#71DED0" fill-opacity="0.7"/>
</svg>
