<svg width="58" height="55" viewBox="0 0 58 55" fill="none" xmlns="http://www.w3.org/2000/svg">
<path d="M8.09978 0.469687L7.85938 0.71009V2.71621V4.72232L8.09978 4.96272L8.34018 5.20312H16.1491C21.5789 5.20312 23.9995 5.17826 24.1238 5.11194C24.4637 4.92956 24.5217 4.57311 24.5217 2.71621C24.5217 0.859305 24.4637 0.502846 24.1238 0.320472C23.9995 0.254154 21.5789 0.229285 16.1491 0.229285H8.34018L8.09978 0.469687Z" fill="#ECF7F5"/>
<path d="M2.67955 2.83318C1.3532 3.25595 0.341849 4.34191 0.0765773 5.6434C0.0102594 5.94183 -0.00632006 11.1395 0.00196968 23.027L0.0268389 39.9795L0.30869 40.5598C0.681728 41.3224 1.33662 41.9773 2.09927 42.3503L2.67955 42.6322L15.9597 42.6571C29.1652 42.6736 29.2481 42.6736 29.7538 42.5078C30.3921 42.2923 30.7652 42.0519 31.2625 41.5545C31.7102 41.0903 32.0998 40.3691 32.2242 39.7474C32.2905 39.4489 32.3071 34.2513 32.2988 22.3638L32.2739 5.41129L31.992 4.83101C31.6107 4.06006 30.9227 3.3803 30.1849 3.02384C29.6295 2.76686 29.5963 2.75857 28.2782 2.7337L26.927 2.70054V3.52123C26.927 3.96887 26.8856 4.55744 26.8441 4.83101C26.6037 6.30658 25.4432 7.42569 23.9593 7.61636C23.1718 7.71583 9.03778 7.70754 8.33315 7.60807C7.18088 7.44227 6.25243 6.76251 5.76333 5.7263C5.51464 5.18746 5.49806 5.11285 5.47319 3.93571L5.44003 2.71712L4.22144 2.72541C3.49195 2.72541 2.87851 2.76686 2.67955 2.83318ZM12.6438 12.8306C13.1412 13.0544 13.3484 13.4109 13.307 13.9829L13.2738 14.4222L11.0853 16.6107L8.88856 18.7992H8.49065C8.27512 18.7992 8.01814 18.7578 7.91866 18.708C7.66168 18.5754 5.96229 16.8926 5.82136 16.6273C5.47319 15.9641 5.87939 15.0771 6.59231 14.9362C7.08969 14.8367 7.41299 14.9693 7.94353 15.4584L8.44921 15.9227L10.0408 14.3476C11.8231 12.5736 11.9392 12.5073 12.6438 12.8306ZM25.924 15.359C26.3633 15.6159 26.554 15.931 26.554 16.3952C26.554 16.8594 26.3633 17.1744 25.924 17.4314C25.6504 17.5889 25.4929 17.5972 20.9584 17.5972C16.4239 17.5972 16.2664 17.5889 16.0012 17.4314C15.0561 16.8594 15.2717 15.4916 16.3493 15.2263C16.4902 15.1932 18.6373 15.1683 21.1242 15.1766C25.4763 15.1932 25.6504 15.2015 25.924 15.359ZM12.735 21.7835C13.2655 22.1068 13.4894 22.8197 13.2158 23.342C13.0334 23.6819 9.09581 27.5697 8.83053 27.6692C8.24196 27.8848 7.91037 27.7272 6.91561 26.7656C5.90426 25.7792 5.70531 25.4973 5.70531 25.0248C5.70531 24.5025 5.94571 24.1378 6.42651 23.9223C6.95706 23.6901 7.3218 23.8062 7.96011 24.4196L8.44921 24.8839L9.99939 23.342C10.8532 22.4964 11.6242 21.7586 11.7154 21.7089C11.9723 21.568 12.4366 21.6011 12.735 21.7835ZM25.924 23.6487C26.3633 23.9057 26.554 24.2207 26.554 24.6849C26.554 25.1491 26.3633 25.4641 25.924 25.7211C25.6504 25.8786 25.4929 25.8869 20.9584 25.8869C16.4239 25.8869 16.2664 25.8786 16.0012 25.7211C15.0561 25.1491 15.2717 23.7813 16.3493 23.5161C16.4902 23.4829 18.6373 23.458 21.1242 23.4663C25.4763 23.4829 25.6504 23.4912 25.924 23.6487ZM12.735 30.0732C13.2655 30.3965 13.4894 31.1095 13.2158 31.6317C13.0334 31.9716 9.09581 35.8595 8.83053 35.9589C8.24196 36.1745 7.91037 36.017 6.91561 35.0554C5.90426 34.0689 5.70531 33.787 5.70531 33.3145C5.70531 32.7923 5.94571 32.4275 6.42651 32.212C6.95706 31.9799 7.3218 32.0959 7.96011 32.7094L8.44921 33.1736L9.99939 31.6317C10.8532 30.7862 11.6242 30.0484 11.7154 29.9986C11.9723 29.8577 12.4366 29.8909 12.735 30.0732ZM26.0151 31.955C26.3965 32.1871 26.5954 32.5436 26.5954 32.9746C26.5954 33.4057 26.3965 33.7622 26.0151 33.9943C25.725 34.1767 25.7084 34.1767 20.9999 34.1767C16.4239 34.1767 16.2664 34.1684 16.0012 34.0109C15.0561 33.4389 15.2717 32.0711 16.3493 31.8058C16.4902 31.7726 18.6622 31.7478 21.1657 31.7561C25.6918 31.7726 25.725 31.7726 26.0151 31.955Z" fill="#ECF7F5"/>
<rect x="21.0625" y="18.6387" width="36" height="36" rx="5" fill="#71DED0" fill-opacity="0.7"/>
</svg>
