<svg width="54" height="65" viewBox="0 0 54 65" fill="none" xmlns="http://www.w3.org/2000/svg">
<path d="M26.7938 0.40606C25.9762 0.810158 25.5158 1.58076 25.5158 2.55812C25.5064 3.46969 25.9669 4.2027 26.8126 4.65379C27.3389 4.93572 28.3538 4.93572 28.8801 4.65379C30.6375 3.72342 30.6469 1.25185 28.8895 0.40606C28.3351 0.133529 27.3389 0.133529 26.7938 0.40606Z" fill="#ECF7F5"/>
<path d="M21.3806 3.12293C20.5442 3.33907 19.8017 3.91233 19.4164 4.65474C19.2661 4.94607 19.2003 5.27498 19.1721 5.87643C19.1345 6.65644 19.1439 6.73162 19.4258 7.30487C19.7454 7.95331 20.1589 8.35741 20.8449 8.69572C21.4839 9.00584 22.6868 8.98705 23.3447 8.64873C24.0213 8.29162 24.6603 7.54921 24.8483 6.90077C25.3933 5.04944 24.1622 3.2263 22.2827 3.07594C21.982 3.05714 21.5779 3.07594 21.3806 3.12293Z" fill="#ECF7F5"/>
<path d="M9.28822 12.7073V14.7748H11.0268H12.7653V17.5847V20.3946L6.64748 30.1869C2.07084 37.5077 0.463846 40.1484 0.294689 40.6465C-0.363145 42.526 0.106737 44.9036 1.4412 46.4166C1.99566 47.0463 3.08578 47.7793 3.90338 48.0518L4.54242 48.2773H19.1557H33.769L34.4081 48.0518C37.3871 47.0275 39.0505 43.6067 38.0168 40.6465C37.8476 40.1484 36.2406 37.5077 31.664 30.1869L25.5461 20.3946V17.5847V14.7748H27.2847H29.0232V12.7073V10.6399H19.1557H9.28822V12.7073ZM21.4112 18.2237V21.6821L24.8225 27.1327L28.2432 32.5833L23.6948 32.6115C21.2044 32.6209 17.1164 32.6209 14.6167 32.6115L10.0776 32.5833L13.489 27.1327L16.9003 21.6821V18.2237V14.7748H19.1557H21.4112V18.2237Z" fill="#ECF7F5"/>
<rect x="18.3203" y="20.2051" width="36" height="36" rx="5" transform="rotate(15 18.3203 20.2051)" fill="#71DED0" fill-opacity="0.7"/>
</svg>
