<svg width="20" height="15" viewBox="0 0 20 15" fill="none" xmlns="http://www.w3.org/2000/svg">
<path d="M2 15C1.45 15 0.979001 14.8162 0.587001 14.4487C0.195002 14.0812 -0.000664969 13.64 1.69779e-06 13.125V1.875C1.69779e-06 1.35938 0.196002 0.917814 0.588002 0.550314C0.980002 0.182814 1.45067 -0.000623408 2 1.59168e-06H18C18.55 1.59168e-06 19.021 0.183751 19.413 0.551251C19.805 0.918751 20.0007 1.36 20 1.875V13.125C20 13.6406 19.804 14.0822 19.412 14.4497C19.02 14.8172 18.5493 15.0006 18 15H2ZM10 8.4375L18 3.75V1.875L10 6.5625L2 1.875V3.75L10 8.4375Z" fill="#ECF7F5"/>
</svg>
