<svg width="151" height="62" viewBox="0 0 151 62" fill="none" xmlns="http://www.w3.org/2000/svg">
<g clip-path="url(#clip0_295_1330)">
<path d="M79.3928 20.1589H74.4754L67.2417 27.3744V13.2658H63.3398V38.3139H67.2417V31.8146L69.6292 29.5587L75.1346 38.3139H80.0164L72.4442 26.8014L79.3928 20.1589ZM83.2591 25.7451H87.0541C87.3748 23.3817 88.4972 22.5044 91.0807 22.5044C93.6107 22.5044 94.8044 23.3817 94.8044 25.2437C94.8044 25.9062 94.7331 26.3359 94.555 26.5508C94.163 27.07 93.3612 27.249 90.5818 27.6071C86.965 28.0726 82.4751 28.5202 82.4751 33.3365C82.4751 36.6846 84.827 38.7615 88.5863 38.7615C90.9738 38.7615 93.29 38.1707 94.9291 36.5772C95.2142 38.1527 96.3366 38.7615 97.8689 38.7615C98.635 38.7615 99.2051 38.6899 100.47 38.3676V35.5566C99.9713 35.6282 99.8465 35.6282 99.5615 35.6282C98.831 35.6282 98.6172 35.3418 98.6172 34.2854V25.0647C98.6172 21.1616 95.4636 19.5681 91.1876 19.5681C86.769 19.6039 83.7223 21.2869 83.2591 25.7451ZM94.7687 29.2006V31.3491C94.7687 32.4413 94.8044 33.6409 93.967 34.4824C93.0583 35.3955 91.5083 35.9326 89.8691 35.9326C87.8024 35.9326 86.6086 34.9479 86.6086 33.2291C86.6086 30.8299 88.711 30.4897 90.5818 30.2032C91.9893 29.9705 93.4681 29.9347 94.7687 29.2006ZM118.554 25.4407C118.554 21.3227 115.116 19.6397 110.982 19.6397C106.35 19.6397 103.57 21.6808 103.57 25.1363C103.57 29.0395 106.831 29.5766 110.982 30.5971C113.263 31.1522 115.294 31.4744 115.294 33.3007C115.294 34.9121 113.744 35.9326 111.392 35.9326C108.898 35.9326 107.223 34.9121 107.009 32.5129H103.178C103.392 36.6667 106.189 38.851 111.321 38.851C116.167 38.851 119.213 36.5235 119.213 32.871C119.213 28.8604 115.347 28.0547 112.194 27.3206C109.289 26.6582 107.561 26.5149 107.561 24.6887C107.561 23.3459 108.755 22.576 110.786 22.576C112.924 22.576 114.439 23.2385 114.724 25.4586L118.554 25.4407ZM127.516 20.1589H123.757V45.028H127.73V35.9147C129.173 37.92 131.169 38.7615 133.627 38.7615C138.509 38.7615 141.663 35.0374 141.663 29.2901C141.663 23.4175 138.438 19.6218 133.413 19.6218C131.062 19.6218 128.781 20.5349 127.516 22.576V20.1589ZM132.594 22.8625C135.676 22.8625 137.618 25.3691 137.618 29.308C137.618 33.1753 135.73 35.5745 132.665 35.5745C129.476 35.5745 127.57 33.1753 127.57 29.2364C127.587 25.2616 129.44 22.8625 132.594 22.8625ZM150.5 13.1583H146.509V17.0973H150.5V13.1583ZM150.5 20.1589H146.509V38.3139H150.5V20.1589Z" fill="#1C1B17"/>
<path d="M11.9028 48.734C14.6644 37.2215 11.3861 36.8276 11.3861 31.2415C11.3861 29.3794 12.8471 24.9213 13.0609 22.7548C13.5597 17.7774 12.3304 19.1024 15.9472 15.4141L16.161 10.2934C17.9783 8.53882 18.887 6.96324 21.1141 7.51827C22.4682 11.5646 19.9025 10.2934 19.6531 15.0202C21.1675 17.0434 22.1831 17.2403 23.3234 19.7827C24.7665 23.0055 23.7332 22.9697 26.4591 25.6732C30.4679 26.1388 32.891 26.1567 35.7595 23.2562C36.0624 20.1587 34.2807 20.4273 36.098 17.5805C37.3452 15.6289 38.5746 14.5726 40.9086 15.3604C41.6747 18.4041 38.2361 19.0307 39.3051 22.4147C43.9196 22.8802 44.9887 16.4883 48.5164 16.1661C48.5164 22.9876 41.4253 23.8828 41.2649 29.4332C41.158 32.9066 44.2225 42.4675 47.3227 44.5086C50.0486 40.3011 52.9884 35.7176 53.3269 30.6327C55.6966 -4.06582 10.0142 -10.386 1.33739 19.9976C0.89197 21.5553 0.624718 23.1308 0.5 24.7064V28.7349C1.26612 38.7255 7.39512 47.4986 11.9028 48.734Z" fill="#EF4635"/>
<path d="M25.2662 53.3893C37.6133 54.8575 36.3126 51.026 33.8717 36.8995C32.9096 31.3312 31.7872 28.3949 25.2127 28.9142C21.1149 33.802 23.1816 43.3271 23.3242 47.4988C23.4311 50.7932 22.8787 51.0081 25.2662 53.3893ZM39.4662 49.9875C41.533 49.7369 41.8893 49.3072 43.5641 47.9643C43.8313 45.1176 41.8893 40.5341 38.8604 39.6209C37.4351 42.3782 37.8449 47.284 39.4662 49.9875ZM19.1194 52.3509C19.1194 48.8775 19.547 41.6978 17.7653 39.227C15.3957 39.9253 16.1262 41.9664 16.1083 46.3171C16.0905 49.5041 15.5026 52.0286 19.1194 52.3509Z" fill="#EF4635"/>
</g>
<defs>
<clipPath id="clip0_295_1330">
<rect width="150" height="61" fill="white" transform="translate(0.5 0.5)"/>
</clipPath>
</defs>
</svg>
