<svg width="64" height="38" viewBox="0 0 64 38" fill="none" xmlns="http://www.w3.org/2000/svg">
<path d="M32.0999 32.9991C35.8999 29.4991 38.2999 24.4991 38.2999 18.9991C38.2999 13.3991 35.8999 8.39912 32.0999 4.99912C28.6999 1.99912 24.2999 0.0991211 19.3999 0.0991211C8.8999 0.0991211 0.399902 8.59912 0.399902 18.9991C0.399902 29.4991 8.8999 37.9991 19.3999 37.9991C24.2999 37.8991 28.6999 35.9991 32.0999 32.9991Z" fill="#3362AB"/>
<path d="M32.1001 32.999C35.9001 29.499 38.3001 24.499 38.3001 18.999C38.3001 13.399 35.9001 8.39902 32.1001 4.99902" fill="#3362AB"/>
<path d="M32.1001 32.999C35.9001 29.499 38.3001 24.499 38.3001 18.999C38.3001 13.399 35.9001 8.39902 32.1001 4.99902" stroke="#3362AB" stroke-width="0.3097"/>
<path d="M44.7997 -0.000976562C39.8997 -0.000976562 35.3997 1.89902 32.0997 4.89902C31.3997 5.49902 30.7997 6.19902 30.1997 6.89902H33.9997C34.4997 7.49902 34.9997 8.19902 35.3997 8.89902H28.6997C28.2997 9.49902 27.8997 10.199 27.5997 10.899H36.4997C36.7997 11.599 37.0997 12.199 37.2997 12.899H26.7997C26.5997 13.599 26.3997 14.199 26.1997 14.899H37.7997C38.0997 16.199 38.1997 17.499 38.1997 18.899C38.1997 20.999 37.8997 22.999 37.1997 24.899H26.6997C26.8997 25.599 27.1997 26.299 27.4997 26.899H36.3997C36.0997 27.599 35.6997 28.299 35.2997 28.899H28.5997C28.9997 29.599 29.4997 30.299 29.9997 30.899H33.7997C33.1997 31.599 32.5997 32.299 31.8997 32.899C35.2997 35.899 39.6997 37.799 44.5997 37.799C55.0997 37.799 63.4997 29.299 63.4997 18.799C63.7997 8.49903 55.2997 -0.000976562 44.7997 -0.000976562Z" fill="#C9191B"/>
<path d="M16.9998 23.599H14.5998L15.9998 16.199L12.7998 23.599H10.6998L10.2998 16.299L8.89978 23.599H6.7998L8.59979 13.999H12.2998L12.4998 19.999L15.0998 13.999H18.8998L16.9998 23.599Z" fill="white"/>
<path d="M43.3998 23.5991C42.7998 23.7991 42.1998 23.8991 41.6998 23.8991C40.4998 23.8991 39.7998 23.2991 39.7998 22.1991C39.7998 21.9991 39.7998 21.6991 39.8998 21.4991L39.9998 20.6991L40.0998 20.0991L41.1998 14.0991H43.4998L43.1998 15.8991H44.3998L44.0998 17.7991H42.8998L42.2998 21.0991C42.2998 21.1991 42.2998 21.3991 42.2998 21.3991C42.2998 21.7991 42.5998 21.9991 43.0998 21.9991C43.3998 21.9991 43.5998 21.9991 43.6998 21.8991L43.3998 23.5991Z" fill="white"/>
<path d="M50.1997 15.8988C49.9997 15.7988 49.9997 15.7988 49.8997 15.7988C49.7997 15.7988 49.6997 15.7988 49.6997 15.7988C49.5997 15.7988 49.4997 15.7988 49.3997 15.7988C48.5997 15.7988 48.0997 16.0988 47.2997 17.0988L47.4997 15.8988H45.5997L44.1997 23.6988H46.5997C47.3997 18.8988 47.7997 18.0988 48.8997 18.0988C48.9997 18.0988 49.0997 18.0988 49.1997 18.0988L49.4997 18.1988L50.1997 15.8988Z" fill="white"/>
<path d="M34.0001 18.2992C34.0001 19.2992 34.6001 19.9992 35.8001 20.4992C36.8001 20.8992 36.9001 20.9992 36.9001 21.3992C36.9001 21.8992 36.5001 22.0992 35.5001 22.0992C34.8001 22.0992 34.1001 21.9992 33.4001 21.7992L33.1001 23.5992H33.2001L33.6001 23.6992C33.7001 23.6992 34.0001 23.7992 34.2001 23.7992C34.8001 23.7992 35.2001 23.8992 35.5001 23.8992C38.0001 23.8992 39.2001 23.0992 39.2001 21.2992C39.2001 20.1992 38.7001 19.5992 37.5001 19.0992C36.5001 18.6992 36.4001 18.5992 36.4001 18.1992C36.4001 17.7992 36.8001 17.5992 37.6001 17.5992C38.1001 17.5992 38.7001 17.5992 39.3001 17.6992L39.6001 15.8992C39.0001 15.7992 38.1001 15.6992 37.5001 15.6992C34.9001 15.6992 34.0001 16.8992 34.0001 18.2992Z" fill="white"/>
<path d="M22.9997 20.1992C22.6997 20.1992 22.5997 20.1992 22.4997 20.1992C21.1997 20.1992 20.4997 20.5992 20.4997 21.3992C20.4997 21.8992 20.7997 22.1992 21.2997 22.1992C22.1997 22.0992 22.8997 21.2992 22.9997 20.1992ZM24.6997 23.5992H22.6997L22.7997 22.7992C22.1997 23.3992 21.3997 23.6992 20.2997 23.6992C18.9997 23.6992 18.1997 22.7992 18.1997 21.5992C18.1997 19.6992 19.6997 18.5992 22.2997 18.5992C22.5997 18.5992 22.8997 18.5992 23.2997 18.6992C23.3997 18.3992 23.3997 18.2992 23.3997 18.1992C23.3997 17.6992 22.9997 17.4992 21.8997 17.4992C21.1997 17.4992 20.4997 17.5992 19.9997 17.6992L19.6997 17.7992L19.4997 17.8992L19.7997 16.0992C20.9997 15.7992 21.6997 15.6992 22.5997 15.6992C24.5997 15.6992 25.6997 16.4992 25.6997 17.9992C25.6997 18.3992 25.6997 18.6992 25.4997 19.4992L24.9997 22.2992L24.8997 22.7992L24.7997 23.1992V23.4992L24.6997 23.5992Z" fill="white"/>
<path d="M31.2 18.7991C31.2 18.5991 31.2 18.4991 31.2 18.3991C31.2 17.7991 30.8 17.3991 30.1 17.3991C29.3 17.3991 28.8 17.8991 28.6 18.7991H31.2ZM32.4 23.4991C31.6 23.6991 30.8 23.7991 30 23.7991C27.4 23.7991 26 22.5991 26 20.2991C26 17.5991 27.7 15.5991 30.1 15.5991C32 15.5991 33.3 16.6991 33.3 18.3991C33.3 18.9991 33.2 19.4991 33 20.2991H28.3C28.3 20.3991 28.3 20.4991 28.3 20.4991C28.3 21.3991 29 21.8991 30.4 21.8991C31.2 21.8991 32 21.6991 32.9 21.3991L32.4 23.4991Z" fill="white"/>
<path d="M55.0998 19.0992C55.0998 18.2992 54.7998 17.4992 53.7998 17.4992C52.5998 17.4992 51.8998 18.8992 51.8998 20.1992C51.8998 21.2992 52.3998 21.9992 53.2998 21.9992C53.7998 21.9992 54.8998 21.2992 55.0998 20.0992C55.0998 19.7992 55.0998 19.3992 55.0998 19.0992ZM57.5998 20.0992C57.1998 22.6992 55.3998 23.8992 52.9998 23.8992C50.2998 23.8992 49.2998 22.2992 49.2998 20.2992C49.2998 17.4992 51.0998 15.6992 53.8998 15.6992C56.3998 15.6992 57.5998 17.1992 57.5998 19.1992C57.6998 19.5992 57.6998 19.5992 57.5998 20.0992Z" fill="white"/>
</svg>
