<svg width="101" height="62" viewBox="0 0 101 62" fill="none" xmlns="http://www.w3.org/2000/svg">
<path d="M50.7309 53.196C56.7555 47.647 60.5606 39.7198 60.5606 31C60.5606 22.1215 56.7555 14.1944 50.7309 8.8039C45.3404 4.0476 38.3645 1.03528 30.5959 1.03528C13.9488 1.03528 0.472656 14.5115 0.472656 31C0.472656 47.647 13.9488 61.1232 30.5959 61.1232C38.3645 60.9646 45.3404 57.9523 50.7309 53.196Z" fill="#3362AB"/>
<path d="M50.7305 53.1961C56.7551 47.6471 60.5602 39.7199 60.5602 31C60.5602 22.1216 56.7551 14.1944 50.7305 8.80396" fill="#3362AB"/>
<path d="M50.7305 53.1961C56.7551 47.6471 60.5602 39.7199 60.5602 31C60.5602 22.1216 56.7551 14.1944 50.7305 8.80396" stroke="#3362AB" stroke-width="0.3097"/>
<path d="M70.868 0.87677C63.0993 0.87677 55.9649 3.88908 50.7329 8.64538C49.6231 9.59664 48.6719 10.7064 47.7206 11.8162H53.7453C54.538 12.7675 55.3307 13.8773 55.9649 14.9871H45.3425C44.7083 15.9384 44.0741 17.0482 43.5985 18.158H57.7088C58.1845 19.2678 58.6601 20.219 58.9772 21.3288H42.3302C42.0131 22.4386 41.696 23.3899 41.3789 24.4997H59.7699C60.2456 26.5608 60.4041 28.6218 60.4041 30.8414C60.4041 34.1708 59.9285 37.3417 58.8187 40.354H42.1716C42.4887 41.4638 42.9643 42.5736 43.4399 43.5249H57.5503C57.0747 44.6347 56.4405 45.7445 55.8064 46.6958H45.1839C45.8181 47.8056 46.6108 48.9154 47.4035 49.8666H53.4282C52.4769 50.9764 51.5256 52.0862 50.4158 53.0375C55.8063 57.7938 62.7822 60.8061 70.5509 60.8061C87.1979 60.8061 100.516 47.33 100.516 30.6829C100.991 14.353 87.515 0.87677 70.868 0.87677Z" fill="#C9191B"/>
<path d="M26.7905 38.293H22.9855L25.2051 26.5608L20.1317 38.293H16.8023L16.1682 26.7193L13.9485 38.293H10.6191L13.4729 23.0728H19.339L19.6561 32.5854L23.7782 23.0728H29.8028L26.7905 38.293Z" fill="white"/>
<path d="M68.647 38.2929C67.6957 38.61 66.7445 38.7686 65.9518 38.7686C64.0492 38.7686 62.9395 37.8173 62.9395 36.0733C62.9395 35.7563 62.9394 35.2806 63.098 34.9635L63.2565 33.6952L63.4151 32.7439L65.159 23.2313H68.8055L68.3299 26.0851H70.2324L69.7568 29.0974H67.8543L66.903 34.3294C66.903 34.4879 66.903 34.805 66.903 34.805C66.903 35.4392 67.3786 35.7563 68.1714 35.7563C68.647 35.7563 68.9641 35.7562 69.1226 35.5977L68.647 38.2929Z" fill="white"/>
<path d="M79.4286 26.0851C79.1115 25.9266 79.1115 25.9266 78.953 25.9266C78.7944 25.9266 78.6359 25.9266 78.6359 25.9266C78.4774 25.9266 78.3188 25.9266 78.1602 25.9266C76.8919 25.9266 76.0992 26.4022 74.8309 27.9876L75.1479 26.0851H72.1356L69.916 38.4515H73.721C74.9894 30.8414 75.6235 29.5731 77.3675 29.5731C77.5261 29.5731 77.6846 29.5731 77.8432 29.5731L78.3188 29.7316L79.4286 26.0851Z" fill="white"/>
<path d="M53.7413 29.8902C53.7413 31.4756 54.6926 32.5854 56.5951 33.3781C58.1806 34.0123 58.3391 34.1709 58.3391 34.805C58.3391 35.5977 57.7049 35.9148 56.1195 35.9148C55.0097 35.9148 53.8999 35.7563 52.7901 35.4392L52.3145 38.293H52.473L53.1072 38.4515C53.2657 38.4515 53.7414 38.6101 54.0584 38.6101C55.0097 38.6101 55.6439 38.7686 56.1195 38.7686C60.0831 38.7686 61.9856 37.5003 61.9856 34.6465C61.9856 32.9025 61.1929 31.9512 59.2903 31.1585C57.7049 30.5244 57.5464 30.3658 57.5464 29.7316C57.5464 29.0975 58.1806 28.7804 59.4489 28.7804C60.2416 28.7804 61.1929 28.7804 62.1442 28.9389L62.6198 26.0851C61.6685 25.9266 60.2416 25.7681 59.2903 25.7681C55.1682 25.7681 53.7413 27.6706 53.7413 29.8902Z" fill="white"/>
<path d="M36.3054 32.9025C35.8297 32.9025 35.6712 32.9025 35.5127 32.9025C33.4516 32.9025 32.3418 33.5367 32.3418 34.805C32.3418 35.5977 32.8174 36.0734 33.6102 36.0734C35.0371 35.9148 36.1468 34.6465 36.3054 32.9025ZM39.0006 38.293H35.8298L35.9883 37.0246C35.0371 37.9759 33.7687 38.4515 32.0247 38.4515C29.9637 38.4515 28.6953 37.0246 28.6953 35.1221C28.6953 32.1098 31.0735 30.3658 35.1956 30.3658C35.6712 30.3658 36.1469 30.3658 36.781 30.5244C36.9396 30.0487 36.9395 29.8902 36.9395 29.7316C36.9395 28.9389 36.3054 28.6219 34.5614 28.6219C33.4516 28.6219 32.3418 28.7804 31.5491 28.9389L31.0735 29.0975L30.7564 29.256L31.232 26.4022C33.1345 25.9266 34.2443 25.7681 35.6712 25.7681C38.8421 25.7681 40.5861 27.0364 40.5861 29.4146C40.5861 30.0487 40.586 30.5244 40.269 31.7927L39.4762 36.2319L39.3177 37.0246L39.1592 37.6588V38.1344L39.0006 38.293Z" fill="white"/>
<path d="M49.3029 30.6829C49.3029 30.3658 49.3029 30.2073 49.3029 30.0487C49.3029 29.0975 48.6687 28.4633 47.5589 28.4633C46.2905 28.4633 45.4978 29.256 45.1807 30.6829H49.3029ZM51.2054 38.1344C49.937 38.4515 48.6687 38.6101 47.4003 38.6101C43.2782 38.6101 41.0586 36.7075 41.0586 33.061C41.0586 28.7804 43.7538 25.6095 47.5589 25.6095C50.5712 25.6095 52.6323 27.3535 52.6323 30.0487C52.6323 31 52.4737 31.7927 52.1566 33.061H44.7051C44.7051 33.2196 44.7051 33.3781 44.7051 33.3781C44.7051 34.805 45.8149 35.5977 48.0345 35.5977C49.3028 35.5977 50.5712 35.2806 51.9981 34.805L51.2054 38.1344Z" fill="white"/>
<path d="M87.1955 31.1585C87.1955 29.8902 86.7199 28.6219 85.1344 28.6219C83.2319 28.6219 82.1221 30.8415 82.1221 32.9025C82.1221 34.6465 82.9148 35.7563 84.3417 35.7563C85.1344 35.7563 86.8784 34.6465 87.1955 32.744C87.1955 32.2683 87.1955 31.6342 87.1955 31.1585ZM91.1591 32.744C90.5249 36.8661 87.6711 38.7686 83.8661 38.7686C79.5854 38.7686 78 36.2319 78 33.0611C78 28.6219 80.8537 25.7681 85.293 25.7681C89.2565 25.7681 91.1591 28.1462 91.1591 31.3171C91.3176 31.9513 91.3176 31.9512 91.1591 32.744Z" fill="white"/>
</svg>
