<svg width="66" height="40" viewBox="0 0 66 40" fill="none" xmlns="http://www.w3.org/2000/svg">
<path d="M65.3999 19.999C65.3999 30.699 56.6999 39.499 45.8999 39.499C35.1999 39.499 26.3999 30.699 26.3999 19.999C26.3999 9.29902 35.0999 0.499023 45.7999 0.499023C56.6999 0.499023 65.3999 9.29902 65.3999 19.999Z" fill="#F9B50B"/>
<path d="M39.2999 20.099C39.2999 18.699 39.0999 17.299 38.8999 15.999H26.8999C26.9999 15.299 27.1999 14.699 27.3999 13.899H38.0999C37.8999 13.199 37.5999 12.499 37.2999 11.799H28.1999C28.4999 11.099 28.8999 10.499 29.2999 9.69902H36.1999C35.7999 8.99902 35.2999 8.29902 34.6999 7.59902H30.8999C31.4999 6.89902 32.0999 6.29902 32.8999 5.59902C29.4999 2.39902 24.8999 0.499023 19.7999 0.499023C9.1999 0.799023 0.399902 9.29902 0.399902 19.999C0.399902 30.699 9.0999 39.499 19.8999 39.499C24.9999 39.499 29.4999 37.499 32.9999 34.399C33.6999 33.799 34.2999 33.099 34.9999 32.299H30.9999C30.4999 31.699 29.9999 30.999 29.5999 30.299H36.3999C36.7999 29.699 37.1999 28.999 37.4999 28.199H28.3999C28.0999 27.599 27.7999 26.899 27.5999 26.099H38.2999C38.8999 24.299 39.2999 22.299 39.2999 20.099Z" fill="#C8191C"/>
<path d="M26.7998 24.9989L27.0998 23.1989C26.9998 23.1989 26.7998 23.2989 26.5998 23.2989C25.8998 23.2989 25.7998 22.8989 25.8998 22.6989L26.4998 19.0989H27.5998L27.8998 17.0989H26.8998L27.0998 15.8989H24.9998C24.9998 15.8989 23.7998 22.6989 23.7998 23.4989C23.7998 24.6989 24.4998 25.2989 25.4998 25.2989C26.0998 25.2989 26.5998 25.0989 26.7998 24.9989Z" fill="white"/>
<path d="M27.5 21.6991C27.5 24.5991 29.5 25.2991 31.1 25.2991C32.6 25.2991 33.3 24.9991 33.3 24.9991L33.7 22.9991C33.7 22.9991 32.6 23.4991 31.5 23.4991C29.2 23.4991 29.6 21.7991 29.6 21.7991H33.8C33.8 21.7991 34.1 20.4991 34.1 19.8991C34.1 18.5991 33.4 16.8991 31.1 16.8991C29.1 16.7991 27.5 19.0991 27.5 21.6991ZM31.1 18.6991C32.2 18.6991 32 19.9991 32 20.0991H29.7C29.8 19.9991 30 18.6991 31.1 18.6991Z" fill="white"/>
<path d="M44.2 24.9989L44.6 22.6989C44.6 22.6989 43.6 23.1989 42.8 23.1989C41.4 23.1989 40.7 22.0989 40.7 20.7989C40.7 18.2989 41.9 16.9989 43.4 16.9989C44.4 16.9989 45.3 17.5989 45.3 17.5989L45.6 15.3989C45.6 15.3989 44.4 14.8989 43.2 14.8989C40.8 14.8989 38.5 16.9989 38.5 20.8989C38.5 23.4989 39.7 25.1989 42.2 25.1989C43.1 25.2989 44.2 24.9989 44.2 24.9989Z" fill="white"/>
<path d="M15.5001 16.7988C14.1001 16.7988 13.0001 17.1988 13.0001 17.1988L12.7001 18.9988C12.7001 18.9988 13.6001 18.5988 15.0001 18.5988C15.7001 18.5988 16.3001 18.6988 16.3001 19.2988C16.3001 19.6988 16.2001 19.7988 16.2001 19.7988H15.3001C13.5001 19.7988 11.6001 20.4988 11.6001 22.8988C11.6001 24.7988 12.8001 25.1988 13.6001 25.1988C15.0001 25.1988 15.7001 24.2988 15.8001 24.2988L15.7001 25.0988H17.4001L18.2001 19.3988C18.2001 16.8988 16.2001 16.7988 15.5001 16.7988ZM15.9001 21.3988C15.9001 21.6988 15.7001 23.3988 14.5001 23.3988C13.9001 23.3988 13.7001 22.8988 13.7001 22.5988C13.7001 22.0988 14.0001 21.3988 15.6001 21.3988C15.8001 21.3988 15.9001 21.3988 15.9001 21.3988Z" fill="white"/>
<path d="M20.1997 25.1992C20.6997 25.1992 23.2997 25.2992 23.2997 22.4992C23.2997 19.8992 20.7997 20.3992 20.7997 19.3992C20.7997 18.8992 21.1997 18.6992 21.8997 18.6992C22.1997 18.6992 23.2997 18.7992 23.2997 18.7992L23.5997 16.8992C23.5997 16.8992 22.8997 16.6992 21.5997 16.6992C20.0997 16.6992 18.4997 17.2992 18.4997 19.3992C18.4997 21.7992 21.0997 21.5992 21.0997 22.4992C21.0997 23.0992 20.3997 23.1992 19.8997 23.1992C18.9997 23.1992 17.9997 22.8992 17.9997 22.8992L17.6997 24.7992C17.8997 24.9992 18.4997 25.1992 20.1997 25.1992Z" fill="white"/>
<path d="M61.4 15.1992L61 17.9992C61 17.9992 60.2 16.9992 59 16.9992C57.1 16.9992 55.5 19.2992 55.5 21.9992C55.5 23.6992 56.3 25.3992 58.1 25.3992C59.3 25.3992 60.1 24.5992 60.1 24.5992L60 25.2992H62.1L63.6 15.3992L61.4 15.1992ZM60.4 20.5992C60.4 21.6992 59.9 23.1992 58.7 23.1992C58 23.1992 57.6 22.5992 57.6 21.4992C57.6 19.7992 58.3 18.7992 59.3 18.7992C60 18.8992 60.4 19.3992 60.4 20.5992Z" fill="white"/>
<path d="M4.19971 25.0992L5.39971 17.6992L5.59971 25.0992H6.99971L9.69971 17.6992L8.59971 25.0992H10.7997L12.4997 15.1992H9.09971L6.99971 21.2992L6.89971 15.1992H3.89971L2.19971 25.0992H4.19971Z" fill="white"/>
<path d="M36.1999 25.099C36.7999 21.699 36.8999 18.899 38.3999 19.399C38.5999 18.099 38.8999 17.499 39.0999 16.999H38.6999C37.7999 16.999 36.9999 18.199 36.9999 18.199L37.1999 17.099H35.1999L33.8999 25.099H36.1999Z" fill="white"/>
<path d="M49.0001 16.7988C47.6001 16.7988 46.5001 17.1988 46.5001 17.1988L46.2001 18.9988C46.2001 18.9988 47.1001 18.5988 48.5001 18.5988C49.2001 18.5988 49.8001 18.6988 49.8001 19.2988C49.8001 19.6988 49.7001 19.7988 49.7001 19.7988H48.8001C47.0001 19.7988 45.1001 20.4988 45.1001 22.8988C45.1001 24.7988 46.3001 25.1988 47.1001 25.1988C48.5001 25.1988 49.2001 24.2988 49.3001 24.2988L49.2001 25.0988H51.1001L51.9001 19.3988C51.9001 16.8988 49.7001 16.7988 49.0001 16.7988ZM49.5001 21.3988C49.5001 21.6988 49.3001 23.3988 48.1001 23.3988C47.5001 23.3988 47.3001 22.8988 47.3001 22.5988C47.3001 22.0988 47.6001 21.3988 49.2001 21.3988C49.4001 21.3988 49.4001 21.3988 49.5001 21.3988Z" fill="white"/>
<path d="M53.4997 25.099C54.0997 21.699 54.1997 18.899 55.6997 19.399C55.8997 18.099 56.1997 17.499 56.3997 16.999H55.9997C55.0997 16.999 54.2997 18.199 54.2997 18.199L54.4997 17.099H52.4997L51.1997 25.099H53.4997Z" fill="white"/>
</svg>
