<svg width="101" height="60" viewBox="0 0 101 60" fill="none" xmlns="http://www.w3.org/2000/svg">
<path d="M100.5 30C100.5 46.4615 87.1154 60 70.5 60C54.0385 60 40.5 46.4615 40.5 30C40.5 13.5385 53.8846 0 70.3462 0C87.1154 0 100.5 13.5385 100.5 30Z" fill="#F9B50B"/>
<path d="M60.3462 30.1538C60.3462 28 60.0385 25.8462 59.7308 23.8462H41.2692C41.4231 22.7692 41.7308 21.8462 42.0385 20.6154H58.5C58.1923 19.5385 57.7308 18.4615 57.2692 17.3846H43.2692C43.7308 16.3077 44.3462 15.3846 44.9615 14.1538H55.5769C54.9615 13.0769 54.1923 12 53.2692 10.9231H47.4231C48.3462 9.84615 49.2692 8.92308 50.5 7.84615C45.2692 2.92308 38.1923 0 30.3462 0C14.0385 0.461538 0.5 13.5385 0.5 30C0.5 46.4615 13.8846 60 30.5 60C38.3462 60 45.2692 56.9231 50.6538 52.1539C51.7308 51.2308 52.6538 50.1538 53.7308 48.9231H47.5769C46.8077 48 46.0385 46.9231 45.4231 45.8462H55.8846C56.5 44.9231 57.1154 43.8462 57.5769 42.6154H43.5769C43.1154 41.6923 42.6538 40.6154 42.3462 39.3846H58.8077C59.7308 36.6154 60.3462 33.5385 60.3462 30.1538Z" fill="#C8191C"/>
<path d="M41.1154 37.6923L41.5769 34.9231C41.4231 34.9231 41.1154 35.0769 40.8077 35.0769C39.7308 35.0769 39.5769 34.4616 39.7308 34.1539L40.6538 28.6154H42.3462L42.8077 25.5385H41.2692L41.5769 23.6923H38.3462C38.3462 23.6923 36.5 34.1539 36.5 35.3846C36.5 37.2308 37.5769 38.1539 39.1154 38.1539C40.0385 38.1539 40.8077 37.8462 41.1154 37.6923Z" fill="white"/>
<path d="M42.1914 32.6154C42.1914 37.0769 45.2683 38.1539 47.7299 38.1539C50.0376 38.1539 51.1145 37.6923 51.1145 37.6923L51.7299 34.6154C51.7299 34.6154 50.0376 35.3846 48.3453 35.3846C44.8068 35.3846 45.4222 32.7693 45.4222 32.7693H51.8837C51.8837 32.7693 52.3453 30.7693 52.3453 29.8462C52.3453 27.8462 51.2683 25.2308 47.7299 25.2308C44.6529 25.0769 42.1914 28.6154 42.1914 32.6154ZM47.7299 28C49.4222 28 49.1145 30 49.1145 30.1539H45.576C45.7299 30 46.0376 28 47.7299 28Z" fill="white"/>
<path d="M67.8845 37.6923L68.4999 34.1539C68.4999 34.1539 66.9614 34.9231 65.7306 34.9231C63.5768 34.9231 62.4999 33.2308 62.4999 31.2308C62.4999 27.3846 64.346 25.3846 66.6537 25.3846C68.1922 25.3846 69.5768 26.3077 69.5768 26.3077L70.0383 22.9231C70.0383 22.9231 68.1922 22.1539 66.346 22.1539C62.6537 22.1539 59.1152 25.3846 59.1152 31.3846C59.1152 35.3846 60.9614 38 64.8075 38C66.1922 38.1539 67.8845 37.6923 67.8845 37.6923Z" fill="white"/>
<path d="M23.7305 25.0769C21.5766 25.0769 19.8843 25.6923 19.8843 25.6923L19.4228 28.4615C19.4228 28.4615 20.8074 27.8461 22.9612 27.8461C24.0382 27.8461 24.9612 28 24.9612 28.9231C24.9612 29.5384 24.8074 29.6923 24.8074 29.6923H23.4228C20.6535 29.6923 17.7305 30.7692 17.7305 34.4615C17.7305 37.3846 19.5766 38 20.8074 38C22.9612 38 24.0382 36.6154 24.192 36.6154L24.0382 37.8461H26.6535L27.8843 29.0769C27.8843 25.2308 24.8074 25.0769 23.7305 25.0769ZM24.3459 32.1538C24.3459 32.6154 24.0382 35.2308 22.192 35.2308C21.2689 35.2308 20.9612 34.4615 20.9612 34C20.9612 33.2308 21.4228 32.1538 23.8843 32.1538C24.192 32.1538 24.3459 32.1538 24.3459 32.1538Z" fill="white"/>
<path d="M30.9633 38C31.7326 38 35.7326 38.1539 35.7326 33.8462C35.7326 29.8462 31.8864 30.6154 31.8864 29.0769C31.8864 28.3077 32.5018 28 33.5787 28C34.0403 28 35.7326 28.1539 35.7326 28.1539L36.1941 25.2308C36.1941 25.2308 35.1172 24.9231 33.1172 24.9231C30.8095 24.9231 28.348 25.8462 28.348 29.0769C28.348 32.7692 32.348 32.4616 32.348 33.8462C32.348 34.7692 31.271 34.9231 30.5018 34.9231C29.1172 34.9231 27.5787 34.4616 27.5787 34.4616L27.1172 37.3846C27.4249 37.6923 28.348 38 30.9633 38Z" fill="white"/>
<path d="M94.3465 22.6154L93.7311 26.9231C93.7311 26.9231 92.5003 25.3846 90.6541 25.3846C87.7311 25.3846 85.2695 28.9231 85.2695 33.077C85.2695 35.6923 86.5003 38.3077 89.2695 38.3077C91.1157 38.3077 92.3465 37.077 92.3465 37.077L92.1926 38.1539H95.4234L97.7311 22.9231L94.3465 22.6154ZM92.808 30.9231C92.808 32.6154 92.0388 34.9231 90.1926 34.9231C89.1157 34.9231 88.5003 34 88.5003 32.3077C88.5003 29.6923 89.5772 28.1539 91.1157 28.1539C92.1926 28.3077 92.808 29.077 92.808 30.9231Z" fill="white"/>
<path d="M6.34645 37.8462L8.19261 26.4616L8.5003 37.8462H10.6541L14.808 26.4616L13.1157 37.8462H16.5003L19.1157 22.6154H13.8849L10.6541 32L10.5003 22.6154H5.88492L3.26953 37.8462H6.34645Z" fill="white"/>
<path d="M55.5775 37.8462C56.5006 32.6154 56.6544 28.3077 58.9621 29.077C59.2698 27.077 59.7314 26.1539 60.0391 25.3846H59.4237C58.0391 25.3846 56.8083 27.2308 56.8083 27.2308L57.116 25.5385H54.0391L52.0391 37.8462H55.5775Z" fill="white"/>
<path d="M75.2676 25.0769C73.1137 25.0769 71.4214 25.6923 71.4214 25.6923L70.9599 28.4615C70.9599 28.4615 72.3445 27.8461 74.4983 27.8461C75.5753 27.8461 76.4983 28 76.4983 28.9231C76.4983 29.5384 76.3445 29.6923 76.3445 29.6923H74.9599C72.1907 29.6923 69.2676 30.7692 69.2676 34.4615C69.2676 37.3846 71.1137 38 72.3445 38C74.4983 38 75.5753 36.6154 75.7291 36.6154L75.5753 37.8461H78.4983L79.7291 29.0769C79.7291 25.2308 76.3445 25.0769 75.2676 25.0769ZM76.0368 32.1538C76.0368 32.6154 75.7291 35.2308 73.883 35.2308C72.9599 35.2308 72.6522 34.4615 72.6522 34C72.6522 33.2308 73.1137 32.1538 75.5753 32.1538C75.883 32.1538 75.883 32.1538 76.0368 32.1538Z" fill="white"/>
<path d="M82.1928 37.8462C83.1158 32.6154 83.2697 28.3077 85.5774 29.077C85.8851 27.077 86.3466 26.1539 86.6543 25.3846H86.0389C84.6543 25.3846 83.4235 27.2308 83.4235 27.2308L83.7312 25.5385H80.6543L78.6543 37.8462H82.1928Z" fill="white"/>
</svg>
