<svg width="141" height="42" viewBox="0 0 141 42" fill="none" xmlns="http://www.w3.org/2000/svg">
<path d="M126.366 0.625H99.2871C100.865 9.56371 109.54 17.9766 119.005 17.9766H140.563C140.826 17.1879 140.826 15.8734 140.826 15.0847C140.826 7.19758 134.253 0.625 126.366 0.625Z" fill="url(#paint0_linear_295_1386)"/>
<path d="M101.654 19.5541V41.375H114.799V29.8073H126.367C132.677 29.8073 138.198 25.3379 140.038 19.5541H101.654Z" fill="#4FAD50"/>
<path d="M55.3828 0.625V41.1121H66.9506C66.9506 41.1121 69.8425 41.1121 71.4199 38.2202C79.307 22.7089 81.6731 17.9766 81.6731 17.9766H83.2506V41.1121H96.3957V0.625H84.828C84.828 0.625 81.936 0.887919 80.3586 3.51695C73.786 16.925 70.1054 23.7605 70.1054 23.7605H68.528V0.625H55.3828Z" fill="#4FAD50"/>
<path d="M0.173828 41.3749V0.887817H13.319C13.319 0.887817 16.9997 0.887809 19.1029 6.67168C24.361 21.9201 24.8868 24.0233 24.8868 24.0233C24.8868 24.0233 25.9384 20.3426 30.6706 6.67168C32.7738 0.887809 36.4545 0.887817 36.4545 0.887817H49.5997V41.3749H36.4545V19.554H34.8771L27.5158 41.3749H21.7319L14.3707 19.554H12.7932V41.3749H0.173828Z" fill="#4FAD50"/>
<defs>
<linearGradient id="paint0_linear_295_1386" x1="99.2403" y1="9.42517" x2="140.733" y2="9.42517" gradientUnits="userSpaceOnUse">
<stop stop-color="#27B1E6"/>
<stop offset="1" stop-color="#148ACA"/>
</linearGradient>
</defs>
</svg>
