<svg width="54" height="16" viewBox="0 0 54 16" fill="none" xmlns="http://www.w3.org/2000/svg">
<path d="M48.508 0.249023H38.208C38.808 3.64902 42.108 6.84903 45.708 6.84903H53.908C54.008 6.54903 54.008 6.04902 54.008 5.74902C54.008 2.74902 51.508 0.249023 48.508 0.249023Z" fill="url(#paint0_linear_273_540)"/>
<path d="M39.1079 7.44922V15.7492H44.1079V11.3492H48.5079C50.9079 11.3492 53.0079 9.64922 53.7079 7.44922H39.1079Z" fill="#4FAD50"/>
<path d="M21.5078 0.249023V15.649H25.9078C25.9078 15.649 27.0078 15.649 27.6078 14.549C30.6078 8.64903 31.5078 6.84903 31.5078 6.84903H32.1078V15.649H37.1078V0.249023H32.7078C32.7078 0.249023 31.6078 0.34903 31.0078 1.34903C28.5078 6.44903 27.1078 9.04903 27.1078 9.04903H26.5078V0.249023H21.5078Z" fill="#4FAD50"/>
<path d="M0.507812 15.7491V0.349121H5.50781C5.50781 0.349121 6.90782 0.349118 7.70782 2.54912C9.70782 8.34912 9.90784 9.14912 9.90784 9.14912C9.90784 9.14912 10.3078 7.74912 12.1078 2.54912C12.9078 0.349118 14.3078 0.349121 14.3078 0.349121H19.3078V15.7491H14.3078V7.44913H13.7078L10.9078 15.7491H8.70782L5.90784 7.44913H5.30783V15.7491H0.507812Z" fill="#4FAD50"/>
<defs>
<linearGradient id="paint0_linear_273_540" x1="38.1902" y1="3.59633" x2="53.9726" y2="3.59633" gradientUnits="userSpaceOnUse">
<stop stop-color="#27B1E6"/>
<stop offset="1" stop-color="#148ACA"/>
</linearGradient>
</defs>
</svg>
