<svg width="145" height="36" viewBox="0 0 145 36" fill="none" xmlns="http://www.w3.org/2000/svg">
<path d="M55.2449 15.4679C54.8698 18.2814 52.619 18.2814 50.5558 18.2814H49.4304L50.3682 12.8419C50.3682 12.4668 50.7433 12.2792 51.1185 12.2792H51.6812C53.1817 12.2792 54.4947 12.2792 55.2449 13.0295C55.2449 13.7798 55.2449 14.53 55.2449 15.4679ZM54.3071 7.96521H46.2418C45.6791 7.96521 45.3039 8.34034 45.1164 8.90304L41.9277 29.5353C41.9277 29.9105 42.1153 30.2856 42.678 30.2856H46.4293C46.992 30.2856 47.3672 29.9105 47.5547 29.3478L48.4926 23.7208C48.4926 23.1581 49.0553 22.7829 49.618 22.7829H52.2439C57.4957 22.7829 60.4968 20.157 61.4346 15.0927C61.8097 12.8419 61.4346 11.1538 60.4968 9.84087C58.9962 8.71547 56.933 7.96521 54.3071 7.96521Z" fill="#263577"/>
<path d="M72.8764 22.9706C72.5012 25.2213 70.8132 26.7219 68.5624 26.7219C67.437 26.7219 66.4992 26.3467 65.9365 25.5965C65.3738 24.8462 65.1862 23.9084 65.3737 22.9706C65.7489 20.7198 67.437 19.2192 69.6878 19.2192C70.8132 19.2192 71.751 19.5944 72.3137 20.3446C72.6888 20.9073 73.0639 21.8452 72.8764 22.9706ZM78.1283 15.4679H74.3769C74.0018 15.4679 73.8142 15.6555 73.6266 16.0306L73.4391 17.156L73.2515 16.7809C72.5013 15.6555 70.6256 15.0928 68.75 15.0928C64.4359 15.0928 60.8722 18.2814 60.1219 22.783C59.7468 25.0338 60.3094 27.097 61.6224 28.5975C62.7478 29.9105 64.4359 30.4732 66.4991 30.4732C69.8753 30.4732 71.751 28.2224 71.751 28.2224L71.5635 29.3478C71.5635 29.7229 71.751 30.0981 72.3137 30.0981H75.6899C76.2526 30.0981 76.6277 29.7229 76.8153 29.1602L78.8785 16.0306C78.8785 15.843 78.691 15.4679 78.1283 15.4679Z" fill="#263577"/>
<path d="M98.5699 15.4678H94.631C94.2558 15.4678 93.8807 15.6554 93.6931 16.0305L88.4413 23.9083L86.1905 16.4057C86.0029 15.843 85.6278 15.6554 85.0651 15.6554H81.3137C80.9386 15.6554 80.5635 16.0305 80.7511 16.5932L85.0651 28.9726L81.1262 34.5996C80.751 34.9747 81.1262 35.725 81.6889 35.725H85.6278C86.0029 35.725 86.3781 35.5374 86.5656 35.1623L99.3201 16.5932C99.5077 16.0305 99.1326 15.4678 98.5699 15.4678Z" fill="#263577"/>
<path d="M112.263 15.4679C111.887 18.2814 109.637 18.2814 107.573 18.2814H106.448L107.386 12.8419C107.386 12.4668 107.761 12.2792 108.136 12.2792H108.699C110.199 12.2792 111.512 12.2792 112.263 13.0295C112.45 13.7798 112.45 14.53 112.263 15.4679ZM111.325 7.96521H103.259C102.697 7.96521 102.322 8.34034 102.134 8.90304L98.9453 29.5353C98.9453 29.9105 99.1329 30.2856 99.6956 30.2856H103.822C104.197 30.2856 104.572 30.098 104.572 29.5353L105.51 23.7208C105.51 23.1581 106.073 22.7829 106.636 22.7829H109.261C114.513 22.7829 117.514 20.157 118.452 15.0927C118.827 12.8419 118.452 11.1538 117.514 9.84087C116.201 8.71547 114.138 7.96521 111.325 7.96521Z" fill="#2199D6"/>
<path d="M130.083 22.9706C129.708 25.2213 128.02 26.7219 125.769 26.7219C124.644 26.7219 123.706 26.3467 123.143 25.5965C122.581 24.8462 122.393 23.9084 122.581 22.9706C122.956 20.7198 124.644 19.2192 126.895 19.2192C128.02 19.2192 128.958 19.5944 129.521 20.3446C129.896 20.9073 130.271 21.8452 130.083 22.9706ZM135.335 15.4679H131.584C131.209 15.4679 131.021 15.6555 130.834 16.0306L130.646 17.156L130.459 16.7809C129.708 15.6555 127.833 15.0928 125.957 15.0928C121.643 15.0928 118.079 18.2814 117.329 22.783C116.954 25.0338 117.516 27.097 118.829 28.5975C119.955 29.9105 121.643 30.4732 123.706 30.4732C127.082 30.4732 128.958 28.2224 128.958 28.2224L128.77 29.3478C128.77 29.7229 128.958 30.0981 129.521 30.0981H132.897C133.46 30.0981 133.835 29.7229 134.022 29.1602L136.086 16.0306C136.086 15.843 135.71 15.4679 135.335 15.4679Z" fill="#2199D6"/>
<path d="M139.835 8.52791L136.459 29.5353C136.459 29.9105 136.647 30.2856 137.209 30.2856H140.585C141.148 30.2856 141.523 29.9105 141.711 29.3478L144.899 8.71548C144.899 8.34035 144.712 7.96521 144.149 7.96521H140.398C140.21 7.96521 140.023 8.34034 139.835 8.52791Z" fill="#2199D6"/>
<path d="M8.53971 34.2245L9.10238 30.2856H7.78943H1.22461L5.72622 1.58795C5.72622 1.58795 5.7262 1.40039 5.91376 1.40039H6.10134H17.1677C20.7315 1.40039 23.3574 2.15066 24.6704 3.65119C25.2331 4.40145 25.6082 5.15172 25.7958 5.90198C25.9834 6.83981 25.9834 7.77764 25.7958 9.0906V9.84087L26.3585 10.216C26.9212 10.4036 27.2963 10.7787 27.6715 11.1538C28.2342 11.7165 28.6093 12.4668 28.6093 13.4046C28.7969 14.3425 28.7968 15.4679 28.4217 16.7808C28.0466 18.2813 27.6714 19.4067 27.1087 20.5321C26.5461 21.47 25.7958 22.2202 25.0455 22.9705C24.2952 23.5332 23.1698 23.9083 22.232 24.2835C21.1066 24.471 19.9812 24.6586 18.6683 24.6586H17.7304C17.1677 24.6586 16.6051 24.8462 16.0424 25.2213C15.6672 25.5964 15.2921 26.1591 15.1045 26.7218V27.097L13.9791 34.0369V34.2245V34.412C13.9791 34.412 13.9791 34.412 13.7915 34.412H8.53971V34.2245Z" fill="#263577"/>
<path d="M27.1105 9.09064C27.1105 9.2782 27.1105 9.46578 26.9229 9.65334C25.4224 17.156 20.5457 19.5943 14.1684 19.5943H10.9798C10.2295 19.5943 9.47926 20.157 9.47926 20.9073L7.79114 31.411L7.41602 34.4121C7.41602 34.9748 7.79114 35.3499 8.16627 35.3499H13.9808C14.7311 35.3499 15.2938 34.7872 15.2938 34.2245V33.8494L16.4192 27.097V26.7219C16.6068 25.9716 17.1695 25.5965 17.7322 25.5965H18.67C24.297 25.5965 28.611 23.3457 29.7364 16.7809C30.2991 13.9674 29.924 11.7166 28.611 10.216C28.2359 9.84091 27.6732 9.46577 27.1105 9.09064Z" fill="#2199D6"/>
<path d="M25.6092 8.52791C25.4216 8.52791 25.2341 8.34034 24.8589 8.34034C24.6714 8.34034 24.2962 8.15277 24.1087 8.15277C23.1708 7.96521 22.233 7.96521 21.2952 7.96521H12.6671C12.4796 7.96521 12.292 7.96521 12.1044 8.15277C11.7293 8.34034 11.3542 8.71547 11.3542 9.0906L9.47852 20.7197V21.0948C9.66608 20.3446 10.2288 19.7819 10.979 19.7819H14.1677C20.5449 19.7819 25.4216 17.156 26.9221 9.84087C26.9221 9.65331 26.9222 9.46574 27.1097 9.27817C26.7346 9.09061 26.3594 8.90304 25.9843 8.71548C25.7968 8.52791 25.6092 8.52791 25.6092 8.52791Z" fill="#252C5E"/>
<path d="M11.3536 9.09063C11.3536 8.7155 11.7287 8.34036 12.1038 8.1528C12.2914 8.1528 12.479 7.96524 12.6665 7.96524H21.2946C22.2324 7.96524 23.3578 7.96523 24.1081 8.1528C24.2956 8.1528 24.6708 8.1528 24.8583 8.34037C25.0459 8.34037 25.2335 8.52793 25.6086 8.52793C25.7962 8.52793 25.7962 8.52794 25.9837 8.7155C26.3589 8.90307 26.734 9.09063 27.1091 9.2782C27.4843 6.46471 27.1091 4.58904 25.6086 2.90095C23.9205 1.02528 20.9194 0.275024 17.1681 0.275024H6.10172C5.35146 0.275024 4.60119 0.837717 4.60119 1.58798L0.0996094 30.4732C0.0996094 31.0359 0.474742 31.5986 1.03744 31.5986H7.78981L9.47792 20.7197L11.3536 9.09063Z" fill="#263577"/>
</svg>
