<svg width="22" height="22" viewBox="0 0 22 22" fill="none" xmlns="http://www.w3.org/2000/svg">
<path fill-rule="evenodd" clip-rule="evenodd" d="M21.9993 16.4712V19.7831C22.0018 20.4048 21.7416 20.9987 21.2826 21.419C20.8236 21.8393 20.2083 22.047 19.5879 21.991C16.1841 21.6219 12.9145 20.4611 10.0418 18.6019C7.3691 16.9069 5.1032 14.6455 3.4049 11.9781C1.5355 9.0981 0.372066 5.8191 0.00898633 2.4067C-0.0469037 1.7895 0.159716 1.1772 0.578396 0.719469C0.997066 0.261739 1.5892 0.000688593 2.2102 0.000108593H5.5287C6.6391 -0.0108014 7.5856 0.801549 7.741 1.8989C7.8811 2.9588 8.1408 3.9995 8.5153 5.0011C8.8192 5.8079 8.6248 6.7175 8.0175 7.3304L6.6127 8.7324C8.1874 11.4963 10.4803 13.7847 13.2496 15.3562L14.6545 13.9542C15.2686 13.3481 16.18 13.1541 16.9884 13.4574C17.992 13.8312 19.0347 14.0904 20.0967 14.2302C21.209 14.3868 22.0272 15.3505 21.9993 16.4712Z" fill="black"/>
</svg>
