<svg width="64" height="41" viewBox="0 0 64 41" fill="none" xmlns="http://www.w3.org/2000/svg">
<mask id="mask0_202_5097" style="mask-type:luminance" maskUnits="userSpaceOnUse" x="0" y="10" width="49" height="31">
<path d="M48.5086 10H0V40.9487H48.5086V10Z" fill="white"/>
</mask>
<g mask="url(#mask0_202_5097)">
<path d="M10.4065 30.4435C9.67909 33.7433 6.77505 33.7778 6.77505 33.7778H2.8753C1.39563 33.7778 1.21586 34.9594 1.21586 34.9594L0.0735959 39.6111C0.0735959 39.6111 -0.415944 40.9415 1.13012 40.9415H9.4274C17.0277 40.9415 18.4659 34.4138 18.7674 33.5623C19.0246 32.8358 22.2992 15.5599 23.1483 11.0679C23.1788 10.9056 23.4664 10.0035 22.2965 10.0035H15.4291C15.1626 9.98221 14.8976 10.0587 14.6872 10.2177C14.4769 10.3766 14.3368 10.6062 14.2951 10.8604C13.612 14.3677 11.026 27.5908 10.4065 30.4435Z" fill="#DF0D1C"/>
<path d="M25.1697 11.0644L24.2017 16.2031C24.1658 16.3285 24.1622 16.4604 24.1915 16.5874C24.2206 16.7145 24.2817 16.8327 24.3692 16.9319C24.4567 17.031 24.5681 17.1081 24.6936 17.1564C24.8191 17.2047 24.955 17.2227 25.0895 17.2089H36.0613C36.8413 17.2089 36.8771 17.5895 36.4594 18.0339C34.8194 19.7769 30.646 24.37 28.2451 28.6278C25.8916 32.7791 25.1586 35.8341 24.8904 37.2738C24.8129 37.6834 24.6829 38.5563 25.8086 38.5563H33.3093C34.7117 38.5563 34.7834 37.6674 34.8749 37.2925C35.8 33.6229 37.2917 30.1075 39.2999 26.8635C41.9497 22.6616 44.9919 19.2181 46.3085 17.9514C46.719 17.5605 47.0064 17.0661 47.138 16.525L48.1478 11.4024C48.1478 11.4024 48.5654 10 46.9086 10H26.572C25.2665 10 25.1697 11.0644 25.1697 11.0644Z" fill="#DF0D1C"/>
<path d="M26.9955 22.597C25.2835 23.5657 23.9891 25.0134 22.5897 26.3705C22.0365 24.4226 23.1428 21.8466 25.0788 20.532C26.1519 19.8164 27.3952 19.3725 28.6937 19.2414C29.9809 19.083 31.2849 19.1045 32.5659 19.3053C32.9033 19.3585 33.0387 19.4303 32.9143 19.7843C31.5314 23.7174 28.9786 26.469 24.5755 27.3179C24.3862 27.3502 24.195 27.3706 24.0029 27.3791C23.8818 27.3763 23.7609 27.3674 23.6406 27.3525C24.6866 25.728 25.8424 24.1714 27.1006 22.6928C27.1365 22.6449 27.214 22.5731 27.2029 22.5571C27.1283 22.4507 27.0591 22.5225 26.9955 22.5837" fill="#149439"/>
</g>
</svg>
