<svg width="834" height="892" viewBox="0 0 834 892" fill="none" xmlns="http://www.w3.org/2000/svg">
<path d="M730.562 146.014C698.261 112.109 652.185 90.7399 606.726 88.3846C599.376 87.9775 583.546 88.5162 571.6 89.7276C546.49 92.1452 528.468 90.8947 511.352 85.8085C494.562 80.9111 482.93 74.6316 446.511 50.7293C429.188 39.5079 410.183 27.5766 404.391 24.3199C367.538 3.13166 324.632 -4.55051 282.831 2.61629C258.978 6.63148 245.469 11.9099 221.804 26.3215C197.717 41.0121 184.931 52.2876 169.998 72.2633C158.173 88.3662 150.798 104.161 133.217 151.378C125.254 173.024 115.694 195.926 112.107 202.138C107.907 209.565 94.2985 226.644 72.0848 251.832C35.7975 293.394 30.3344 300.44 21.4097 317.259C-2.34158 361.873 -6.13536 414.958 10.9647 465.981C15.7248 480.237 18.186 484.884 32.4647 506.815C51.488 535.932 58.5266 543.221 87.6543 564.047C113.887 582.941 122.51 592.017 135.991 614.272C145.94 630.565 149.741 639.385 171.865 698.017C201.717 777.239 205.425 785.919 218.635 805.925C261.567 871.251 336.865 902.865 412.418 887.372C431.728 883.524 444.769 878.149 465.382 865.551C488.624 851.418 495.158 845.687 536.985 800.872C559.287 777.042 564.412 772.242 577.845 763.17C601.562 747.307 607.892 745.556 670.246 739.182C693.155 736.802 712.047 732.015 729.829 724.321C745.499 717.413 775.988 695.259 787.095 682.665C822.157 642.923 838.97 589.334 832.455 537.796C828.789 509.262 822.405 491.627 799.839 448.26C782.844 415.78 780.992 411.136 776.904 392.996C772.862 375.231 773.424 354.021 779.083 323.983C786.137 285.336 786.625 270.447 781.592 243.827C775.185 210.224 755.125 171.878 730.562 146.014Z" fill="#EAF7F5" fill-opacity="0.53"/>
</svg>
