<svg width="57" height="57" viewBox="0 0 57 57" fill="none" xmlns="http://www.w3.org/2000/svg">
<path d="M44.2736 1.38399C40.1638 2.5768 39.4911 2.79289 39.3353 2.98304C39.122 3.23371 39.0892 3.58809 39.2615 3.8474C39.3271 3.94248 40.0818 4.57345 40.9431 5.26493L42.5017 6.5096L42.3294 6.81212C39.6962 11.4018 36.1279 15.5421 32.3134 18.4204C28.9009 20.9961 25.2013 22.7248 21.3212 23.5373C20.5665 23.7016 19.8939 23.8744 19.8282 23.9349C19.656 24.0819 19.5985 24.5227 19.7052 24.7993C19.8528 25.1796 20.1482 25.2574 21.1161 25.1883C27.9739 24.7215 34.6595 21.7049 40.7872 16.32C42.1654 15.1185 44.5525 12.586 45.7419 11.082L46.7017 9.85464L47.8747 10.7968C48.5228 11.3154 49.138 11.7649 49.2529 11.7908C49.5318 11.8686 49.9583 11.6266 50.024 11.3673C50.0486 11.2635 50.0568 8.74827 50.0404 5.79219L50.0158 0.407274L49.7861 0.199829C49.6384 0.0701771 49.4579 -0.00761414 49.2939 0.00102806C49.1462 0.00967216 46.8904 0.632006 44.2736 1.38399Z" fill="#ECF7F5"/>
<path d="M45.2168 15.8101C45.0528 15.983 45.0528 16.0954 45.0528 28.2568V40.5306H44.1914H43.3301V30.9536V21.3679L43.1414 21.1864C42.9528 20.9962 42.9282 20.9962 39.6059 20.9962H36.2672L36.0703 21.2123L35.8653 21.4198V30.9795V40.5306H35.0449H34.2246V33.659V26.7788L34.0196 26.5713L33.8227 26.3552H30.5086C27.2766 26.3552 27.1863 26.3639 26.9731 26.5367L26.7598 26.7096V33.6244V40.5306H25.8984H25.0371V36.3039V32.0686L24.8238 31.8957C24.6106 31.7229 24.5203 31.7142 21.3785 31.7142C19.1883 31.7142 18.0891 31.7488 17.9578 31.8093C17.843 31.8611 17.7117 31.9994 17.6625 32.1205C17.5969 32.2587 17.5723 33.6071 17.5723 36.4249V40.5306H16.0219C14.5863 40.5306 14.4633 40.5392 14.2582 40.7121C14.0859 40.8504 14.0449 40.9628 14.0449 41.2653C14.0449 41.5678 14.0859 41.6802 14.2582 41.8185L14.4797 42H35.0449H55.6102L55.8317 41.8185C56.0039 41.6802 56.045 41.5678 56.045 41.2653C56.045 40.9628 56.0039 40.8504 55.8317 40.7121C55.6266 40.5392 55.5036 40.5306 54.068 40.5306H52.5176V28.3V16.0608L52.3125 15.8533L52.1157 15.6373H48.7442C45.4875 15.6373 45.3727 15.6459 45.2168 15.8101Z" fill="#ECF7F5"/>
<rect x="9.31738" y="11.957" width="36" height="36" rx="5" transform="rotate(15 9.31738 11.957)" fill="#71DED0" fill-opacity="0.7"/>
</svg>
