<svg width="58" height="45" viewBox="0 0 58 45" fill="none" xmlns="http://www.w3.org/2000/svg">
<path d="M19.1499 10.4339C18.1429 10.6831 17.4057 11.441 14.696 14.9605C11.4776 19.1445 11 19.9335 11 21.034C11 22.0307 11.3841 22.6121 12.7961 23.7438C13.637 24.4082 13.8655 24.5432 13.9693 24.4394C14.4884 23.8683 23.1367 12.4792 23.0847 12.4065C22.9602 12.1989 21.2679 10.953 20.8007 10.7143C20.2193 10.4236 19.5964 10.3197 19.1499 10.4339Z" fill="#ECF7F5"/>
<path d="M48.8424 10.476C48.614 10.559 48.3129 10.6732 48.1675 10.7563C47.8353 10.9328 45.9873 12.324 45.9873 12.3967C45.9873 12.4901 55.0716 24.5645 55.1443 24.5645C55.1754 24.5645 55.6426 24.2218 56.1825 23.7962C58.3939 22.052 58.5392 20.8892 56.8781 18.4183C55.9022 16.9752 52.1023 12.0125 51.5313 11.4519C50.5762 10.4864 49.7352 10.1853 48.8424 10.476Z" fill="#ECF7F5"/>
<path d="M30.258 12.895C29.064 13.03 27.1641 13.1753 26.0428 13.2168L24.008 13.2999L19.4606 19.2073C16.9689 22.4569 14.9029 25.177 14.8717 25.2497C14.8406 25.3223 15.0171 25.613 15.2559 25.8934L15.6919 26.4021L16.2006 26.0595C16.481 25.8726 16.9689 25.665 17.2804 25.6027C19.118 25.2185 21.1425 26.8381 21.3501 28.8626L21.4124 29.4129L22.0457 29.4648C22.8867 29.5375 23.5304 29.8282 24.1948 30.4511C24.8385 31.0429 25.2953 31.9357 25.3888 32.7767L25.4511 33.3581L26.1467 33.41C26.5931 33.4411 27.0084 33.5553 27.351 33.7318C28.7526 34.4378 29.6973 36.182 29.3963 37.5109L29.2924 37.947L29.7804 38.1131C31.5661 38.7152 32.5316 40.8124 31.753 42.3905L31.4831 42.9304L32.324 43.5948C33.3726 44.4254 33.5179 44.498 34.0578 44.498C34.6496 44.498 35.3244 44.0931 35.6463 43.5325C35.937 43.0446 36.0719 42.4424 35.9785 42.1309C35.937 42.0167 35.449 41.5599 34.8988 41.1135C34.3485 40.6774 33.8294 40.2414 33.7671 40.1583C33.466 39.795 33.7464 39.2032 34.2135 39.2032C34.3277 39.2032 35.0026 39.6704 35.7086 40.2518C36.4145 40.8228 37.0894 41.3419 37.2036 41.4042C37.3074 41.4665 37.65 41.4872 37.9511 41.4665C39.4773 41.3419 40.5466 39.7015 40.0171 38.3207C39.8718 37.9158 39.6434 37.6874 38.5325 36.7945C37.8057 36.2131 37.1828 35.6837 37.1413 35.6318C36.9025 35.2995 37.214 34.7389 37.6396 34.7389C37.7435 34.7389 38.6571 35.393 39.6538 36.1924C40.8373 37.1475 41.6056 37.6874 41.8755 37.7601C43.5263 38.2065 45.1666 36.2235 44.4503 34.6143C44.2842 34.2302 43.9831 33.9395 42.7061 32.922C40.7854 31.4062 40.4843 31.1259 40.4843 30.8456C40.4843 30.5653 40.7854 30.2746 41.0761 30.2746C41.1903 30.2746 42.4569 31.209 43.9519 32.4029L46.6201 34.5313H47.1496C48.5512 34.5313 49.6309 33.2854 49.496 31.8423C49.4648 31.5516 49.3714 31.209 49.2779 31.074C48.9872 30.6276 38.0653 21.9482 37.2451 21.5121L36.4872 21.1176L35.3971 21.1695C34.7949 21.2007 33.4453 21.3564 32.3863 21.5121C30.6629 21.7613 30.3826 21.7821 29.6454 21.6782C28.5865 21.5225 27.6625 21.0865 26.9461 20.4116C25.8352 19.3527 25.5341 17.9407 26.2193 16.9648C26.6242 16.3938 27.1122 16.155 28.3165 15.9785C29.0952 15.8539 30.0399 15.5632 32.542 14.6496C34.3174 14.0059 35.937 13.4453 36.155 13.4037C36.3626 13.3622 36.5391 13.2895 36.5391 13.248C36.5391 13.1442 35.584 12.8535 34.8261 12.7289C33.9125 12.5835 32.7081 12.6251 30.258 12.895Z" fill="#ECF7F5"/>
<path d="M44.2225 13.4027C43.3504 13.7661 42.3226 13.9426 39.6544 14.1814C38.3151 14.2956 36.9343 14.4513 36.5917 14.524C36.2491 14.6071 34.5672 15.1781 32.8542 15.8114C30.3521 16.7354 29.5215 16.9949 28.6494 17.1403C27.3932 17.3375 27.1233 17.4725 27.0402 17.9501C26.8948 18.708 27.6112 19.6735 28.6702 20.1511C29.5838 20.5664 30.4144 20.5871 32.5946 20.2653C35.948 19.7669 36.4567 19.7877 37.7234 20.421C38.502 20.8155 38.2321 20.6079 43.9941 25.2175L48.9152 29.1523L49.2371 29.0174C49.9223 28.7474 51.0436 28.1557 51.7495 27.6885C52.7151 27.0552 54.2205 25.6224 54.1582 25.3836C54.0855 25.1033 45.0427 13.1432 44.9077 13.1536C44.8455 13.1639 44.534 13.2781 44.2225 13.4027Z" fill="#ECF7F5"/>
<path d="M15.9005 27.9597C14.3432 29.5793 14.1875 29.818 14.1875 30.5656C14.1875 32.1333 15.7967 33.3583 17.2087 32.86C17.5617 32.7354 19.8873 30.2956 20.043 29.8907C20.1987 29.4754 20.1468 28.593 19.9392 28.1362C19.7004 27.6274 19.0255 27.0253 18.4857 26.8695C18.2677 26.7969 17.8628 26.745 17.5824 26.745H17.0737L15.9005 27.9597Z" fill="#ECF7F5"/>
<path d="M20.9661 30.9189C20.5508 31.168 18.6197 33.2133 18.3809 33.6701C18.1629 34.075 18.1837 35.0198 18.4121 35.4662C18.8793 36.3695 19.6371 36.847 20.6027 36.8574C20.9453 36.8574 21.3087 36.8159 21.4021 36.7536C21.6305 36.6186 23.7485 34.345 23.9872 33.9608C24.2468 33.5559 24.2468 32.6527 23.9872 32.092C23.437 30.9189 21.942 30.3271 20.9661 30.9189Z" fill="#ECF7F5"/>
<path d="M25.1712 34.6776C25.0051 34.7503 24.3095 35.4044 23.645 36.1311C22.721 37.1278 22.3992 37.5535 22.3057 37.8753C21.9631 39.1731 22.9909 40.6266 24.3302 40.7408C25.2542 40.8134 25.5034 40.6681 26.77 39.308C27.4033 38.6332 27.9951 37.948 28.0782 37.7819C28.3273 37.3147 28.2754 36.5256 27.964 35.9027C27.6525 35.2694 27.1957 34.8853 26.5105 34.6776C25.9083 34.5011 25.5761 34.5011 25.1712 34.6776Z" fill="#ECF7F5"/>
<path d="M27.4554 40.2938C26.3653 41.467 26.3445 41.4981 26.4172 41.8719C26.5418 42.5363 26.8636 43.0347 27.3724 43.3669C27.7773 43.6161 27.9745 43.668 28.4936 43.668H29.1269L29.6979 43.0658C30.7361 41.9965 30.8296 41.8407 30.8296 41.2282C30.8296 40.4599 30.3728 39.7851 29.5941 39.3802C29.2827 39.2244 28.9297 39.0999 28.7947 39.0999C28.639 39.0999 28.2237 39.4736 27.4554 40.2938Z" fill="#ECF7F5"/>
<path d="M8.03889 1.35619C8.31459 0.545325 9.07598 0 9.93244 0H25.3344C26.2269 0 27.0114 0.591418 27.2571 1.44949L33.2697 22.4495C33.6356 23.7274 32.6762 25 31.347 25H2.79244C1.42228 25 0.457836 23.6534 0.898894 22.3562L8.03889 1.35619Z" fill="#71DED0" fill-opacity="0.7"/>
</svg>
