<svg width="56" height="51" viewBox="0 0 56 51" fill="none" xmlns="http://www.w3.org/2000/svg">
<path d="M21.8588 0.0899734C21.8008 0.272493 21.4108 3.25918 21.4357 3.29237C21.4523 3.30896 21.8505 3.39192 22.3234 3.47489C26.455 4.22156 30.2547 6.22098 33.258 9.20767C36.2364 12.1778 38.1363 15.6788 39.0323 19.8353C39.1484 20.3497 39.2065 20.4824 39.3227 20.4824C39.5301 20.4824 42.4255 19.9763 42.467 19.9349C42.5333 19.8685 42.2181 18.4083 41.8945 17.2883C40.1108 11.0744 35.9377 5.86424 30.205 2.69503C28.0811 1.51695 25.4926 0.59605 23.0867 0.156343C22.0496 -0.0344715 21.9086 -0.0427685 21.8588 0.0899734Z" fill="#ECF7F5"/>
<path d="M6.0379 4.21434C5.39079 4.47152 4.95108 4.86145 2.8604 6.97702C0.78631 9.076 0.60379 9.3083 0.247047 10.3619C0.0147491 11.0422 -0.0765109 13.0334 0.0728236 14.1036C0.512531 17.1649 2.32114 21.3961 4.77686 25.1378C8.36088 30.5885 13.3138 35.3506 18.7894 38.5861C22.3817 40.71 25.4763 41.9379 28.2473 42.3527C29.3673 42.5186 31.3418 42.4771 31.964 42.2697C33.1255 41.8964 33.3661 41.7139 35.5315 39.5651C36.6681 38.4451 37.7134 37.3417 37.8627 37.1177C38.2693 36.4955 38.4352 35.9313 38.3937 35.2261C38.3439 34.1227 38.261 34.0149 34.8926 30.6299C32.1299 27.859 31.8562 27.6101 31.3169 27.3529C30.8025 27.1123 30.6532 27.0791 30.031 27.0791C29.3922 27.0791 29.2677 27.104 28.745 27.3612C28.239 27.6101 27.9071 27.9004 26.2478 29.5431C24.854 30.9286 24.2816 31.4347 24.1406 31.4347C24.0327 31.4347 23.4851 31.1941 22.921 30.8954C20.7225 29.7422 18.9139 28.365 16.707 26.1665C14.0439 23.52 12.2768 21.2053 11.3227 19.1146C11.1651 18.7579 11.0323 18.3762 11.0323 18.2601C11.0323 18.0941 11.4305 17.6378 12.8907 16.1694C13.9111 15.1406 14.8403 14.1451 14.9565 13.9626C15.504 13.0748 15.5538 12.071 15.0892 11.1086C14.8569 10.6274 14.4836 10.2292 11.8288 7.57436C8.37748 4.13137 8.35259 4.11478 7.13302 4.0733C6.59376 4.065 6.33657 4.09819 6.0379 4.21434Z" fill="#ECF7F5"/>
<path d="M21.2119 10.0781C21.0875 10.9741 21.0128 11.7374 21.046 11.7706C21.0792 11.8038 21.3695 11.8701 21.6765 11.9282C22.838 12.1273 24.3811 12.7578 25.526 13.4879C27.9817 15.0393 29.9148 17.8186 30.454 20.5564C30.5038 20.8385 30.5951 21.0625 30.6449 21.0625C30.7278 21.0625 33.8638 20.5481 33.9053 20.5232C33.9634 20.4983 33.5569 18.9137 33.2997 18.1754C31.7151 13.5294 27.8158 9.95368 23.0454 8.7507C22.6223 8.64285 22.083 8.5267 21.859 8.49352L21.4442 8.44374L21.2119 10.0781Z" fill="#ECF7F5"/>
<rect x="20" y="15" width="36" height="36" rx="5" fill="#71DED0" fill-opacity="0.7"/>
</svg>
