<svg width="54" height="61" viewBox="0 0 54 61" fill="none" xmlns="http://www.w3.org/2000/svg">
<path d="M1.8209 0.14418C1.33078 0.337761 0.7619 0.771019 0.499338 1.17662C-0.0345376 1.99704 0.0004706 0.300888 0.0004706 23.6137C0.0004706 44.8801 0.000470599 44.8894 0.184264 45.3964C0.403065 46.014 0.936941 46.6224 1.53208 46.9266L1.96968 47.157L16.6906 47.1847L31.4116 47.2031L31.9017 47.0095C32.5494 46.7514 33.1795 46.0969 33.4246 45.4056C33.6084 44.8894 33.6084 44.8709 33.6084 29.8268V14.7643L27.7707 14.7274C23.4385 14.7089 21.8369 14.6721 21.6005 14.5891C20.8216 14.3126 20.0252 13.4737 19.7626 12.6533C19.6838 12.4044 19.6488 10.7175 19.6313 6.15445L19.5963 0.00590515L10.8705 0.0151253C3.70259 0.0151253 2.08346 0.042778 1.8209 0.14418ZM28.0071 30.9791V41.3035H25.2064H22.4057V30.9791V20.6547H25.2064H28.0071V30.9791ZM19.6051 33.9289V41.3035H16.8044H14.0038V33.9289V26.5543H16.8044H19.6051V33.9289ZM11.2031 36.8787V41.3035H8.40245H5.60179V36.8787V32.454H8.40245H11.2031V36.8787Z" fill="#ECF7F5"/>
<path d="M22.4062 5.90699V11.8066H28.0251H33.6526L28.0513 5.90699C24.9706 2.66218 22.4413 0.00733566 22.4325 0.00733566C22.415 0.00733566 22.4062 2.66218 22.4062 5.90699Z" fill="#ECF7F5"/>
<path d="M53.9997 39.5722C53.9997 51.4085 44.7145 61.0038 33.2606 61.0038C21.8067 61.0038 12.5215 51.4085 12.5215 39.5722C12.5215 27.7359 21.8067 18.1406 33.2606 18.1406C44.7145 18.1406 53.9997 27.7359 53.9997 39.5722ZM23.0148 39.5722C23.0148 45.4198 27.602 50.1601 33.2606 50.1601C38.9192 50.1601 43.5065 45.4198 43.5065 39.5722C43.5065 33.7246 38.9192 28.9843 33.2606 28.9843C27.602 28.9843 23.0148 33.7246 23.0148 39.5722Z" fill="#71DED0" fill-opacity="0.7"/>
</svg>
