<svg width="64" height="71" viewBox="0 0 64 71" fill="none" xmlns="http://www.w3.org/2000/svg">
<path d="M41.3084 0.245539C40.8285 0.490196 30.0166 9.25078 30.0166 9.38252C30.0166 9.42016 31.3716 10.8034 33.0278 12.4595L36.0389 15.4707L36.2648 15.2355C37.0081 14.4638 44.9783 4.55526 45.1947 4.13181C45.4488 3.65191 45.4582 3.5484 45.43 2.76738C45.3829 1.8264 45.27 1.52528 44.7242 0.92305C44.122 0.264359 43.6515 0.0479323 42.6729 0.0102928C41.8919 -0.0179368 41.7883 -0.00852693 41.3084 0.245539Z" fill="#ECF7F5"/>
<path d="M26.7228 11.9999C25.189 13.2702 24.7938 13.6843 24.4268 14.3806C23.9093 15.378 23.9093 15.3498 24.5868 15.5474C26.1394 16.0085 27.8802 17.2694 28.8024 18.6244C29.2164 19.2361 29.7904 20.4311 29.9316 20.9769C30.0727 21.5133 30.0633 21.5133 30.9573 21.0898C31.5595 20.8075 32.5287 19.8665 33.6297 18.5021L34.373 17.5705L31.1361 14.3335C29.3576 12.5551 27.8802 11.0965 27.852 11.1059C27.8238 11.1059 27.3156 11.5106 26.7228 11.9999Z" fill="#ECF7F5"/>
<path d="M2.77591 11.982C1.73142 12.3113 0.865708 13.0453 0.432854 13.9675C0.291706 14.2498 0.141148 14.7955 0.0940986 15.1625C0.0470493 15.5483 0 19.8769 0 25.0899V34.3398H19.7137H39.4273V25.0053C39.4273 17.1292 39.4085 15.6895 39.2956 15.8024C39.2297 15.8777 38.0441 17.3268 36.6608 19.03C35.0047 21.0625 33.9414 22.2858 33.5273 22.6246C32.7934 23.2362 31.8053 23.7632 30.9208 24.036C30.5632 24.149 30.2339 24.2995 30.1963 24.3748C30.1586 24.4501 30.0551 24.8453 29.9704 25.2499C29.6411 26.7367 28.5119 28.5528 27.3074 29.4938C25.736 30.7265 24.0234 31.2346 21.3604 31.2346C19.7231 31.2346 18.8762 31.3946 18.2081 31.818C17.2012 32.4485 17.0413 32.5049 16.1379 32.5049C15.1217 32.5049 14.6417 32.3167 13.9266 31.6486C12.7127 30.5194 12.5622 28.8915 13.522 27.386C14.0583 26.5485 14.1242 26.2191 14.2089 23.9419C14.303 21.533 14.4347 20.8461 15.0934 19.5193C15.8086 18.089 16.7307 17.1104 18.161 16.2729C18.7915 15.9059 20.2124 15.3978 20.8993 15.2849C21.2098 15.2378 21.2569 15.2002 21.3133 14.8802C21.4169 14.3251 21.8968 13.2523 22.3484 12.556C22.5837 12.2078 22.7719 11.8973 22.7719 11.8879C22.7719 11.8691 18.3586 11.8503 12.9668 11.8597C5.31657 11.8597 3.06762 11.8879 2.77591 11.982Z" fill="#ECF7F5"/>
<path d="M21.1903 17.9741C19.8164 18.2 18.3673 19.2068 17.6616 20.4113C17.1911 21.2299 17.0311 22.0674 16.937 24.2693C16.8335 26.81 16.6359 27.6757 15.9019 28.739C15.5726 29.2095 15.5443 29.4448 15.789 29.6612C16.0337 29.887 16.2313 29.8588 16.7018 29.5389C17.7839 28.7955 18.6026 28.6073 21.1244 28.5038C23.9568 28.3909 24.7942 28.1462 25.8952 27.1111C26.7045 26.3583 27.269 25.295 27.4761 24.1376C27.6078 23.3848 27.589 22.9425 27.429 22.1521C26.8268 19.3009 24.1167 17.4848 21.1903 17.9741Z" fill="#ECF7F5"/>
<path d="M0 37.6046C0.0188197 39.7218 0.72456 41.0486 2.23955 41.792L2.87001 42.1025L8.6759 42.1307L14.4912 42.159V43.7492V45.3489H13.0891C11.8 45.3489 11.6776 45.3677 11.3859 45.5653C10.5296 46.1488 10.5296 47.372 11.3859 47.9554L11.6965 48.1719H19.7419C27.7403 48.1719 27.7873 48.1719 28.1073 47.9743C28.5119 47.7202 28.7377 47.2968 28.7377 46.7604C28.7377 46.224 28.5119 45.8006 28.1073 45.5465C27.8156 45.3677 27.6462 45.3489 26.357 45.3489H24.9361V43.7492V42.159L30.7514 42.1307L36.5573 42.1025L37.1031 41.8861C37.8653 41.5756 38.684 40.7945 39.0698 40.0041C39.3615 39.4207 39.3803 39.3078 39.4179 38.2256L39.4462 37.0682H19.7231H0V37.6046Z" fill="#ECF7F5"/>
<path d="M21.4016 26.3098C21.2872 24.7744 22.8778 23.691 24.2647 24.3597L51.9211 37.6939C53.3079 38.3625 53.4508 40.2817 52.1784 41.1484L26.8024 58.4324C25.5299 59.2991 23.7964 58.4633 23.682 56.928L21.4016 26.3098Z" fill="#71DED0" fill-opacity="0.7"/>
</svg>
