<svg width="49" height="59" viewBox="0 0 49 59" fill="none" xmlns="http://www.w3.org/2000/svg">
<path d="M25.6262 14.0893C25.3479 14.2024 24.8957 14.7677 24.8783 15.0286C24.8348 15.8026 24.9305 15.9766 25.9219 16.9854L26.8438 17.9247L23.2433 21.5251L19.6341 25.1343L17.3729 22.8732C16.1293 21.6382 14.9987 20.5772 14.8682 20.525C14.5552 20.412 14.1029 20.412 13.7898 20.5337C13.6594 20.5772 11.0938 23.0645 8.076 26.0736L2.61438 31.5265L2.67526 30.5699C2.8231 28.1782 3.3884 26.4041 4.59726 24.5951C6.60623 21.5686 9.79798 19.6814 13.5202 19.3075C15.5118 19.1074 17.9121 19.5944 19.7385 20.5598L20.3299 20.8729L21.3039 19.8988L22.2866 18.9161L22.0953 18.7682C21.7214 18.4726 19.808 17.5681 19.0079 17.3072C17.3121 16.7419 16.7033 16.6636 14.4595 16.6636C12.5201 16.6549 12.3635 16.6723 11.3808 16.9071C7.26719 17.8725 4.03197 20.1945 1.93603 23.6646C1.06634 25.1169 0.353199 27.1607 0.10099 28.961C-0.0642498 30.135 -0.0207656 32.3092 0.187959 33.492C1.28376 39.6929 6.19748 44.4239 12.4592 45.311C13.3202 45.4328 15.4683 45.4328 16.3728 45.311C22.0518 44.537 26.7046 40.4669 28.3223 34.8574C28.5832 33.9529 28.8093 32.5006 28.8093 31.7352V31.1786L27.2525 32.7354C25.8263 34.1617 25.6784 34.3443 25.5045 34.8226C24.4609 37.7274 22.304 40.1625 19.5645 41.5366C18.7557 41.9453 17.3729 42.4063 16.4163 42.5715C15.3814 42.7629 13.4507 42.7629 12.4157 42.5715C10.4328 42.2149 8.20645 41.1713 6.82365 39.9451L6.44969 39.6146L10.4589 35.614L14.4595 31.6135L16.6076 33.7529C17.7991 34.9357 18.8601 35.9619 18.9818 36.0402C19.1993 36.1793 19.9298 36.2228 20.2168 36.1098C20.3038 36.075 22.0866 34.3443 24.1739 32.2658C26.2698 30.1872 29.0528 27.4303 30.3486 26.1345L32.7229 23.7863L33.6099 24.6734C34.1057 25.1517 34.5927 25.5953 34.6971 25.6475C34.8014 25.6996 35.071 25.7431 35.3058 25.7431C35.8015 25.7431 36.219 25.517 36.4625 25.1169C36.6278 24.8386 36.6364 24.6647 36.6364 19.8901C36.6364 14.4807 36.6538 14.6894 36.1146 14.2285L35.8363 14.0024L30.827 14.0111C28.0701 14.0111 25.7306 14.0459 25.6262 14.0893Z" fill="#ECF7F5"/>
<path d="M28.2963 40.6838C27.244 42.2145 25.7568 43.7103 24.087 44.8931C23.7044 45.1714 23.3652 45.4236 23.3391 45.441C23.2782 45.5106 36.0191 58.2514 36.3061 58.408C36.6105 58.5645 37.2714 58.5645 37.5758 58.408C37.7063 58.3384 38.7238 57.3644 39.837 56.2425C42.0112 54.0683 42.0808 53.9726 41.9677 53.2334C41.9242 52.9551 41.2111 52.2071 35.4277 46.415C31.862 42.8406 28.9138 39.9185 28.879 39.9185C28.8442 39.9185 28.5833 40.2577 28.2963 40.6838Z" fill="#ECF7F5"/>
<ellipse cx="28" cy="20.5" rx="21" ry="20.5" fill="#71DED0" fill-opacity="0.7"/>
</svg>
