<svg width="50" height="51" viewBox="0 0 50 51" fill="none" xmlns="http://www.w3.org/2000/svg">
<path d="M9.88675 0.0494404C7.36847 0.504967 5.34009 2.37864 4.70407 4.85395C4.36028 6.17756 4.52358 7.95669 5.09943 9.22872C6.57774 12.4604 10.6431 13.8871 13.8146 12.2799L14.4506 11.9533L14.6397 11.2141C15.0007 9.78739 15.7398 8.50676 16.8228 7.44959L17.476 6.80498L17.4502 6.13458C17.3814 4.35545 16.5134 2.60211 15.1296 1.46759C14.4936 0.934708 13.4278 0.384639 12.6629 0.178363C12.0269 0.0150604 10.5056 -0.0536976 9.88675 0.0494404Z" fill="#ECF7F5"/>
<path d="M31.8901 0.0503006C30.386 0.325336 28.8562 1.2192 27.9623 2.35372C27.1544 3.3765 26.5871 4.79465 26.5356 5.92917L26.5098 6.41048L27.0255 6.78006C28.4608 7.82863 29.6383 9.61635 30.0251 11.3181C30.2743 12.4441 30.2055 12.3581 31.0135 12.6331C32.3886 13.0973 34.1506 13.0285 35.5086 12.4526C37.2103 11.7307 38.5941 10.2352 39.1356 8.5334C39.9693 5.92057 39.1785 3.15304 37.133 1.46845C36.497 0.935569 35.4312 0.385499 34.6663 0.179223C34.0302 0.0159216 32.509 -0.0528374 31.8901 0.0503006Z" fill="#ECF7F5"/>
<path d="M20.7016 6.84951C17.4527 7.6832 15.347 10.9149 15.9229 14.1981C16.43 17.1117 18.6388 19.2089 21.5783 19.5699C24.6208 19.9394 27.5345 18.0658 28.4885 15.1349C28.7635 14.2926 28.8581 12.8573 28.7034 11.9462C28.265 9.43655 26.2195 7.32222 23.7184 6.78934C22.8933 6.61745 21.4837 6.64323 20.7016 6.84951Z" fill="#ECF7F5"/>
<path d="M7.35197 13.3808C4.36097 13.6988 1.70516 15.6842 0.579239 18.4517C0.0291698 19.8011 0.0463595 19.655 0.0119801 24.2618C-0.00520953 26.591 -0.00520953 28.4991 0.020575 28.4991C0.0377646 28.4991 0.673782 28.671 1.42153 28.8858C3.84528 29.5734 6.7933 30.1321 8.66698 30.261C9.11391 30.2954 9.55225 30.3384 9.63819 30.3642C9.76712 30.3985 9.78431 30.3126 9.78431 29.3414C9.7929 27.8888 9.91323 26.7285 10.1711 25.7659C10.9704 22.7749 13.248 20.2738 16.1875 19.1737C16.5227 19.0448 16.8063 18.933 16.8235 18.9158C16.8407 18.8986 16.6172 18.6236 16.3336 18.3056C15.3624 17.2227 14.5888 15.5123 14.4513 14.1027C14.3911 13.4753 14.3654 13.4151 14.1677 13.3636C13.8669 13.2776 8.16848 13.2948 7.35197 13.3808Z" fill="#ECF7F5"/>
<path d="M30.2389 13.6043C30.2389 14.1544 29.9295 15.4436 29.6373 16.1398C29.3107 16.9305 28.8294 17.6955 28.2449 18.3831C28.0043 18.6581 27.8238 18.8987 27.841 18.9073C27.8582 18.9245 28.1934 19.062 28.5801 19.2168C31.1414 20.2224 33.1956 22.3195 34.1668 24.8979C34.6395 26.1528 34.7168 26.6599 34.7684 28.6109L34.8114 30.4072L35.731 30.3471C38.49 30.1752 41.2403 29.5735 43.2859 28.6969L43.9993 28.3874L43.9649 24.2104C43.9305 19.6637 43.9477 19.8012 43.3976 18.4518C42.4608 16.1398 40.3722 14.2919 37.9657 13.6301C36.9773 13.3637 35.9115 13.2863 32.9721 13.2863H30.2389V13.6043Z" fill="#ECF7F5"/>
<path d="M17.8727 20.1706C15.3888 20.6949 13.2573 22.3365 12.1486 24.5883C11.3578 26.2042 11.2461 27.0379 11.2461 31.6533V35.1084L12.0884 35.3663C14.5207 36.114 16.678 36.5609 19.4112 36.8961C20.8981 37.068 24.7314 37.0938 26.0722 36.9305C28.8483 36.6039 31.0916 36.0538 32.759 35.2975L33.3434 35.0311L33.309 30.9313C33.2746 26.5222 33.2832 26.5995 32.7933 25.2673C32.037 23.2132 30.0172 21.2364 27.9287 20.4972C26.5965 20.0245 26.1667 19.9901 22.2561 19.9987C19.033 19.9987 18.6033 20.0159 17.8727 20.1706Z" fill="#ECF7F5"/>
<rect x="14" y="15" width="36" height="36" rx="5" fill="#71DED0" fill-opacity="0.7"/>
</svg>
