<svg width="70" height="64" viewBox="0 0 70 64" fill="none" xmlns="http://www.w3.org/2000/svg">
<path d="M47.3157 17.0951C44.5305 17.6371 41.863 19.2906 40.138 21.5503C38.7496 23.3691 37.9165 25.2339 37.4706 27.5396C37.2181 28.8348 37.1929 31.1864 37.4285 32.5367C38.1017 36.4775 40.3652 39.8855 43.5375 41.7595C45.414 42.8618 47.2148 43.3486 49.3774 43.3486C51.9018 43.3394 54.1737 42.5678 56.2606 41.0154C57.203 40.3173 58.5494 38.8659 59.2141 37.8462C60.1818 36.3581 60.9223 34.4658 61.2673 32.601C61.4777 31.4895 61.4693 28.8164 61.2673 27.6865C60.2996 22.4138 56.6645 18.3536 51.8681 17.1962C51.0098 16.9849 48.2077 16.9298 47.3157 17.0951ZM49.7813 23.0201C50.1094 23.1579 50.4376 23.5896 50.5302 24.0122C50.6059 24.3153 50.6648 24.4072 50.791 24.4072C51.0603 24.4072 51.5736 24.7654 51.7419 25.0777C51.9522 25.4544 51.9438 26.0882 51.7335 26.4005C51.3296 26.9884 51.2202 27.0252 49.6971 27.0711C48.923 27.0986 48.2414 27.1538 48.174 27.1997C48.1151 27.2456 48.0142 27.411 47.9469 27.5763C47.8038 27.9529 47.9216 28.4857 48.1909 28.6511C48.3003 28.7246 48.8472 28.7889 49.5541 28.8256C50.4965 28.8624 50.8331 28.9175 51.2118 29.0828C52.1794 29.4962 53.0041 30.6169 53.2145 31.8019C53.3996 32.8491 53.0546 33.9973 52.3141 34.824C51.927 35.2466 51.0519 35.7978 50.7658 35.7978C50.6732 35.7978 50.6059 35.908 50.5638 36.1376C50.4292 36.9552 49.8906 37.4237 49.1922 37.3318C48.6873 37.2675 48.2582 36.8174 48.1909 36.2754C48.1488 35.9447 48.1151 35.8896 47.9384 35.8896C47.6523 35.8896 47.2989 35.6692 47.0381 35.3385C46.5921 34.7506 46.8193 33.786 47.4925 33.4002C47.7365 33.2532 47.9805 33.2257 49.0744 33.2257C50.3198 33.2257 50.3703 33.2165 50.5638 33.0052C50.6732 32.8858 50.791 32.6745 50.8247 32.5459C50.892 32.2428 50.7237 31.7835 50.4881 31.6365C50.3871 31.5722 49.8065 31.5079 49.1333 31.4712C48.1909 31.4344 47.8543 31.3793 47.4756 31.214C46.4911 30.7914 45.6496 29.634 45.4813 28.449C45.2373 26.7771 46.2639 25.041 47.787 24.5449C48.0899 24.4439 48.1236 24.398 48.1825 24.0397C48.3087 23.2313 49.0913 22.7353 49.7813 23.0201Z" fill="#ECF7F5"/>
<path d="M29.7543 21.559C29.3672 21.8254 29.1484 22.2571 29.1484 22.7899C29.1484 23.5983 29.2999 23.7545 31.1175 24.7465C32.5227 25.5273 32.7752 25.6376 33.1622 25.6376C33.8943 25.6468 34.3992 25.1048 34.3992 24.2872C34.4076 23.4146 34.2477 23.2492 32.4218 22.248C30.6547 21.2834 30.3097 21.1916 29.7543 21.559Z" fill="#ECF7F5"/>
<path d="M66.4072 22.1659C65.6078 22.5977 64.8252 23.0845 64.6737 23.2407C64.2025 23.7367 64.1436 24.5176 64.5391 25.133C64.7074 25.381 65.2796 25.6842 65.5993 25.6934C65.7171 25.6934 66.5839 25.28 67.5095 24.7748C69.4449 23.7276 69.5374 23.6357 69.5374 22.7355C69.5374 22.3129 69.4953 22.1659 69.3186 21.9271C69.0157 21.5413 68.696 21.376 68.2416 21.376C67.947 21.376 67.5852 21.5321 66.4072 22.1659Z" fill="#ECF7F5"/>
<path d="M32.7668 34.6862C32.649 34.7321 31.8664 35.1363 31.0249 35.6048C29.2999 36.5509 29.1484 36.7071 29.1484 37.5063C29.1484 38.333 29.6786 38.9209 30.4275 38.9209C30.7641 38.9209 31.0838 38.7831 32.4218 38.0482C34.2477 37.047 34.4076 36.8816 34.3992 36.0089C34.3992 35.4119 34.2057 35.0995 33.6924 34.8056C33.3053 34.5943 33.1202 34.5667 32.7668 34.6862Z" fill="#ECF7F5"/>
<path d="M64.9942 34.805C64.3042 35.1908 64.0685 36.1186 64.4809 36.8351C64.6492 37.129 64.9016 37.3036 66.2816 38.0568C67.8636 38.9203 67.9056 38.9387 68.3937 38.9019C68.8481 38.8652 68.9154 38.8284 69.2099 38.4794C69.5128 38.1303 69.5381 38.0568 69.5381 37.5792C69.5381 36.6789 69.4203 36.5595 67.5943 35.5674C66.7276 35.0898 65.8693 34.6764 65.6926 34.6488C65.457 34.6029 65.2803 34.6488 64.9942 34.805Z" fill="#ECF7F5"/>
<path d="M62.6464 45.9574C61.4936 46.2238 61.4515 46.2606 57.5892 50.4402C55.0395 53.2052 53.8867 54.381 53.5838 54.5555C52.7507 55.0424 52.4057 55.0883 49.511 55.0883C47.1549 55.0883 46.8268 55.0699 46.5659 54.9229C45.7328 54.4728 45.6655 53.196 46.4565 52.6356C46.6585 52.4887 46.9614 52.4611 49.3007 52.4244L51.9092 52.3784L52.3889 52.1212C53.6427 51.4506 54.2149 49.7972 53.7016 48.3182C53.4575 47.6109 52.8264 46.922 52.1785 46.6556C51.6989 46.4535 51.5979 46.4535 46.9614 46.4535C41.6854 46.4535 41.5339 46.4718 40.4232 47.0597C39.3377 47.6477 38.2353 49.0164 37.823 50.3208L37.6631 50.8168L36.687 50.8444L35.7109 50.8719V55.9701V61.0684L45.0765 61.0408L54.4336 61.0132L54.9806 60.802C56.3101 60.2784 56.268 60.3151 61.6114 54.5004C64.3546 51.5149 66.6602 48.9612 66.7275 48.8235C66.8874 48.4836 66.879 47.8406 66.7023 47.4915C66.3657 46.8485 65.3559 46.1595 64.4135 45.9391C63.7319 45.7829 63.3448 45.7829 62.6464 45.9574Z" fill="#ECF7F5"/>
<path d="M27.1283 48.0879C26.9684 48.1706 26.7496 48.3819 26.6486 48.5564L26.4551 48.8687V55.9971C26.4551 62.8222 26.4635 63.1346 26.615 63.3918C26.9852 63.998 26.9936 63.998 29.8041 63.998C32.6146 63.998 32.6651 63.9889 33.0354 63.4285L33.2289 63.1254L33.2542 56.1073C33.271 49.227 33.271 49.0892 33.1027 48.7034C32.9933 48.4646 32.8166 48.2533 32.6062 48.1247C32.2949 47.9318 32.1939 47.9226 29.8546 47.9226C27.7089 47.9226 27.3891 47.941 27.1283 48.0879Z" fill="#ECF7F5"/>
<path d="M45.6054 42.1792C46.0585 43.6506 44.7488 45.0607 43.248 44.7174L13.318 37.8711C11.8171 37.5278 11.2508 35.6885 12.2985 34.5604L33.1926 12.0634C34.2403 10.9353 36.1163 11.3645 36.5695 12.8359L45.6054 42.1792Z" fill="#71DED0" fill-opacity="0.7"/>
</svg>
