<svg width="56" height="56" viewBox="0 0 56 56" fill="none" xmlns="http://www.w3.org/2000/svg">
<path d="M15.7194 0.108921C12.0274 0.537998 8.47503 2.2044 5.81078 4.77885C2.7873 7.70255 1.05104 11.1751 0.542138 15.3062C0.372504 16.6832 0.472289 19.2077 0.751687 20.6047C2.11874 27.5098 7.30755 32.7186 14.3224 34.2453C15.2504 34.4449 15.6496 34.4648 17.7151 34.4648C19.7807 34.4648 20.1798 34.4449 21.1078 34.2453C28.1326 32.7186 33.2915 27.5198 34.6985 20.5449C34.8981 19.557 34.928 19.1179 34.918 17.212C34.918 15.3261 34.8881 14.8671 34.6885 13.969C34.1796 11.5942 33.1219 9.11949 31.8546 7.31339C30.6273 5.57713 28.442 3.54152 26.6259 2.45387C23.4228 0.537998 19.4514 -0.320152 15.7194 0.108921ZM19.0223 2.10462C21.7564 2.37404 24.0315 3.18229 26.2467 4.66909C27.5339 5.52724 29.4199 7.39322 30.278 8.66048C32.9323 12.592 33.6507 17.2919 32.2737 21.8021C31.2958 24.9653 29.2602 27.7693 26.4762 29.765C24.8298 30.9424 22.0059 32.1299 20.7685 32.1598C20.2197 32.1798 20.1598 32.1598 20.0201 31.9004C19.7707 31.4813 20.0201 31.1221 20.6588 30.9524C22.8441 30.3737 24.0315 29.8648 25.4883 28.8968C29.5496 26.1727 31.8546 21.6425 31.6551 16.763C31.5952 15.2263 31.4156 14.2584 30.9266 12.7816C29.37 8.09171 25.3287 4.54935 20.4093 3.58143C18.3238 3.16234 15.7793 3.29206 13.6938 3.90075C10.1913 4.92853 7.03813 7.52294 5.36175 10.7659C2.43805 16.4038 3.60553 23.279 8.20561 27.5398C9.99176 29.1862 12.0473 30.2639 14.6916 30.9325C14.9211 30.9923 15.1806 31.1021 15.2704 31.1919C15.4799 31.4014 15.46 31.8605 15.2205 32.08C14.961 32.3195 14.3324 32.2297 12.9354 31.7707C5.99039 29.4556 1.63977 22.5306 2.59771 15.3361C2.91702 12.9113 3.75521 10.726 5.17216 8.63055C6.02033 7.38324 7.91624 5.50728 9.19348 4.65911C12.187 2.67339 15.6895 1.75537 19.0223 2.10462ZM18.0943 10.0475C18.2041 10.1473 18.693 11.195 19.162 12.3725C19.641 13.5499 20.07 14.5578 20.1099 14.6077C20.1598 14.6476 21.2675 14.7673 22.5846 14.8671C23.9018 14.9669 25.0693 15.0966 25.179 15.1565C25.4185 15.2862 25.5382 15.5856 25.4484 15.855C25.4085 16.0046 22.1555 18.8585 21.6865 19.1678C21.6267 19.2077 21.8362 20.2555 22.1855 21.6525C22.8241 24.2569 22.8341 24.4065 22.3351 24.636C22.0458 24.7658 22.1954 24.8456 19.7507 23.3289C18.703 22.6803 17.785 22.1514 17.7151 22.1514C17.6453 22.1514 16.6773 22.7102 15.5697 23.3987C13.6738 24.5762 13.2547 24.7558 12.9554 24.5662C12.6261 24.3566 12.656 24.0273 13.2547 21.6225C13.594 20.2355 13.8035 19.2077 13.7437 19.1678C13.2547 18.8485 10.0217 15.9947 9.97181 15.845C9.90196 15.6055 10.0915 15.2064 10.3211 15.1166C10.4109 15.0766 11.5484 14.9669 12.8556 14.8771C14.1628 14.7773 15.2704 14.6576 15.3203 14.6077C15.3602 14.5578 15.7893 13.5499 16.2682 12.3725C17.1064 10.287 17.3459 9.87786 17.7151 9.87786C17.8149 9.87786 17.9845 9.95769 18.0943 10.0475ZM18.4535 31.4414C18.9924 31.8605 18.6531 32.529 17.8947 32.529C17.4058 32.529 17.1164 32.3095 17.1164 31.9303C17.1164 31.2917 17.8947 31.0023 18.4535 31.4414Z" fill="#ECF7F5"/>
<path d="M16.9742 13.9796C16.5351 15.0672 16.2058 15.7258 16.0761 15.8156C15.9464 15.9054 15.218 15.9952 14.1004 16.075C13.1225 16.1449 12.3242 16.2247 12.3242 16.2646C12.3242 16.3045 12.9329 16.8434 13.6813 17.472C14.4297 18.1007 15.0783 18.6994 15.1182 18.8091C15.1681 18.9488 15.0483 19.6473 14.7689 20.8048C14.5295 21.7927 14.3399 22.6109 14.3598 22.6209C14.3698 22.6309 15.0783 22.2118 15.9265 21.6829C16.8046 21.1441 17.5729 20.725 17.7126 20.725C17.8523 20.725 18.6206 21.1441 19.4987 21.6829C20.3469 22.2118 21.0554 22.6309 21.0753 22.6209C21.0853 22.601 20.9057 21.7827 20.6662 20.8048C20.3769 19.6473 20.2571 18.9488 20.307 18.8091C20.3469 18.6994 20.9955 18.1007 21.7439 17.472C22.4923 16.8434 23.101 16.3045 23.101 16.2646C23.101 16.2247 22.3027 16.1449 21.3348 16.075C20.2072 15.9952 19.4788 15.9054 19.3491 15.8156C19.2194 15.7258 18.8901 15.0672 18.451 13.9796C18.0718 13.0416 17.7425 12.2732 17.7126 12.2732C17.6827 12.2732 17.3534 13.0416 16.9742 13.9796Z" fill="#ECF7F5"/>
<path d="M2.42504 38.087C1.07794 42.0884 -0.0196891 45.3713 0.000267902 45.3913C0.0202249 45.4112 1.31743 44.5232 2.88405 43.4155C4.44069 42.3179 5.80775 41.4099 5.90753 41.4099C6.33661 41.4099 6.44637 41.6693 7.43424 44.8524C8.55183 48.4347 8.52189 48.3349 8.58176 48.285C8.60172 48.2551 9.59957 45.3613 10.787 41.8589C11.9744 38.3465 12.9723 35.4228 12.9923 35.3629C13.0122 35.2931 12.8326 35.2032 12.5532 35.1334C11.8347 34.9538 9.87897 34.1555 9.0308 33.6965C7.92318 33.0978 6.79562 32.3294 5.83768 31.5411C5.36869 31.152 4.96955 30.8327 4.93962 30.8327C4.90968 30.8327 3.78211 34.0956 2.42504 38.087Z" fill="#ECF7F5"/>
<path d="M29.5958 31.5321C28.6279 32.3304 27.4804 33.1087 26.3927 33.6975C25.5446 34.1565 23.5888 34.9548 22.8703 35.1344C22.581 35.2042 22.4113 35.294 22.4313 35.3639C22.4612 35.4337 23.4591 38.3674 24.6565 41.8998C25.8439 45.4222 26.8517 48.2661 26.9016 48.2261C26.9415 48.1862 27.4205 46.6895 27.9693 44.9033C28.9772 41.6603 29.0869 41.4108 29.516 41.4108C29.6158 41.4108 30.9828 42.3189 32.5395 43.4165C34.1061 44.5241 35.4033 45.4122 35.4233 45.3923C35.4732 45.3424 30.5538 30.8337 30.4839 30.8337C30.454 30.8337 30.0548 31.153 29.5958 31.5321Z" fill="#ECF7F5"/>
<path d="M55.9992 33.4896C55.9992 45.9216 45.6752 55.9997 32.94 55.9997C20.2048 55.9997 9.88086 45.9216 9.88086 33.4896C9.88086 21.0576 20.2048 10.9795 32.94 10.9795C45.6752 10.9795 55.9992 21.0576 55.9992 33.4896ZM19.1261 33.4896C19.1261 40.9372 25.3108 46.9746 32.94 46.9746C40.5692 46.9746 46.7539 40.9372 46.7539 33.4896C46.7539 26.0421 40.5692 20.0046 32.94 20.0046C25.3108 20.0046 19.1261 26.0421 19.1261 33.4896Z" fill="#71DED0" fill-opacity="0.7"/>
</svg>
