<svg width="54" height="61" viewBox="0 0 54 61" fill="none" xmlns="http://www.w3.org/2000/svg">
<path d="M39.9982 0.240053C39.5335 0.476952 29.0645 8.95974 29.0645 9.0873C29.0645 9.12374 30.3765 10.4631 31.9801 12.0667L34.8958 14.9824L35.1145 14.7546C35.8343 14.0075 43.5517 4.41311 43.7613 4.00309C44.0073 3.53841 44.0164 3.43818 43.9891 2.68193C43.9435 1.77078 43.8342 1.47921 43.3057 0.89608C42.7226 0.258276 42.267 0.0487127 41.3194 0.0122662C40.5631 -0.0150681 40.4629 -0.00595665 39.9982 0.240053Z" fill="#5F4FD6"/>
<path d="M25.8746 11.622C24.3894 12.8521 24.0068 13.253 23.6514 13.9272C23.1503 14.893 23.1503 14.8657 23.8063 15.057C25.3097 15.5035 26.9953 16.7244 27.8882 18.0365C28.2891 18.6287 28.8449 19.7859 28.9816 20.3144C29.1183 20.8337 29.1092 20.8337 29.9748 20.4237C30.5579 20.1504 31.4964 19.2392 32.5624 17.918L33.2822 17.016L30.1479 13.8817C28.4258 12.1596 26.9953 10.7473 26.968 10.7564C26.9406 10.7564 26.4486 11.1482 25.8746 11.622Z" fill="#5F4FD6"/>
<path d="M2.68788 11.605C1.67651 11.9239 0.838256 12.6346 0.419128 13.5276C0.282456 13.8009 0.136672 14.3294 0.0911147 14.6847C0.0455574 15.0583 0 19.2496 0 24.2973V33.2539H19.0885H38.1771V24.2153C38.1771 16.589 38.1589 15.195 38.0495 15.3043C37.9857 15.3772 36.8377 16.7804 35.4983 18.4295C33.8947 20.3976 32.8651 21.5821 32.4642 21.9101C31.7535 22.5024 30.7968 23.0126 29.9403 23.2768C29.5941 23.3862 29.2752 23.532 29.2387 23.6049C29.2023 23.6777 29.102 24.0604 29.02 24.4522C28.7011 25.8918 27.6078 27.6503 26.4415 28.5615C24.9199 29.7551 23.2616 30.2471 20.683 30.2471C19.0977 30.2471 18.2776 30.402 17.6307 30.812C16.6558 31.4225 16.5009 31.4772 15.6262 31.4772C14.6421 31.4772 14.1775 31.2949 13.485 30.648C12.3096 29.5546 12.1638 27.9784 13.0932 26.5205C13.6125 25.7096 13.6763 25.3907 13.7583 23.1857C13.8494 20.8532 13.977 20.188 14.6148 18.9033C15.3073 17.5184 16.2002 16.5708 17.5851 15.7599C18.1956 15.4045 19.5714 14.9125 20.2366 14.8032C20.5373 14.7576 20.5828 14.7212 20.6375 14.4114C20.7377 13.8738 21.2024 12.8351 21.6398 12.1608C21.8675 11.8237 22.0498 11.523 22.0498 11.5139C22.0498 11.4957 17.7765 11.4775 12.5556 11.4866C5.14798 11.4866 2.97034 11.5139 2.68788 11.605Z" fill="#5F4FD6"/>
<path d="M20.5197 17.406C19.1894 17.6247 17.7863 18.5997 17.1029 19.7659C16.6473 20.5586 16.4924 21.3695 16.4013 23.5016C16.3011 25.9617 16.1098 26.8 15.3991 27.8296C15.0802 28.2852 15.0528 28.5129 15.2897 28.7225C15.5266 28.9412 15.718 28.9138 16.1735 28.6041C17.2214 27.8842 18.0141 27.702 20.4559 27.6018C23.1985 27.4925 24.0094 27.2556 25.0755 26.2533C25.859 25.5244 26.4057 24.4948 26.6062 23.3741C26.7337 22.6451 26.7155 22.2169 26.5606 21.4515C25.9775 18.6908 23.3534 16.9323 20.5197 17.406Z" fill="#5F4FD6"/>
<path d="M0 36.4143C0.018223 38.4644 0.701584 39.7491 2.16853 40.4689L2.779 40.7696L8.40078 40.7969L14.0317 40.8243V42.3641V43.913H12.6741C11.4258 43.913 11.3073 43.9313 11.0249 44.1226C10.1957 44.6875 10.1957 45.872 11.0249 46.4369L11.3256 46.6465H19.1159C26.8606 46.6465 26.9062 46.6465 27.216 46.4551C27.6078 46.2091 27.8265 45.7991 27.8265 45.2798C27.8265 44.7604 27.6078 44.3504 27.216 44.1044C26.9335 43.9313 26.7695 43.913 25.5212 43.913H24.1454V42.3641V40.8243L29.7763 40.7969L35.3981 40.7696L35.9266 40.56C36.6646 40.2593 37.4573 39.5031 37.8309 38.7377C38.1133 38.1728 38.1315 38.0635 38.168 37.0157L38.1953 35.8949H19.0977H0V36.4143Z" fill="#5F4FD6"/>
<path d="M53.9997 39.5683C53.9997 51.4046 44.7145 60.9999 33.2606 60.9999C21.8067 60.9999 12.5215 51.4046 12.5215 39.5683C12.5215 27.732 21.8067 18.1367 33.2606 18.1367C44.7145 18.1367 53.9997 27.732 53.9997 39.5683ZM23.0148 39.5683C23.0148 45.4159 27.602 50.1562 33.2606 50.1562C38.9192 50.1562 43.5065 45.4159 43.5065 39.5683C43.5065 33.7207 38.9192 28.9804 33.2606 28.9804C27.602 28.9804 23.0148 33.7207 23.0148 39.5683Z" fill="#71DED0" fill-opacity="0.7"/>
</svg>
