<svg width="60" height="59" viewBox="0 0 60 59" fill="none" xmlns="http://www.w3.org/2000/svg">
<path d="M14.7305 0.168945C14.5986 0.256836 14.4053 0.450195 14.3174 0.582031C14.1592 0.828125 14.1504 1.13574 14.1504 8.35156C14.1504 15.5674 14.1592 15.875 14.3174 16.1211C14.4053 16.2529 14.5986 16.4463 14.7305 16.5342C14.9766 16.6924 15.2842 16.7012 22.5 16.7012C29.7158 16.7012 30.0234 16.6924 30.2695 16.5342C30.4014 16.4463 30.5947 16.2529 30.6826 16.1211C30.8408 15.875 30.8496 15.5674 30.8496 8.35156C30.8496 1.13574 30.8408 0.828125 30.6826 0.582031C30.5947 0.450195 30.4014 0.256836 30.2695 0.168945C30.0234 0.0107422 29.7158 0.00195312 22.5 0.00195312C15.2842 0.00195312 14.9766 0.0107422 14.7305 0.168945Z" fill="#5F4FD6"/>
<path d="M21.1816 21.1396V22.9414H13.6494C6.40723 22.9414 6.09961 22.9502 5.85352 23.1084C5.27344 23.4951 5.27344 23.4951 5.27344 26.4746V29.1816H6.5918H7.91016V27.3799V25.5781H14.5459H21.1816V27.3799V29.1816H22.5H23.8184V27.3799V25.5781H30.4541H37.0898V27.3799V29.1816H38.4082H39.7266V26.4746C39.7266 23.4951 39.7266 23.4951 39.1465 23.1084C38.9004 22.9502 38.5928 22.9414 31.3594 22.9414H23.8184V21.1396V19.3379H22.5H21.1816V21.1396Z" fill="#5F4FD6"/>
<path d="M0.580078 31.9854C0.448242 32.0732 0.254883 32.2666 0.166992 32.3984C0.00878906 32.6445 0 32.917 0 38.4102C0 43.9033 0.00878906 44.1758 0.166992 44.4219C0.254883 44.5537 0.448242 44.7471 0.580078 44.835C0.826172 44.9932 1.09863 45.002 6.5918 45.002C12.085 45.002 12.3574 44.9932 12.6035 44.835C12.7354 44.7471 12.9287 44.5537 13.0166 44.4219C13.1748 44.1758 13.1836 43.9033 13.1836 38.4102C13.1836 32.917 13.1748 32.6445 13.0166 32.3984C12.9287 32.2666 12.7354 32.0732 12.6035 31.9854C12.3574 31.8271 12.085 31.8184 6.5918 31.8184C1.09863 31.8184 0.826172 31.8271 0.580078 31.9854Z" fill="#5F4FD6"/>
<path d="M16.4883 31.9854C16.3564 32.0732 16.1631 32.2666 16.0752 32.3984C15.917 32.6445 15.9082 32.917 15.9082 38.4102C15.9082 43.9033 15.917 44.1758 16.0752 44.4219C16.1631 44.5537 16.3564 44.7471 16.4883 44.835C16.7344 44.9932 17.0068 45.002 22.5 45.002C27.9932 45.002 28.2656 44.9932 28.5117 44.835C28.6436 44.7471 28.8369 44.5537 28.9248 44.4219C29.083 44.1758 29.0918 43.9033 29.0918 38.4102C29.0918 32.917 29.083 32.6445 28.9248 32.3984C28.8369 32.2666 28.6436 32.0732 28.5117 31.9854C28.2656 31.8271 27.9932 31.8184 22.5 31.8184C17.0068 31.8184 16.7344 31.8271 16.4883 31.9854Z" fill="#5F4FD6"/>
<path d="M32.3965 31.9854C32.2646 32.0732 32.0713 32.2666 31.9834 32.3984C31.8252 32.6445 31.8164 32.917 31.8164 38.4102C31.8164 43.9033 31.8252 44.1758 31.9834 44.4219C32.0713 44.5537 32.2646 44.7471 32.3965 44.835C32.6426 44.9932 32.915 45.002 38.4082 45.002C43.9014 45.002 44.1738 44.9932 44.4199 44.835C44.5518 44.7471 44.7451 44.5537 44.833 44.4219C44.9912 44.1758 45 43.9033 45 38.4102C45 32.917 44.9912 32.6445 44.833 32.3984C44.7451 32.2666 44.5518 32.0732 44.4199 31.9854C44.1738 31.8271 43.9014 31.8184 38.4082 31.8184C32.915 31.8184 32.6426 31.8271 32.3965 31.9854Z" fill="#5F4FD6"/>
<rect x="34" y="7.54688" width="36" height="36" rx="5" transform="rotate(45 34 7.54688)" fill="#71DED0" fill-opacity="0.7"/>
</svg>
