<svg width="56" height="51" viewBox="0 0 56 51" fill="none" xmlns="http://www.w3.org/2000/svg">
<path d="M19.7768 0.134605C17.1751 0.486195 15.0567 1.12784 12.7011 2.28808C10.2664 3.48348 8.59632 4.67009 6.67138 6.59503C5.31776 7.93106 4.79038 8.56392 3.84989 9.93512C1.85463 12.8533 0.57133 16.2549 0.131845 19.7796C-0.0439485 21.1947 -0.0439485 23.814 0.131845 25.2292C0.641648 29.334 2.24137 33.1223 4.90465 36.5239C6.16158 38.1324 8.69301 40.3826 10.6355 41.6132C12.121 42.5537 14.6436 43.6787 16.4807 44.1973C19.8032 45.1554 23.8992 45.2785 27.3887 44.5226C34.7369 42.9316 40.96 37.5084 43.632 30.3712C44.5286 27.9628 44.9153 25.906 44.9769 23.1636C45.056 19.9817 44.722 17.8458 43.7111 14.9892C43.342 13.9344 42.4542 12.0271 42.3575 12.0622C42.3136 12.0798 40.9424 13.4246 39.3075 15.0595L36.3278 18.0304L36.5739 18.9709C36.9079 20.2806 37.0046 21.0804 37.0046 22.5747C36.9958 26.4158 35.5192 29.9492 32.7768 32.6916C30.5706 34.9066 27.8721 36.269 24.699 36.7964C23.741 36.9546 21.4381 36.9546 20.48 36.7964C15.8214 36.0317 11.9276 33.2542 9.8093 29.1845C8.67543 27.0047 8.17442 24.9743 8.17442 22.5044C8.17442 20.0345 8.67543 18.0041 9.8093 15.8242C11.7079 12.1765 15.1359 9.48684 19.144 8.49361C20.5591 8.14202 21.3677 8.06291 23.029 8.11565C24.5408 8.1596 25.5341 8.30902 26.6416 8.65182L27.0459 8.77488L30.0256 5.79517C31.6693 4.1515 33.0141 2.7803 33.0317 2.74514C33.0668 2.63088 31.0452 1.69917 29.8234 1.26848C28.5313 0.811413 27.3623 0.503773 25.9735 0.248871C24.6903 0.0115509 21.1568 -0.0499763 19.7768 0.134605Z" fill="#5F4FD6"/>
<path d="M42.7443 0.344401C42.5158 0.528985 41.8214 1.197 41.2061 1.81228L40.0898 2.94615L40.2393 3.78117L40.3887 4.61619L41.2061 4.73925L42.0236 4.87109L43.386 3.50869C44.1419 2.76157 44.8099 2.0496 44.8802 1.91776C45.056 1.57496 45.0384 0.977259 44.8275 0.634461C44.5726 0.221345 44.1683 0.00160313 43.6233 0.00160313C43.2278 0.00160313 43.1223 0.0455518 42.7443 0.344401Z" fill="#5F4FD6"/>
<path d="M33.0755 6.34912L29.4453 9.97926L29.7266 11.579C29.876 12.4667 30.0254 13.1875 30.0518 13.1875C30.087 13.1875 31.8801 11.412 34.0511 9.24093L37.9977 5.29435L37.8483 4.33628C37.7692 3.81769 37.6549 3.28152 37.6109 3.15846C37.5143 2.91235 37.2066 2.72776 36.8902 2.72776C36.7583 2.72776 35.6333 3.80011 33.0755 6.34912Z" fill="#5F4FD6"/>
<path d="M35.8178 11.0778C33.6467 13.2489 31.8888 15.0419 31.9064 15.0595C31.9327 15.0859 32.6623 15.2177 33.5325 15.376L35.1146 15.6484L38.7008 12.0622C40.6697 10.0934 42.3046 8.39694 42.331 8.28267C42.4101 7.99261 42.2079 7.58829 41.9442 7.4916C41.7157 7.4037 40.1511 7.12243 39.8962 7.12243C39.8259 7.12243 37.9976 8.89795 35.8178 11.0778Z" fill="#5F4FD6"/>
<path d="M20.6101 10.7698C17.5601 11.3323 15.055 12.8266 13.2267 15.1646C12.1544 16.5446 11.46 17.9686 11.0029 19.7792C10.7832 20.6318 10.7656 20.8428 10.7656 22.504C10.7656 24.1653 10.7832 24.3762 11.0029 25.2288C11.46 27.0395 12.1544 28.4634 13.2267 29.8434C14.8968 31.9793 17.0942 33.3857 19.863 34.0889C20.7156 34.3086 20.9265 34.3262 22.5878 34.3262C24.249 34.3262 24.46 34.3086 25.3126 34.0889C28.6702 33.2362 31.272 31.2849 32.9508 28.358C33.9177 26.6616 34.3572 25.053 34.4275 22.9787C34.4802 21.3086 34.3484 20.3418 33.8737 18.8827L33.5573 17.951L33.0651 17.8631C32.7838 17.8191 31.9048 17.6609 31.0874 17.5291L29.6195 17.2742L28.8197 18.074L28.0286 18.8739L28.3362 19.4364C28.5032 19.7441 28.7493 20.3681 28.8812 20.8252C29.0921 21.5811 29.1097 21.7393 29.0658 22.7589C29.0306 23.6291 28.9779 23.9983 28.8021 24.4993C28.0901 26.5561 26.5431 28.0767 24.4863 28.7623C23.9502 28.9381 23.6865 28.9645 22.5878 28.9645C21.4891 28.9645 21.2254 28.9381 20.6892 28.7623C18.606 28.0679 17.0239 26.4858 16.3295 24.4026C16.1537 23.8664 16.1273 23.6027 16.1273 22.504C16.1273 21.4053 16.1537 21.1416 16.3295 20.6055C17.0151 18.5487 18.5357 17.0017 20.5925 16.2897C21.0935 16.1139 21.4627 16.0612 22.3329 16.026C23.3525 15.9821 23.5107 15.9997 24.2666 16.2106C24.7237 16.3425 25.3477 16.5886 25.6554 16.7556L26.2179 17.0632L27.0178 16.2721L27.8176 15.4723L27.5627 14.0044C27.4309 13.187 27.2727 12.308 27.2287 12.0267L27.1408 11.5345L26.2091 11.2269C25.6905 11.0511 24.917 10.8489 24.4775 10.7786C23.5195 10.6116 21.4891 10.6028 20.6101 10.7698Z" fill="#5F4FD6"/>
<path d="M21.298 18.7241C19.6368 19.3305 18.6348 20.7545 18.6348 22.5036C18.6348 24.7802 20.3136 26.459 22.5901 26.459C24.392 26.459 25.8511 25.3954 26.4136 23.6639C26.607 23.0574 26.5631 21.6774 26.3257 21.1149L26.1675 20.7281L24.7963 22.0905C24.0404 22.8376 23.3285 23.5144 23.2054 23.5935C22.9153 23.7869 22.2561 23.7781 21.9397 23.5672C21.8078 23.4793 21.6145 23.2859 21.5266 23.1541C21.3156 22.8376 21.3068 22.1784 21.5002 21.8883C21.5793 21.7653 22.2561 21.0533 23.0032 20.2974L24.3656 18.9262L23.9789 18.768C23.4076 18.5219 21.9045 18.4955 21.298 18.7241Z" fill="#5F4FD6"/>
<rect x="20" y="15.0078" width="36" height="36" rx="5" fill="#71DED0" fill-opacity="0.7"/>
</svg>
