<svg width="67" height="65" viewBox="0 0 67 65" fill="none" xmlns="http://www.w3.org/2000/svg">
<path d="M23.8705 0.102837C23.7299 0.164376 23.5013 0.33141 23.3694 0.472072C23.0617 0.814932 20.9079 4.55124 20.9518 4.67432C20.9958 4.77102 25.4969 7.39962 25.5409 7.34687C25.6024 7.26775 27.6156 3.74244 27.7739 3.43474C28.1343 2.72265 27.9673 1.83472 27.3695 1.28966C27.2376 1.15779 26.7277 0.823724 26.2442 0.542402C25.4354 0.0764627 25.3123 0.032506 24.7497 0.00613213C24.3541 -0.0114503 24.0376 0.023715 23.8705 0.102837Z" fill="#5F4FD6"/>
<path d="M14.2611 16.1028C11.3512 21.149 8.96875 25.2985 8.96875 25.3336C8.96875 25.36 10.3578 25.3776 12.0633 25.3688L15.149 25.3424L19.6678 17.527C22.1469 13.2192 24.1777 9.65874 24.1777 9.60599C24.1777 9.52687 19.7733 6.92465 19.6238 6.92465C19.5886 6.92465 17.1798 11.0566 14.2611 16.1028Z" fill="#5F4FD6"/>
<path d="M12.5991 10.5722C12.0365 10.7392 11.8079 10.8975 9.33753 12.7612C6.98146 14.5283 6.28695 15.1788 5.59243 16.2426C5.00342 17.1217 0.264901 25.7108 0.115449 26.1504C-0.0955421 26.7658 -0.00762904 27.9438 0.300067 28.5328C0.748423 29.4207 1.59239 30.0449 2.33086 30.0449C2.80559 30.0449 3.35944 29.7724 3.62318 29.4207C4.07154 28.8141 14.5156 10.6073 14.4629 10.5282C14.3837 10.4051 13.0299 10.4315 12.5991 10.5722Z" fill="#5F4FD6"/>
<path d="M21.6018 19.2141C19.6853 22.5372 18.1116 25.2889 18.1116 25.324C18.1116 25.3592 18.6743 25.3856 19.3688 25.3856C20.4413 25.3856 20.6523 25.4119 20.8721 25.5526C21.6721 26.0801 21.6457 27.2845 20.8193 27.7328C20.5468 27.8823 20.0897 27.8911 14.5072 27.935L8.48514 27.979L8.07195 28.1812C7.14887 28.6384 6.53347 29.4296 6.33127 30.423C6.04116 31.856 6.86754 33.3769 8.24778 33.9307L8.74888 34.1329L14.727 34.1769L20.7051 34.2208L21.76 34.7571C26.2963 37.0692 31.6063 37.3945 36.4239 35.6538L36.925 35.4692V26.8713V18.2646H35.9404H34.9558L30.0502 15.7151C27.3601 14.3085 25.1359 13.1657 25.1183 13.1657C25.1095 13.1657 23.5183 15.891 21.6018 19.2141Z" fill="#5F4FD6"/>
<path d="M40.5652 15.6185C40.2135 15.7064 39.9322 15.9086 39.73 16.2163C39.5718 16.4537 39.563 16.8844 39.563 26.5988C39.563 37.7286 39.5278 36.9726 40.0729 37.3858C40.2926 37.544 40.4685 37.5616 42.174 37.588C44.2751 37.6143 44.5037 37.5704 44.8377 37.0341C45.0136 36.7528 45.0136 36.6209 45.0136 26.6164C45.0136 15.302 45.0663 16.1899 44.3982 15.7767C44.1169 15.6009 43.9674 15.5833 42.4641 15.5657C41.5674 15.5569 40.7146 15.5833 40.5652 15.6185Z" fill="#5F4FD6"/>
<path d="M3.49084 34.7485L2.76116 36.0233L2.06665 38.9332C1.43367 41.6057 1.38972 41.8695 1.48642 42.186C1.62708 42.6431 2.00511 42.8805 2.57654 42.8805C3.06007 42.8805 2.74358 43.1354 5.67108 40.3838C7.27989 38.8717 7.36781 38.7749 7.97441 37.7464L8.61617 36.6826L8.19419 36.5683C7.56122 36.3925 6.72604 36.0321 6.26889 35.7332C5.67108 35.3463 4.87987 34.52 4.56338 33.9573C4.41393 33.6936 4.28206 33.4738 4.26448 33.4738C4.24689 33.4738 3.90403 34.0452 3.49084 34.7485Z" fill="#5F4FD6"/>
<path d="M10.6125 38.2473L9.74219 39.7594L10.0763 40.0407C10.5686 40.4715 11.2631 40.7001 12.0455 40.7001C13.3818 40.7001 14.4016 40.0144 14.9027 38.7836L15.0961 38.3176L15.2983 38.8187C15.5884 39.522 16.3269 40.2429 17.0126 40.4979C18.2961 40.9902 19.8434 40.5858 20.617 39.5748C20.9951 39.0825 21.2676 38.3352 21.2764 37.8165V37.3594L20.6082 37.0429L19.9401 36.7264H15.7027L11.4741 36.7352L10.6125 38.2473Z" fill="#5F4FD6"/>
<path d="M27.2344 18.9047C27.3431 17.369 29.0735 16.5268 30.3492 17.3888L55.7887 34.5792C57.0644 35.4412 56.9285 37.3609 55.5441 38.0346L27.9371 51.4707C26.5527 52.1444 24.9582 51.0669 25.0668 49.5312L27.2344 18.9047Z" fill="#71DED0" fill-opacity="0.7"/>
</svg>
