<svg width="1859" height="584" viewBox="0 0 1859 584" fill="none" xmlns="http://www.w3.org/2000/svg">
<path d="M70.8326 258.498H13.8128V2.94918H70.8326V105.24H184.673V2.94918H241.693V258.498H184.673C184.673 258.498 210.021 186.484 184.673 156.386C155.509 121.756 70.8326 156.386 70.8326 156.386V258.498Z" fill="url(#paint0_linear_150_49)"/>
<path d="M489.64 153.881V102.736C489.64 95.7263 488.117 89.1326 485.07 82.9548C482.156 76.6581 478.117 71.1931 472.951 66.5597C467.786 61.9263 461.693 58.3028 454.673 55.6891C447.786 52.9566 440.435 51.5903 432.62 51.5903C424.806 51.5903 417.388 52.9566 410.369 55.6891C403.481 58.3028 397.455 61.9263 392.289 66.5597C387.124 71.1931 383.018 76.6581 379.971 82.9548C377.057 89.1326 375.6 95.7263 375.6 102.736V153.881H489.64ZM546.659 255.994H489.64V204.849H375.6V255.994H318.779V102.736C318.779 88.598 321.76 75.3513 327.72 62.9956C333.68 50.5211 341.759 39.6504 351.958 30.3836C362.289 21.1169 374.342 13.8104 388.117 8.46415C402.024 3.11793 416.859 0.444824 432.62 0.444824C448.382 0.444824 463.15 3.11793 476.925 8.46415C490.832 13.8104 502.951 21.1169 513.282 30.3836C523.613 39.6504 531.759 50.5211 537.719 62.9956C543.679 75.3513 546.659 88.598 546.659 102.736V255.994Z" fill="url(#paint1_linear_150_49)"/>
<path d="M824.505 258.498H625.035V2.94914H682.055L710.565 196.732L824.505 207.353V258.498Z" fill="url(#paint2_linear_150_49)"/>
<path d="M954.815 276.747H897.994V196.732C885.411 193.881 863.226 183.01 863.226 183.01C863.226 183.01 843.756 169.229 836.206 160.556C828.656 151.764 822.762 142.082 818.524 131.508C814.418 120.816 812.365 109.588 812.365 97.8268L797.022 7.74429H869.385C869.385 7.74429 889.68 89.3877 886.073 91.5001C882.466 93.6126 886.073 102.475 886.073 111.695C886.073 120.915 875.255 145.052 903.919 148.972C932.583 152.893 921.041 151.987 927.928 154.72C934.948 157.334 953.697 154.72 948.457 154.72C943.217 154.72 952.066 158.724 966.735 141.813C981.404 124.901 973.689 132.309 978.854 127.676C984.02 123.042 984.603 117.873 987.517 111.695C990.564 105.398 987.517 102.109 987.517 95.0997L978.854 7.74429C978.854 7.74429 981.325 7.74434 1025.94 7.74432C1070.56 7.74429 1056.07 97.8268 1056.07 97.8268C1056.07 97.8268 1060.31 134.359 1056.07 145.052C1051.97 155.625 1063.3 177 1039.46 177C1031.91 185.673 1036.4 176.713 1025.94 183.01C1015.48 189.307 967.397 193.881 954.815 196.732V276.747Z" fill="url(#paint3_linear_150_49)"/>
<path d="M1289.52 266.943H1117.19V11.3939L1273.7 8.88964V107.357L1510.92 105.24L1852.64 0.444826L1637.28 160.556L1852.64 266.943L1484.7 255.994L1480.33 162.326H1289.52V266.943Z" fill="url(#paint4_linear_150_49)"/>
<path d="M170.86 476.363V425.217C170.86 418.208 169.337 411.614 166.291 405.436C163.377 399.14 159.337 393.675 154.172 389.041C149.006 384.408 142.913 380.784 135.894 378.171C129.006 375.438 121.655 374.072 113.841 374.072C106.026 374.072 98.6089 375.438 91.5891 378.171C84.7017 380.784 78.6752 384.408 73.5097 389.041C68.3441 393.675 64.2382 399.14 61.1918 405.436C58.2779 411.614 56.821 418.208 56.821 425.217V476.363H170.86ZM227.88 578.476H170.86V527.33H56.821V578.476H0V425.217C0 411.08 2.98012 397.833 8.94036 385.477C14.9006 373.003 22.98 362.132 33.1787 352.865C43.5098 343.598 55.5627 336.292 69.3375 330.946C83.2447 325.6 98.0791 322.926 113.841 322.926C129.602 322.926 144.37 325.6 158.145 330.946C172.052 336.292 184.172 343.598 194.503 352.865C204.834 362.132 212.979 373.003 218.94 385.477C224.9 397.833 227.88 411.08 227.88 425.217V578.476Z" fill="url(#paint5_linear_150_49)"/>
<path d="M504.833 552.279C491.588 562.496 476.753 570.337 460.329 575.802C443.906 581.268 426.886 584 409.27 584C395.76 584 382.714 582.396 370.131 579.188C357.681 576.099 345.959 571.704 334.966 566.001C324.105 560.18 314.171 553.23 305.164 545.151C296.158 537.072 288.41 528.162 281.92 518.42C275.562 508.559 270.595 498.045 267.019 486.877C263.575 475.591 261.853 463.888 261.853 451.77C261.853 439.652 263.575 427.95 267.019 416.663C270.595 405.377 275.562 394.863 281.92 385.121C288.41 375.26 296.158 366.29 305.164 358.211C314.171 350.133 324.105 343.242 334.966 337.539C345.959 331.718 357.681 327.263 370.131 324.174C382.714 320.966 395.76 319.362 409.27 319.362C426.886 319.362 443.906 322.095 460.329 327.56C476.753 332.906 491.588 340.747 504.833 351.083L474.634 395.635C466.29 387.556 456.422 381.378 445.032 377.101C433.641 372.706 421.72 370.508 409.27 370.508C396.687 370.508 384.899 372.646 373.906 376.923C362.913 381.2 353.31 387.022 345.098 394.387C336.886 401.635 330.396 410.248 325.628 420.228C320.86 430.088 318.476 440.603 318.476 451.77C318.476 462.938 320.86 473.452 325.628 483.313C330.396 493.055 336.886 501.609 345.098 508.975C353.31 516.341 362.913 522.162 373.906 526.439C384.899 530.716 396.687 532.854 409.27 532.854C421.72 532.854 433.641 530.716 445.032 526.439C456.422 522.043 466.29 515.806 474.634 507.727L504.833 552.279Z" fill="url(#paint6_linear_150_49)"/>
<path d="M705.693 476.363V425.217C705.693 418.208 704.17 411.614 701.123 405.436C698.209 399.14 694.17 393.675 689.004 389.041C683.839 384.408 677.746 380.784 670.726 378.171C663.839 375.438 656.488 374.072 648.673 374.072C640.859 374.072 633.441 375.438 626.422 378.171C619.534 380.784 613.508 384.408 608.342 389.041C603.177 393.675 599.071 399.14 596.024 405.436C593.11 411.614 591.653 418.208 591.653 425.217V476.363H705.693ZM762.713 578.476H705.693V527.33H591.653V578.476H534.832V425.217C534.832 411.08 537.813 397.833 543.773 385.477C549.733 373.003 557.813 362.132 568.011 352.865C578.342 343.598 590.395 336.292 604.17 330.946C618.077 325.6 632.912 322.926 648.673 322.926C664.435 322.926 679.203 325.6 692.978 330.946C706.885 336.292 719.004 343.598 729.335 352.865C739.666 362.132 747.812 373.003 753.772 385.477C759.732 397.833 762.713 411.08 762.713 425.217V578.476Z" fill="url(#paint7_linear_150_49)"/>
<path d="M1040.46 450.701C1040.46 462.463 1038.74 473.809 1035.29 484.739C1031.98 495.55 1027.21 505.708 1020.99 515.212C1014.76 524.598 1007.35 533.211 998.738 541.052C990.129 548.774 980.526 555.427 969.93 561.011C959.334 566.595 947.944 570.931 935.758 574.02C923.705 576.991 911.123 578.476 898.01 578.476H812.183V322.926H898.01C911.123 322.926 923.705 324.471 935.758 327.56C947.944 330.53 959.334 334.807 969.93 340.391C980.526 345.975 990.129 352.687 998.738 360.528C1007.35 368.25 1014.76 376.864 1020.99 386.368C1027.21 395.754 1031.98 405.912 1035.29 416.842C1038.74 427.653 1040.46 438.939 1040.46 450.701ZM983.44 450.701C983.44 440.127 981.189 430.207 976.685 420.94C972.314 411.674 966.222 403.595 958.407 396.704C950.725 389.695 941.652 384.17 931.189 380.131C920.858 376.092 909.798 374.072 898.01 374.072H869.599V527.33H898.01C909.798 527.33 920.858 525.37 931.189 521.449C941.652 517.41 950.725 511.945 958.407 505.054C966.222 498.045 972.314 489.907 976.685 480.64C981.189 471.254 983.44 461.275 983.44 450.701Z" fill="url(#paint8_linear_150_49)"/>
<path d="M1273.7 578.476H1078.41V322.926H1273.7V374.072H1135.43V425.217C1135.43 425.217 1103.54 408.21 1229 425.217C1354.46 442.224 1229 476.363 1229 476.363H1135.43V527.33H1273.7V578.476Z" fill="url(#paint9_linear_150_49)"/>
<path d="M1596.35 578.476H1539.53V395.991C1539.53 392.427 1538.74 389.101 1537.15 386.012C1535.69 382.923 1533.64 380.25 1530.99 377.992C1528.47 375.616 1525.49 373.775 1522.05 372.468C1518.6 371.161 1514.9 370.508 1510.92 370.508C1506.95 370.508 1503.24 371.161 1499.8 372.468C1496.35 373.775 1493.31 375.616 1490.66 377.992C1488.14 380.25 1486.15 382.923 1484.7 386.012C1483.24 389.101 1482.51 392.427 1482.51 395.991V578.476H1425.49V395.991C1425.49 392.427 1424.76 389.101 1423.31 386.012C1421.85 382.923 1419.8 380.25 1417.15 377.992C1414.63 375.616 1411.65 373.775 1408.21 372.468C1404.76 371.161 1401.05 370.508 1397.08 370.508C1393.11 370.508 1389.4 371.161 1385.96 372.468C1382.51 373.775 1379.47 375.616 1376.82 377.992C1374.3 380.25 1372.31 382.923 1370.86 386.012C1369.4 389.101 1368.67 392.427 1368.67 395.991V578.476H1311.65V395.991C1311.65 385.418 1313.84 375.497 1318.21 366.231C1322.71 356.845 1328.8 348.707 1336.49 341.816C1344.3 334.807 1353.37 329.342 1363.7 325.421C1374.17 321.382 1385.29 319.362 1397.08 319.362C1407.68 319.362 1417.88 321.085 1427.68 324.53C1437.48 327.857 1446.29 332.728 1454.1 339.143C1461.92 332.728 1470.66 327.857 1480.33 324.53C1490.13 321.085 1500.33 319.362 1510.92 319.362C1522.71 319.362 1533.77 321.382 1544.1 325.421C1554.56 329.342 1563.64 334.807 1571.32 341.816C1579.13 348.707 1585.23 356.845 1589.6 366.231C1594.1 375.497 1596.35 385.418 1596.35 395.991V578.476Z" fill="url(#paint10_linear_150_49)"/>
<path d="M1773.57 578.476H1716.75V498.461C1704.17 495.609 1692.58 491.035 1681.98 484.739C1671.52 478.442 1662.51 470.957 1654.96 462.284C1647.41 453.493 1641.52 443.81 1637.28 433.237C1633.17 422.544 1631.12 411.317 1631.12 399.556V322.926H1688.14V399.556C1688.14 406.565 1689.6 413.218 1692.51 419.515C1695.56 425.693 1699.66 431.098 1704.83 435.732C1709.99 440.365 1716.02 444.048 1722.91 446.78C1729.93 449.394 1737.34 450.701 1745.16 450.701C1752.97 450.701 1760.32 449.394 1767.21 446.78C1774.23 444.048 1780.32 440.365 1785.49 435.732C1790.66 431.098 1794.7 425.693 1797.61 419.515C1800.66 413.218 1802.18 406.565 1802.18 399.556V322.926H1859V399.556C1859 411.317 1856.88 422.544 1852.64 433.237C1848.54 443.81 1842.71 453.493 1835.16 462.284C1827.61 470.957 1818.6 478.442 1808.14 484.739C1797.68 491.035 1786.15 495.609 1773.57 498.461V578.476Z" fill="url(#paint11_linear_150_49)"/>
<defs>
<linearGradient id="paint0_linear_150_49" x1="484.786" y1="31.5001" x2="1439.95" y2="565.177" gradientUnits="userSpaceOnUse">
<stop stop-color="#6884E6"/>
<stop offset="1" stop-color="white"/>
</linearGradient>
<linearGradient id="paint1_linear_150_49" x1="484.786" y1="31.5001" x2="1439.95" y2="565.177" gradientUnits="userSpaceOnUse">
<stop stop-color="#6884E6"/>
<stop offset="1" stop-color="white"/>
</linearGradient>
<linearGradient id="paint2_linear_150_49" x1="484.786" y1="31.5001" x2="1439.95" y2="565.177" gradientUnits="userSpaceOnUse">
<stop stop-color="#6884E6"/>
<stop offset="1" stop-color="white"/>
</linearGradient>
<linearGradient id="paint3_linear_150_49" x1="484.786" y1="31.5001" x2="1439.95" y2="565.177" gradientUnits="userSpaceOnUse">
<stop stop-color="#6884E6"/>
<stop offset="1" stop-color="white"/>
</linearGradient>
<linearGradient id="paint4_linear_150_49" x1="484.786" y1="31.5001" x2="1439.95" y2="565.177" gradientUnits="userSpaceOnUse">
<stop stop-color="#6884E6"/>
<stop offset="1" stop-color="white"/>
</linearGradient>
<linearGradient id="paint5_linear_150_49" x1="484.786" y1="31.5001" x2="1439.95" y2="565.177" gradientUnits="userSpaceOnUse">
<stop stop-color="#6884E6"/>
<stop offset="1" stop-color="white"/>
</linearGradient>
<linearGradient id="paint6_linear_150_49" x1="484.786" y1="31.5001" x2="1439.95" y2="565.177" gradientUnits="userSpaceOnUse">
<stop stop-color="#6884E6"/>
<stop offset="1" stop-color="white"/>
</linearGradient>
<linearGradient id="paint7_linear_150_49" x1="484.786" y1="31.5001" x2="1439.95" y2="565.177" gradientUnits="userSpaceOnUse">
<stop stop-color="#6884E6"/>
<stop offset="1" stop-color="white"/>
</linearGradient>
<linearGradient id="paint8_linear_150_49" x1="484.786" y1="31.5001" x2="1439.95" y2="565.177" gradientUnits="userSpaceOnUse">
<stop stop-color="#6884E6"/>
<stop offset="1" stop-color="white"/>
</linearGradient>
<linearGradient id="paint9_linear_150_49" x1="484.786" y1="31.5001" x2="1439.95" y2="565.177" gradientUnits="userSpaceOnUse">
<stop stop-color="#6884E6"/>
<stop offset="1" stop-color="white"/>
</linearGradient>
<linearGradient id="paint10_linear_150_49" x1="484.786" y1="31.5001" x2="1439.95" y2="565.177" gradientUnits="userSpaceOnUse">
<stop stop-color="#6884E6"/>
<stop offset="1" stop-color="white"/>
</linearGradient>
<linearGradient id="paint11_linear_150_49" x1="484.786" y1="31.5001" x2="1439.95" y2="565.177" gradientUnits="userSpaceOnUse">
<stop stop-color="#6884E6"/>
<stop offset="1" stop-color="white"/>
</linearGradient>
</defs>
</svg>
