<svg width="24" height="18" viewBox="0 0 24 18" fill="none" xmlns="http://www.w3.org/2000/svg">
<path d="M23.5916 2.4292L8.82671 17.5841C8.69811 17.7165 8.5453 17.8216 8.37705 17.8933C8.2088 17.965 8.02841 18.002 7.84623 18.002C7.66405 18.002 7.48366 17.965 7.31541 17.8933C7.14715 17.8216 6.99435 17.7165 6.86575 17.5841L0.406127 10.9538C0.277369 10.8217 0.175233 10.6648 0.105549 10.4921C0.0358656 10.3194 1.91865e-09 10.1343 0 9.94744C-1.91865e-09 9.76054 0.0358656 9.57546 0.105549 9.40279C0.175233 9.23011 0.277369 9.07322 0.406127 8.94106C0.534886 8.8089 0.687744 8.70406 0.855975 8.63254C1.02421 8.56102 1.20451 8.5242 1.38661 8.5242C1.5687 8.5242 1.74901 8.56102 1.91724 8.63254C2.08547 8.70406 2.23833 8.8089 2.36708 8.94106L7.84738 14.5661L21.6329 0.418808C21.893 0.1519 22.2456 0.00195313 22.6134 0.00195312C22.9811 0.00195313 23.3338 0.1519 23.5939 0.418808C23.8539 0.685717 24 1.04772 24 1.42519C24 1.80265 23.8539 2.16466 23.5939 2.43157L23.5916 2.4292Z" fill="#2C2E2D"/>
</svg>
