<svg width="149" height="46" viewBox="0 0 149 46" fill="none" xmlns="http://www.w3.org/2000/svg">
<path d="M138.634 0.899963H129.318C126.501 0.899963 124.334 1.76663 123.034 4.5833L105.268 45.1H117.834C117.834 45.1 120.001 39.6833 120.434 38.3833C121.734 38.3833 134.084 38.3833 135.818 38.3833C136.251 39.9 137.334 44.8833 137.334 44.8833H148.601L138.634 0.899963ZM123.901 29.2833C124.984 26.6833 128.668 16.9333 128.668 16.9333C128.668 17.15 129.751 14.3333 130.184 12.8166L131.051 16.7166C131.051 16.7166 133.434 27.3333 133.868 29.5H123.901V29.2833Z" fill="#27B1E6"/>
<path d="M106.134 30.5833C106.134 39.6833 97.9003 45.75 85.1169 45.75C79.7003 45.75 74.5003 44.6667 71.6836 43.3667L73.4169 33.4L74.9336 34.05C78.8336 35.7833 81.4336 36.4333 86.2003 36.4333C89.6669 36.4333 93.3503 35.1333 93.3503 32.1C93.3503 30.15 91.8336 28.85 87.0669 26.6833C82.5169 24.5167 76.4503 21.05 76.4503 14.7667C76.4503 6.1 84.9003 0.25 96.8169 0.25C101.367 0.25 105.267 1.11667 107.65 2.2L105.917 11.7333L105.05 10.8667C102.884 10 100.067 9.13333 95.9503 9.13333C91.4003 9.35 89.2336 11.3 89.2336 13.0333C89.2336 14.9833 91.8336 16.5 95.9503 18.45C102.884 21.7 106.134 25.3833 106.134 30.5833Z" fill="#27B1E6"/>
<path d="M0.400391 1.33328L0.617057 0.466614H19.2504C21.8504 0.466614 23.8004 1.33328 24.4504 4.14995L28.5671 23.6499C24.4504 13.2499 14.9171 4.79995 0.400391 1.33328Z" fill="#F9B50B"/>
<path d="M54.7831 0.900016L35.9331 44.8834H23.1497L12.3164 8.05002C20.1164 13.0333 26.6164 20.8334 28.9997 26.25L30.2997 30.8L41.9997 0.68335H54.7831V0.900016Z" fill="#27B1E6"/>
<path d="M59.7669 0.68335H71.6836L64.1003 44.8834H52.1836L59.7669 0.68335Z" fill="#27B1E6"/>
</svg>
