<svg width="69" height="22" viewBox="0 0 69 22" fill="none" xmlns="http://www.w3.org/2000/svg">
<path d="M63.7999 0.798828H59.4999C58.1999 0.798828 57.1999 1.19883 56.5999 2.49883L48.3999 21.1988H54.1999C54.1999 21.1988 55.1999 18.6988 55.3999 18.0988C55.9999 18.0988 61.6999 18.0988 62.4999 18.0988C62.6999 18.7988 63.1999 21.0988 63.1999 21.0988H68.3999L63.7999 0.798828ZM56.9999 13.8988C57.4999 12.6988 59.1999 8.19883 59.1999 8.19883C59.1999 8.29883 59.6999 6.99883 59.8999 6.29883L60.2999 8.09883C60.2999 8.09883 61.3999 12.9988 61.5999 13.9988H56.9999V13.8988Z" fill="white"/>
<path d="M48.7999 14.499C48.7999 18.699 44.9999 21.499 39.0999 21.499C36.5999 21.499 34.1999 20.999 32.8999 20.399L33.6999 15.799L34.3999 16.099C36.1999 16.899 37.3999 17.199 39.5999 17.199C41.1999 17.199 42.8999 16.599 42.8999 15.199C42.8999 14.299 42.1999 13.699 39.9999 12.699C37.8999 11.699 35.0999 10.099 35.0999 7.19902C35.0999 3.19902 38.9999 0.499023 44.4999 0.499023C46.5999 0.499023 48.3999 0.899023 49.4999 1.39902L48.6999 5.79902L48.2999 5.39902C47.2999 4.99902 45.9999 4.59902 44.0999 4.59902C41.9999 4.69902 40.9999 5.59902 40.9999 6.39902C40.9999 7.29902 42.1999 7.99902 44.0999 8.89902C47.2999 10.399 48.7999 12.099 48.7999 14.499Z" fill="white"/>
<path d="M0 0.999121L0.1 0.599121H8.7C9.9 0.599121 10.8 0.999121 11.1 2.29912L13 11.2991C11.1 6.49912 6.7 2.59912 0 0.999121Z" fill="#F9B50B"/>
<path d="M25.1 0.799219L16.4 21.0992H10.5L5.5 4.09922C9.1 6.39922 12.1 9.99922 13.2 12.4992L13.8 14.5992L19.2 0.699219H25.1V0.799219Z" fill="white"/>
<path d="M27.3999 0.699219H32.8999L29.3999 21.0992H23.8999L27.3999 0.699219Z" fill="white"/>
</svg>
