<svg width="21" height="21" viewBox="0 0 21 21" fill="none" xmlns="http://www.w3.org/2000/svg">
<path d="M17.9268 3.0625C15.9512 1.0937 13.3171 0 10.5366 0C4.7561 0 0.0732002 4.6667 0.0732002 10.4271C0.0732002 12.25 0.5854 14.0729 1.4634 15.6042L0 21L5.561 19.5417C7.0976 20.3438 8.7805 20.7813 10.5366 20.7813C16.3171 20.7813 21 16.1146 21 10.3542C20.9268 7.6563 19.9024 5.0312 17.9268 3.0625ZM15.5854 14.1458C15.3659 14.7292 14.3415 15.3125 13.8293 15.3854C13.3902 15.4583 12.8049 15.4583 12.2195 15.3125C11.8537 15.1667 11.3415 15.0208 10.7561 14.7292C8.122 13.6354 6.439 11.0104 6.2927 10.7917C6.1463 10.6458 5.1951 9.4062 5.1951 8.0937C5.1951 6.7812 5.8537 6.1979 6.0732 5.9062C6.2927 5.6146 6.5854 5.6146 6.8049 5.6146C6.9512 5.6146 7.1707 5.6146 7.3171 5.6146C7.4634 5.6146 7.6829 5.5417 7.9024 6.0521C8.122 6.5625 8.6341 7.875 8.7073 7.9479C8.7805 8.0937 8.7805 8.2396 8.7073 8.3854C8.6341 8.5313 8.561 8.6771 8.4146 8.8229C8.2683 8.9687 8.1219 9.1875 8.0488 9.2604C7.9024 9.4062 7.7561 9.5521 7.9024 9.7708C8.0488 10.0625 8.561 10.8646 9.3659 11.5937C10.3902 12.4687 11.1951 12.7604 11.4878 12.9063C11.7805 13.0521 11.9268 12.9792 12.0732 12.8333C12.2195 12.6875 12.7317 12.1042 12.878 11.8125C13.0244 11.5208 13.2439 11.5938 13.4634 11.6667C13.6829 11.7396 15 12.3958 15.2195 12.5417C15.5122 12.6875 15.6585 12.7604 15.7317 12.8333C15.8049 13.0521 15.8049 13.5625 15.5854 14.1458Z" fill="white"/>
</svg>
