<svg width="22" height="22" viewBox="0 0 22 22" fill="none" xmlns="http://www.w3.org/2000/svg">
<path d="M11 0C17.0753 0 22 4.9247 22 11C22 17.0753 17.0753 22 11 22C9.05607 22.0031 7.14633 21.4887 5.46701 20.5095L0.00441547 22L1.49161 16.5352C0.511617 14.8554 -0.00323221 12.9448 1.52683e-05 11C1.52683e-05 4.9247 4.92471 0 11 0ZM7.25121 5.83L7.03121 5.8388C6.88878 5.84747 6.74959 5.88489 6.62201 5.9488C6.50268 6.01637 6.39376 6.10084 6.29861 6.1996C6.16661 6.3239 6.09181 6.4317 6.01151 6.5362C5.60465 7.06519 5.38558 7.71464 5.38891 8.38199C5.39111 8.92099 5.53191 9.44569 5.75191 9.93629C6.20181 10.9285 6.94211 11.979 7.91891 12.9525C8.15431 13.1868 8.38531 13.4222 8.63391 13.6411C9.84764 14.7097 11.294 15.4803 12.8579 15.8917L13.4827 15.9874C13.6862 15.9984 13.8897 15.983 14.0943 15.9731C14.4147 15.9566 14.7275 15.8698 15.0106 15.719C15.1547 15.6448 15.2952 15.564 15.4319 15.477C15.4319 15.477 15.4792 15.4462 15.5694 15.378C15.7179 15.268 15.8092 15.1899 15.9324 15.0612C16.0237 14.9666 16.1029 14.8555 16.1634 14.729C16.2492 14.5497 16.335 14.2076 16.3702 13.9227C16.3966 13.7049 16.3889 13.5861 16.3856 13.5124C16.3812 13.3947 16.2833 13.2726 16.1766 13.2209L15.5364 12.9338C15.5364 12.9338 14.5794 12.5169 13.9942 12.2507C13.933 12.224 13.8674 12.2087 13.8006 12.2056C13.7253 12.1979 13.6493 12.2063 13.5776 12.2304C13.5059 12.2545 13.4401 12.2937 13.3848 12.3453C13.3793 12.3431 13.3056 12.4058 12.5103 13.3694C12.4647 13.4307 12.4018 13.4771 12.3297 13.5026C12.2576 13.528 12.1796 13.5314 12.1055 13.5124C12.0338 13.4932 11.9636 13.4689 11.8954 13.4398C11.759 13.3826 11.7117 13.3606 11.6182 13.321C10.9869 13.0455 10.4024 12.6733 9.88571 12.2177C9.74711 12.0967 9.61841 11.9647 9.48641 11.8371C9.05365 11.4226 8.67651 10.9538 8.36441 10.4423L8.29951 10.3378C8.2529 10.2676 8.21521 10.1918 8.18731 10.1123C8.14551 9.95059 8.25441 9.82079 8.25441 9.82079C8.25441 9.82079 8.52171 9.52819 8.64601 9.36979C8.76701 9.21579 8.86931 9.06619 8.93531 8.95949C9.06511 8.75049 9.10581 8.53599 9.03761 8.36989C8.72961 7.6175 8.41061 6.8684 8.08281 6.1248C8.01791 5.9774 7.82541 5.8718 7.65051 5.8509C7.59111 5.8443 7.53171 5.8377 7.47231 5.8333C7.32459 5.82596 7.17656 5.82743 7.02901 5.8377L7.25011 5.8289L7.25121 5.83Z" fill="#ECF7F5"/>
</svg>
